M48
;GenerationSoftware,Autodesk,EAGLE,8.7.1*%
;CreationDate,2018-04-19T12:08:12Z*%
FMAT,2
ICI,OFF
METRIC,TZ,000.000
T8C0.350
T7C0.813
T6C0.914
T5C1.016
T4C1.400
T3C1.524
T2C1.778
T1C2.286
%
G90
M71
T1
X6362Y21920
X6362Y33960
T2
X1905Y64770
X86995Y64770
T3
X85090Y5080
X85090Y28575
X18415Y22225
T4
X78530Y37125
X78530Y41325
X78530Y45525
X78530Y49725
X84030Y32925
X84030Y37125
X84030Y41325
X84030Y45525
X84030Y49725
X84030Y53925
X84030Y58125
X84030Y62325
X79165Y21980
X79165Y17780
X79165Y13580
X84665Y13580
X84665Y17780
X84665Y21980
X78530Y53925
X78530Y58125
X78530Y62325
X78530Y32925
T5
X11430Y45720
X11430Y43180
X8890Y45720
X8890Y43180
X6350Y45720
X6350Y43180
X38100Y16510
X38100Y11430
X38100Y13970
T6
X9080Y26690
X9080Y29190
X11061Y29190
X11061Y26690
T7
X3810Y6477
X25527Y20320
X30353Y20320
X3810Y11303
T8
X43180Y25400
X14605Y45720
X17145Y42545
X33655Y41275
X2540Y48260
X2540Y37465
X86995Y60325
X86995Y46990
X48260Y47625
X41275Y53975
X27305Y43180
X34925Y6985
X34925Y3175
X24765Y1905
X6350Y1905
X81280Y41910
X56515Y40005
X67945Y36195
X67945Y41275
X17780Y25400
X20320Y35560
X29845Y38735
X27305Y31750
X21590Y27305
X16510Y24765
X29845Y48260
X60325Y55880
X53340Y45720
X48895Y33655
X46965Y29591
X65405Y27940
X24765Y43180
X15875Y59055
X2540Y59055
X24765Y46355
X16510Y49530
X9525Y59055
X22225Y59055
X28575Y59055
X87655Y1575
X24765Y51435
X29210Y43815
X55880Y5715
X57150Y24765
X55880Y8890
X13970Y27940
X14605Y37465
X15240Y27940
X13335Y38100
X55880Y19685
X29210Y28575
X30480Y49530
X51435Y56515
X30480Y27305
X30480Y50800
X49530Y55245
X35560Y30480
X41275Y48260
X67310Y38735
X58420Y38100
X43180Y21590
X38735Y21590
X38735Y25400
X37465Y35560
X37465Y33655
X47625Y42545
X51435Y22860
X51435Y6350
X60325Y53340
X55245Y12700
X26670Y34290
X26670Y48895
X24130Y48895
X8255Y64135
X14605Y64135
X20955Y64135
X27305Y64135
X33655Y64135
X40005Y64135
X23495Y27305
X28575Y38735
X20320Y33020
X11430Y19685
X19685Y11430
X27940Y15240
X13970Y3175
X62230Y3175
X62230Y4445
X62865Y5080
X64135Y5080
X65405Y5080
X62230Y10795
X62230Y12065
X62865Y12700
X64135Y12700
X65405Y12700
X62230Y18415
X62230Y19685
X62865Y20320
X64135Y20320
X65405Y20320
X62230Y26035
X62230Y27305
X62865Y27940
X64135Y27940
X20955Y50165
M30