G04 EAGLE Gerber X2 export*
%TF.Part,Single*%
%TF.FileFunction,Legend,Top,1*%
%TF.FilePolarity,Positive*%
%TF.GenerationSoftware,Autodesk,EAGLE,8.7.1*%
%TF.CreationDate,2018-04-19T12:08:15Z*%
G75*
%MOMM*%
%FSLAX34Y34*%
%LPD*%
%AMOC8*
5,1,8,0,0,1.08239X$1,22.5*%
G01*
%ADD10C,0.177800*%
%ADD11C,0.101600*%
%ADD12C,0.152400*%
%ADD13C,0.609600*%
%ADD14C,0.076200*%
%ADD15C,0.203200*%
%ADD16C,0.254000*%
%ADD17C,0.406400*%
%ADD18C,0.127000*%
%ADD19C,0.500000*%
%ADD20C,0.600000*%
%ADD21R,0.300000X0.150000*%
%ADD22R,0.300000X0.300000*%


D10*
X339669Y255905D02*
X339669Y235839D01*
X341898Y235839D02*
X337439Y235839D01*
X337439Y255905D02*
X341898Y255905D01*
X357347Y246987D02*
X360691Y246987D01*
X360691Y235839D01*
X354002Y235839D01*
X353870Y235841D01*
X353738Y235847D01*
X353606Y235857D01*
X353475Y235870D01*
X353344Y235888D01*
X353213Y235909D01*
X353084Y235935D01*
X352955Y235964D01*
X352827Y235997D01*
X352700Y236033D01*
X352574Y236074D01*
X352449Y236118D01*
X352326Y236166D01*
X352204Y236217D01*
X352084Y236272D01*
X351966Y236331D01*
X351849Y236393D01*
X351734Y236459D01*
X351622Y236527D01*
X351511Y236600D01*
X351402Y236675D01*
X351296Y236754D01*
X351192Y236835D01*
X351091Y236920D01*
X350992Y237008D01*
X350896Y237099D01*
X350803Y237192D01*
X350712Y237288D01*
X350624Y237387D01*
X350539Y237488D01*
X350458Y237592D01*
X350379Y237698D01*
X350304Y237807D01*
X350231Y237918D01*
X350163Y238030D01*
X350097Y238145D01*
X350035Y238262D01*
X349976Y238380D01*
X349921Y238500D01*
X349870Y238622D01*
X349822Y238745D01*
X349778Y238870D01*
X349737Y238996D01*
X349701Y239123D01*
X349668Y239251D01*
X349639Y239380D01*
X349613Y239509D01*
X349592Y239640D01*
X349574Y239771D01*
X349561Y239902D01*
X349551Y240034D01*
X349545Y240166D01*
X349543Y240298D01*
X349543Y251446D01*
X349545Y251578D01*
X349551Y251710D01*
X349561Y251842D01*
X349574Y251973D01*
X349592Y252104D01*
X349613Y252235D01*
X349639Y252364D01*
X349668Y252493D01*
X349701Y252621D01*
X349737Y252748D01*
X349778Y252874D01*
X349822Y252999D01*
X349870Y253122D01*
X349921Y253244D01*
X349976Y253364D01*
X350035Y253482D01*
X350097Y253599D01*
X350163Y253714D01*
X350231Y253826D01*
X350304Y253937D01*
X350379Y254045D01*
X350458Y254152D01*
X350539Y254256D01*
X350624Y254357D01*
X350712Y254456D01*
X350803Y254552D01*
X350896Y254645D01*
X350992Y254736D01*
X351091Y254824D01*
X351192Y254909D01*
X351296Y254990D01*
X351402Y255069D01*
X351511Y255144D01*
X351622Y255217D01*
X351734Y255285D01*
X351849Y255351D01*
X351966Y255413D01*
X352084Y255472D01*
X352204Y255527D01*
X352326Y255578D01*
X352449Y255626D01*
X352574Y255670D01*
X352700Y255711D01*
X352827Y255747D01*
X352955Y255780D01*
X353084Y255809D01*
X353213Y255835D01*
X353344Y255856D01*
X353475Y255874D01*
X353606Y255887D01*
X353738Y255897D01*
X353870Y255903D01*
X354002Y255905D01*
X360691Y255905D01*
X369318Y255905D02*
X369318Y235839D01*
X380465Y235839D02*
X369318Y255905D01*
X380465Y255905D02*
X380465Y235839D01*
X390340Y235839D02*
X390340Y255905D01*
X388110Y235839D02*
X392570Y235839D01*
X392570Y255905D02*
X388110Y255905D01*
X403935Y255905D02*
X403935Y235839D01*
X398361Y255905D02*
X409509Y255905D01*
X417530Y255905D02*
X417530Y235839D01*
X419759Y235839D02*
X415300Y235839D01*
X415300Y255905D02*
X419759Y255905D01*
X426786Y250331D02*
X426786Y241413D01*
X426786Y250331D02*
X426788Y250479D01*
X426794Y250628D01*
X426804Y250776D01*
X426818Y250923D01*
X426835Y251071D01*
X426857Y251218D01*
X426883Y251364D01*
X426912Y251509D01*
X426945Y251654D01*
X426982Y251798D01*
X427023Y251940D01*
X427068Y252082D01*
X427117Y252222D01*
X427169Y252361D01*
X427225Y252498D01*
X427284Y252634D01*
X427347Y252769D01*
X427414Y252901D01*
X427484Y253032D01*
X427558Y253161D01*
X427635Y253288D01*
X427715Y253412D01*
X427799Y253535D01*
X427886Y253655D01*
X427976Y253773D01*
X428069Y253889D01*
X428165Y254002D01*
X428264Y254112D01*
X428366Y254220D01*
X428471Y254325D01*
X428579Y254427D01*
X428689Y254526D01*
X428802Y254622D01*
X428918Y254715D01*
X429036Y254805D01*
X429156Y254892D01*
X429279Y254976D01*
X429403Y255056D01*
X429530Y255133D01*
X429659Y255207D01*
X429790Y255277D01*
X429922Y255344D01*
X430057Y255407D01*
X430193Y255466D01*
X430330Y255522D01*
X430469Y255574D01*
X430609Y255623D01*
X430751Y255668D01*
X430893Y255709D01*
X431037Y255746D01*
X431182Y255779D01*
X431327Y255808D01*
X431473Y255834D01*
X431620Y255856D01*
X431768Y255873D01*
X431915Y255887D01*
X432063Y255897D01*
X432212Y255903D01*
X432360Y255905D01*
X432508Y255903D01*
X432657Y255897D01*
X432805Y255887D01*
X432952Y255873D01*
X433100Y255856D01*
X433247Y255834D01*
X433393Y255808D01*
X433538Y255779D01*
X433683Y255746D01*
X433827Y255709D01*
X433969Y255668D01*
X434111Y255623D01*
X434251Y255574D01*
X434390Y255522D01*
X434527Y255466D01*
X434663Y255407D01*
X434798Y255344D01*
X434930Y255277D01*
X435061Y255207D01*
X435190Y255133D01*
X435317Y255056D01*
X435441Y254976D01*
X435564Y254892D01*
X435684Y254805D01*
X435802Y254715D01*
X435918Y254622D01*
X436031Y254526D01*
X436141Y254427D01*
X436249Y254325D01*
X436354Y254220D01*
X436456Y254112D01*
X436555Y254002D01*
X436651Y253889D01*
X436744Y253773D01*
X436834Y253655D01*
X436921Y253535D01*
X437005Y253412D01*
X437085Y253288D01*
X437162Y253161D01*
X437236Y253032D01*
X437306Y252901D01*
X437373Y252769D01*
X437436Y252634D01*
X437495Y252498D01*
X437551Y252361D01*
X437603Y252222D01*
X437652Y252082D01*
X437697Y251940D01*
X437738Y251798D01*
X437775Y251654D01*
X437808Y251509D01*
X437837Y251364D01*
X437863Y251218D01*
X437885Y251071D01*
X437902Y250923D01*
X437916Y250776D01*
X437926Y250628D01*
X437932Y250479D01*
X437934Y250331D01*
X437934Y241413D01*
X437932Y241265D01*
X437926Y241116D01*
X437916Y240968D01*
X437902Y240821D01*
X437885Y240673D01*
X437863Y240526D01*
X437837Y240380D01*
X437808Y240235D01*
X437775Y240090D01*
X437738Y239946D01*
X437697Y239804D01*
X437652Y239662D01*
X437603Y239522D01*
X437551Y239383D01*
X437495Y239246D01*
X437436Y239110D01*
X437373Y238975D01*
X437306Y238843D01*
X437236Y238712D01*
X437162Y238583D01*
X437085Y238456D01*
X437005Y238332D01*
X436921Y238209D01*
X436834Y238089D01*
X436744Y237971D01*
X436651Y237855D01*
X436555Y237742D01*
X436456Y237632D01*
X436354Y237524D01*
X436249Y237419D01*
X436141Y237317D01*
X436031Y237218D01*
X435918Y237122D01*
X435802Y237029D01*
X435684Y236939D01*
X435564Y236852D01*
X435441Y236768D01*
X435317Y236688D01*
X435190Y236611D01*
X435061Y236537D01*
X434930Y236467D01*
X434798Y236400D01*
X434663Y236337D01*
X434527Y236278D01*
X434390Y236222D01*
X434251Y236170D01*
X434111Y236121D01*
X433969Y236076D01*
X433827Y236035D01*
X433683Y235998D01*
X433538Y235965D01*
X433393Y235936D01*
X433247Y235910D01*
X433100Y235888D01*
X432952Y235871D01*
X432805Y235857D01*
X432657Y235847D01*
X432508Y235841D01*
X432360Y235839D01*
X432212Y235841D01*
X432063Y235847D01*
X431915Y235857D01*
X431768Y235871D01*
X431620Y235888D01*
X431473Y235910D01*
X431327Y235936D01*
X431182Y235965D01*
X431037Y235998D01*
X430893Y236035D01*
X430751Y236076D01*
X430609Y236121D01*
X430469Y236170D01*
X430330Y236222D01*
X430193Y236278D01*
X430057Y236337D01*
X429922Y236400D01*
X429790Y236467D01*
X429659Y236537D01*
X429530Y236611D01*
X429403Y236688D01*
X429279Y236768D01*
X429156Y236852D01*
X429036Y236939D01*
X428918Y237029D01*
X428802Y237122D01*
X428689Y237218D01*
X428579Y237317D01*
X428471Y237419D01*
X428366Y237524D01*
X428264Y237632D01*
X428165Y237742D01*
X428069Y237855D01*
X427976Y237971D01*
X427886Y238089D01*
X427799Y238209D01*
X427715Y238332D01*
X427635Y238456D01*
X427558Y238583D01*
X427484Y238712D01*
X427414Y238843D01*
X427347Y238975D01*
X427284Y239110D01*
X427225Y239246D01*
X427169Y239383D01*
X427117Y239522D01*
X427068Y239662D01*
X427023Y239804D01*
X426982Y239946D01*
X426945Y240090D01*
X426912Y240235D01*
X426883Y240380D01*
X426857Y240526D01*
X426835Y240673D01*
X426818Y240821D01*
X426804Y240968D01*
X426794Y241116D01*
X426788Y241265D01*
X426786Y241413D01*
X445943Y235839D02*
X445943Y255905D01*
X457090Y235839D01*
X457090Y255905D01*
D11*
X362458Y234442D02*
X362458Y222758D01*
X362458Y234442D02*
X365704Y234442D01*
X365817Y234440D01*
X365930Y234434D01*
X366043Y234424D01*
X366156Y234410D01*
X366268Y234393D01*
X366379Y234371D01*
X366489Y234346D01*
X366599Y234316D01*
X366707Y234283D01*
X366814Y234246D01*
X366920Y234206D01*
X367024Y234161D01*
X367127Y234113D01*
X367228Y234062D01*
X367327Y234007D01*
X367424Y233949D01*
X367519Y233887D01*
X367612Y233822D01*
X367702Y233754D01*
X367790Y233683D01*
X367876Y233608D01*
X367959Y233531D01*
X368039Y233451D01*
X368116Y233368D01*
X368191Y233282D01*
X368262Y233194D01*
X368330Y233104D01*
X368395Y233011D01*
X368457Y232916D01*
X368515Y232819D01*
X368570Y232720D01*
X368621Y232619D01*
X368669Y232516D01*
X368714Y232412D01*
X368754Y232306D01*
X368791Y232199D01*
X368824Y232091D01*
X368854Y231981D01*
X368879Y231871D01*
X368901Y231760D01*
X368918Y231648D01*
X368932Y231535D01*
X368942Y231422D01*
X368948Y231309D01*
X368950Y231196D01*
X368948Y231083D01*
X368942Y230970D01*
X368932Y230857D01*
X368918Y230744D01*
X368901Y230632D01*
X368879Y230521D01*
X368854Y230411D01*
X368824Y230301D01*
X368791Y230193D01*
X368754Y230086D01*
X368714Y229980D01*
X368669Y229876D01*
X368621Y229773D01*
X368570Y229672D01*
X368515Y229573D01*
X368457Y229476D01*
X368395Y229381D01*
X368330Y229288D01*
X368262Y229198D01*
X368191Y229110D01*
X368116Y229024D01*
X368039Y228941D01*
X367959Y228861D01*
X367876Y228784D01*
X367790Y228709D01*
X367702Y228638D01*
X367612Y228570D01*
X367519Y228505D01*
X367424Y228443D01*
X367327Y228385D01*
X367228Y228330D01*
X367127Y228279D01*
X367024Y228231D01*
X366920Y228186D01*
X366814Y228146D01*
X366707Y228109D01*
X366599Y228076D01*
X366489Y228046D01*
X366379Y228021D01*
X366268Y227999D01*
X366156Y227982D01*
X366043Y227968D01*
X365930Y227958D01*
X365817Y227952D01*
X365704Y227950D01*
X365704Y227951D02*
X362458Y227951D01*
X373225Y227951D02*
X373225Y225354D01*
X373225Y227951D02*
X373227Y228052D01*
X373233Y228152D01*
X373243Y228252D01*
X373256Y228352D01*
X373274Y228451D01*
X373295Y228550D01*
X373320Y228647D01*
X373349Y228744D01*
X373382Y228839D01*
X373418Y228933D01*
X373458Y229025D01*
X373501Y229116D01*
X373548Y229205D01*
X373598Y229292D01*
X373652Y229378D01*
X373709Y229461D01*
X373769Y229541D01*
X373832Y229620D01*
X373899Y229696D01*
X373968Y229769D01*
X374040Y229839D01*
X374114Y229907D01*
X374191Y229972D01*
X374271Y230033D01*
X374353Y230092D01*
X374437Y230147D01*
X374523Y230199D01*
X374611Y230248D01*
X374701Y230293D01*
X374793Y230335D01*
X374886Y230373D01*
X374981Y230407D01*
X375076Y230438D01*
X375173Y230465D01*
X375271Y230488D01*
X375370Y230508D01*
X375470Y230523D01*
X375570Y230535D01*
X375670Y230543D01*
X375771Y230547D01*
X375871Y230547D01*
X375972Y230543D01*
X376072Y230535D01*
X376172Y230523D01*
X376272Y230508D01*
X376371Y230488D01*
X376469Y230465D01*
X376566Y230438D01*
X376661Y230407D01*
X376756Y230373D01*
X376849Y230335D01*
X376941Y230293D01*
X377031Y230248D01*
X377119Y230199D01*
X377205Y230147D01*
X377289Y230092D01*
X377371Y230033D01*
X377451Y229972D01*
X377528Y229907D01*
X377602Y229839D01*
X377674Y229769D01*
X377743Y229696D01*
X377810Y229620D01*
X377873Y229541D01*
X377933Y229461D01*
X377990Y229378D01*
X378044Y229292D01*
X378094Y229205D01*
X378141Y229116D01*
X378184Y229025D01*
X378224Y228933D01*
X378260Y228839D01*
X378293Y228744D01*
X378322Y228647D01*
X378347Y228550D01*
X378368Y228451D01*
X378386Y228352D01*
X378399Y228252D01*
X378409Y228152D01*
X378415Y228052D01*
X378417Y227951D01*
X378418Y227951D02*
X378418Y225354D01*
X378417Y225354D02*
X378415Y225253D01*
X378409Y225153D01*
X378399Y225053D01*
X378386Y224953D01*
X378368Y224854D01*
X378347Y224755D01*
X378322Y224658D01*
X378293Y224561D01*
X378260Y224466D01*
X378224Y224372D01*
X378184Y224280D01*
X378141Y224189D01*
X378094Y224100D01*
X378044Y224013D01*
X377990Y223927D01*
X377933Y223844D01*
X377873Y223764D01*
X377810Y223685D01*
X377743Y223609D01*
X377674Y223536D01*
X377602Y223466D01*
X377528Y223398D01*
X377451Y223333D01*
X377371Y223272D01*
X377289Y223213D01*
X377205Y223158D01*
X377119Y223106D01*
X377031Y223057D01*
X376941Y223012D01*
X376849Y222970D01*
X376756Y222932D01*
X376661Y222898D01*
X376566Y222867D01*
X376469Y222840D01*
X376371Y222817D01*
X376272Y222797D01*
X376172Y222782D01*
X376072Y222770D01*
X375972Y222762D01*
X375871Y222758D01*
X375771Y222758D01*
X375670Y222762D01*
X375570Y222770D01*
X375470Y222782D01*
X375370Y222797D01*
X375271Y222817D01*
X375173Y222840D01*
X375076Y222867D01*
X374981Y222898D01*
X374886Y222932D01*
X374793Y222970D01*
X374701Y223012D01*
X374611Y223057D01*
X374523Y223106D01*
X374437Y223158D01*
X374353Y223213D01*
X374271Y223272D01*
X374191Y223333D01*
X374114Y223398D01*
X374040Y223466D01*
X373968Y223536D01*
X373899Y223609D01*
X373832Y223685D01*
X373769Y223764D01*
X373709Y223844D01*
X373652Y223927D01*
X373598Y224013D01*
X373548Y224100D01*
X373501Y224189D01*
X373458Y224280D01*
X373418Y224372D01*
X373382Y224466D01*
X373349Y224561D01*
X373320Y224658D01*
X373295Y224755D01*
X373274Y224854D01*
X373256Y224953D01*
X373243Y225053D01*
X373233Y225153D01*
X373227Y225253D01*
X373225Y225354D01*
X382976Y230547D02*
X384923Y222758D01*
X386870Y227951D01*
X388818Y222758D01*
X390765Y230547D01*
X397270Y222758D02*
X400516Y222758D01*
X397270Y222758D02*
X397183Y222760D01*
X397095Y222766D01*
X397009Y222776D01*
X396922Y222789D01*
X396837Y222807D01*
X396752Y222828D01*
X396668Y222853D01*
X396586Y222882D01*
X396505Y222915D01*
X396425Y222951D01*
X396347Y222990D01*
X396271Y223034D01*
X396197Y223080D01*
X396126Y223130D01*
X396056Y223183D01*
X395989Y223239D01*
X395925Y223298D01*
X395863Y223360D01*
X395804Y223424D01*
X395748Y223491D01*
X395695Y223561D01*
X395645Y223632D01*
X395599Y223706D01*
X395555Y223782D01*
X395516Y223860D01*
X395480Y223940D01*
X395447Y224021D01*
X395418Y224103D01*
X395393Y224187D01*
X395372Y224272D01*
X395354Y224357D01*
X395341Y224444D01*
X395331Y224530D01*
X395325Y224618D01*
X395323Y224705D01*
X395323Y227951D01*
X395325Y228052D01*
X395331Y228152D01*
X395341Y228252D01*
X395354Y228352D01*
X395372Y228451D01*
X395393Y228550D01*
X395418Y228647D01*
X395447Y228744D01*
X395480Y228839D01*
X395516Y228933D01*
X395556Y229025D01*
X395599Y229116D01*
X395646Y229205D01*
X395696Y229292D01*
X395750Y229378D01*
X395807Y229461D01*
X395867Y229541D01*
X395930Y229620D01*
X395997Y229696D01*
X396066Y229769D01*
X396138Y229839D01*
X396212Y229907D01*
X396289Y229972D01*
X396369Y230033D01*
X396451Y230092D01*
X396535Y230147D01*
X396621Y230199D01*
X396709Y230248D01*
X396799Y230293D01*
X396891Y230335D01*
X396984Y230373D01*
X397079Y230407D01*
X397174Y230438D01*
X397271Y230465D01*
X397369Y230488D01*
X397468Y230508D01*
X397568Y230523D01*
X397668Y230535D01*
X397768Y230543D01*
X397869Y230547D01*
X397969Y230547D01*
X398070Y230543D01*
X398170Y230535D01*
X398270Y230523D01*
X398370Y230508D01*
X398469Y230488D01*
X398567Y230465D01*
X398664Y230438D01*
X398759Y230407D01*
X398854Y230373D01*
X398947Y230335D01*
X399039Y230293D01*
X399129Y230248D01*
X399217Y230199D01*
X399303Y230147D01*
X399387Y230092D01*
X399469Y230033D01*
X399549Y229972D01*
X399626Y229907D01*
X399700Y229839D01*
X399772Y229769D01*
X399841Y229696D01*
X399908Y229620D01*
X399971Y229541D01*
X400031Y229461D01*
X400088Y229378D01*
X400142Y229292D01*
X400192Y229205D01*
X400239Y229116D01*
X400282Y229025D01*
X400322Y228933D01*
X400358Y228839D01*
X400391Y228744D01*
X400420Y228647D01*
X400445Y228550D01*
X400466Y228451D01*
X400484Y228352D01*
X400497Y228252D01*
X400507Y228152D01*
X400513Y228052D01*
X400515Y227951D01*
X400516Y227951D02*
X400516Y226653D01*
X395323Y226653D01*
X405676Y222758D02*
X405676Y230547D01*
X409571Y230547D01*
X409571Y229249D01*
X415177Y222758D02*
X418423Y222758D01*
X415177Y222758D02*
X415090Y222760D01*
X415002Y222766D01*
X414916Y222776D01*
X414829Y222789D01*
X414744Y222807D01*
X414659Y222828D01*
X414575Y222853D01*
X414493Y222882D01*
X414412Y222915D01*
X414332Y222951D01*
X414254Y222990D01*
X414178Y223034D01*
X414104Y223080D01*
X414033Y223130D01*
X413963Y223183D01*
X413896Y223239D01*
X413832Y223298D01*
X413770Y223360D01*
X413711Y223424D01*
X413655Y223491D01*
X413602Y223561D01*
X413552Y223632D01*
X413506Y223706D01*
X413462Y223782D01*
X413423Y223860D01*
X413387Y223940D01*
X413354Y224021D01*
X413325Y224103D01*
X413300Y224187D01*
X413279Y224272D01*
X413261Y224357D01*
X413248Y224444D01*
X413238Y224530D01*
X413232Y224618D01*
X413230Y224705D01*
X413230Y227951D01*
X413232Y228052D01*
X413238Y228152D01*
X413248Y228252D01*
X413261Y228352D01*
X413279Y228451D01*
X413300Y228550D01*
X413325Y228647D01*
X413354Y228744D01*
X413387Y228839D01*
X413423Y228933D01*
X413463Y229025D01*
X413506Y229116D01*
X413553Y229205D01*
X413603Y229292D01*
X413657Y229378D01*
X413714Y229461D01*
X413774Y229541D01*
X413837Y229620D01*
X413904Y229696D01*
X413973Y229769D01*
X414045Y229839D01*
X414119Y229907D01*
X414196Y229972D01*
X414276Y230033D01*
X414358Y230092D01*
X414442Y230147D01*
X414528Y230199D01*
X414616Y230248D01*
X414706Y230293D01*
X414798Y230335D01*
X414891Y230373D01*
X414986Y230407D01*
X415081Y230438D01*
X415178Y230465D01*
X415276Y230488D01*
X415375Y230508D01*
X415475Y230523D01*
X415575Y230535D01*
X415675Y230543D01*
X415776Y230547D01*
X415876Y230547D01*
X415977Y230543D01*
X416077Y230535D01*
X416177Y230523D01*
X416277Y230508D01*
X416376Y230488D01*
X416474Y230465D01*
X416571Y230438D01*
X416666Y230407D01*
X416761Y230373D01*
X416854Y230335D01*
X416946Y230293D01*
X417036Y230248D01*
X417124Y230199D01*
X417210Y230147D01*
X417294Y230092D01*
X417376Y230033D01*
X417456Y229972D01*
X417533Y229907D01*
X417607Y229839D01*
X417679Y229769D01*
X417748Y229696D01*
X417815Y229620D01*
X417878Y229541D01*
X417938Y229461D01*
X417995Y229378D01*
X418049Y229292D01*
X418099Y229205D01*
X418146Y229116D01*
X418189Y229025D01*
X418229Y228933D01*
X418265Y228839D01*
X418298Y228744D01*
X418327Y228647D01*
X418352Y228550D01*
X418373Y228451D01*
X418391Y228352D01*
X418404Y228252D01*
X418414Y228152D01*
X418420Y228052D01*
X418422Y227951D01*
X418423Y227951D02*
X418423Y226653D01*
X413230Y226653D01*
X428270Y222758D02*
X428270Y234442D01*
X428270Y222758D02*
X425024Y222758D01*
X424937Y222760D01*
X424849Y222766D01*
X424763Y222776D01*
X424676Y222789D01*
X424591Y222807D01*
X424506Y222828D01*
X424422Y222853D01*
X424340Y222882D01*
X424259Y222915D01*
X424179Y222951D01*
X424101Y222990D01*
X424025Y223034D01*
X423951Y223080D01*
X423880Y223130D01*
X423810Y223183D01*
X423743Y223239D01*
X423679Y223298D01*
X423617Y223360D01*
X423558Y223424D01*
X423502Y223491D01*
X423449Y223561D01*
X423399Y223632D01*
X423353Y223706D01*
X423309Y223782D01*
X423270Y223860D01*
X423234Y223940D01*
X423201Y224021D01*
X423172Y224103D01*
X423147Y224187D01*
X423126Y224272D01*
X423108Y224357D01*
X423095Y224444D01*
X423085Y224530D01*
X423079Y224618D01*
X423077Y224705D01*
X423077Y228600D01*
X423079Y228687D01*
X423085Y228775D01*
X423095Y228861D01*
X423108Y228948D01*
X423126Y229033D01*
X423147Y229118D01*
X423172Y229202D01*
X423201Y229284D01*
X423234Y229365D01*
X423270Y229445D01*
X423309Y229523D01*
X423353Y229599D01*
X423399Y229673D01*
X423449Y229744D01*
X423502Y229814D01*
X423558Y229881D01*
X423617Y229945D01*
X423679Y230007D01*
X423743Y230066D01*
X423810Y230122D01*
X423880Y230175D01*
X423951Y230225D01*
X424025Y230271D01*
X424101Y230315D01*
X424179Y230354D01*
X424259Y230390D01*
X424340Y230423D01*
X424422Y230452D01*
X424506Y230477D01*
X424591Y230498D01*
X424676Y230516D01*
X424763Y230529D01*
X424849Y230539D01*
X424937Y230545D01*
X425024Y230547D01*
X428270Y230547D01*
X439959Y234442D02*
X439959Y222758D01*
X443204Y222758D01*
X443291Y222760D01*
X443379Y222766D01*
X443465Y222776D01*
X443552Y222789D01*
X443637Y222807D01*
X443722Y222828D01*
X443806Y222853D01*
X443888Y222882D01*
X443969Y222915D01*
X444049Y222951D01*
X444127Y222990D01*
X444203Y223034D01*
X444277Y223080D01*
X444348Y223130D01*
X444418Y223183D01*
X444485Y223239D01*
X444549Y223298D01*
X444611Y223359D01*
X444670Y223424D01*
X444726Y223491D01*
X444779Y223561D01*
X444829Y223632D01*
X444875Y223706D01*
X444919Y223782D01*
X444958Y223860D01*
X444994Y223940D01*
X445027Y224021D01*
X445056Y224103D01*
X445081Y224187D01*
X445102Y224272D01*
X445120Y224357D01*
X445133Y224444D01*
X445143Y224530D01*
X445149Y224618D01*
X445151Y224705D01*
X445151Y228600D01*
X445149Y228687D01*
X445143Y228775D01*
X445133Y228861D01*
X445120Y228948D01*
X445102Y229033D01*
X445081Y229118D01*
X445056Y229202D01*
X445027Y229284D01*
X444994Y229365D01*
X444958Y229445D01*
X444919Y229523D01*
X444875Y229599D01*
X444829Y229673D01*
X444779Y229744D01*
X444726Y229814D01*
X444670Y229881D01*
X444611Y229945D01*
X444549Y230007D01*
X444485Y230066D01*
X444418Y230122D01*
X444348Y230175D01*
X444277Y230225D01*
X444203Y230271D01*
X444127Y230315D01*
X444049Y230354D01*
X443969Y230390D01*
X443888Y230423D01*
X443806Y230452D01*
X443722Y230477D01*
X443637Y230498D01*
X443552Y230516D01*
X443465Y230529D01*
X443379Y230539D01*
X443291Y230545D01*
X443204Y230547D01*
X439959Y230547D01*
X449425Y218863D02*
X450723Y218863D01*
X454618Y230547D01*
X449425Y230547D02*
X452021Y222758D01*
D12*
X352693Y207574D02*
X352691Y207456D01*
X352685Y207338D01*
X352676Y207220D01*
X352662Y207103D01*
X352645Y206986D01*
X352624Y206869D01*
X352599Y206754D01*
X352570Y206639D01*
X352537Y206525D01*
X352501Y206413D01*
X352461Y206302D01*
X352418Y206192D01*
X352371Y206083D01*
X352321Y205976D01*
X352266Y205871D01*
X352209Y205768D01*
X352148Y205667D01*
X352084Y205567D01*
X352017Y205470D01*
X351947Y205375D01*
X351873Y205283D01*
X351797Y205192D01*
X351717Y205105D01*
X351635Y205020D01*
X351550Y204938D01*
X351463Y204858D01*
X351372Y204782D01*
X351280Y204708D01*
X351185Y204638D01*
X351088Y204571D01*
X350988Y204507D01*
X350887Y204446D01*
X350784Y204389D01*
X350679Y204334D01*
X350572Y204284D01*
X350463Y204237D01*
X350353Y204194D01*
X350242Y204154D01*
X350130Y204118D01*
X350016Y204085D01*
X349901Y204056D01*
X349786Y204031D01*
X349669Y204010D01*
X349552Y203993D01*
X349435Y203979D01*
X349317Y203970D01*
X349199Y203964D01*
X349081Y203962D01*
X348898Y203964D01*
X348716Y203971D01*
X348534Y203982D01*
X348352Y203997D01*
X348170Y204017D01*
X347989Y204040D01*
X347809Y204069D01*
X347629Y204101D01*
X347450Y204138D01*
X347273Y204179D01*
X347096Y204225D01*
X346920Y204274D01*
X346746Y204328D01*
X346572Y204386D01*
X346401Y204448D01*
X346231Y204514D01*
X346062Y204585D01*
X345895Y204659D01*
X345730Y204737D01*
X345567Y204819D01*
X345406Y204905D01*
X345247Y204995D01*
X345090Y205089D01*
X344936Y205186D01*
X344784Y205287D01*
X344634Y205392D01*
X344487Y205500D01*
X344343Y205611D01*
X344201Y205726D01*
X344062Y205845D01*
X343926Y205967D01*
X343793Y206092D01*
X343663Y206220D01*
X344114Y216606D02*
X344116Y216724D01*
X344122Y216842D01*
X344131Y216960D01*
X344145Y217077D01*
X344162Y217194D01*
X344183Y217311D01*
X344208Y217426D01*
X344237Y217541D01*
X344270Y217655D01*
X344306Y217767D01*
X344346Y217878D01*
X344389Y217988D01*
X344436Y218097D01*
X344486Y218204D01*
X344541Y218309D01*
X344598Y218412D01*
X344659Y218513D01*
X344723Y218613D01*
X344790Y218710D01*
X344860Y218805D01*
X344934Y218897D01*
X345010Y218988D01*
X345090Y219075D01*
X345172Y219160D01*
X345257Y219242D01*
X345344Y219322D01*
X345435Y219398D01*
X345527Y219472D01*
X345622Y219542D01*
X345719Y219609D01*
X345819Y219673D01*
X345920Y219734D01*
X346023Y219792D01*
X346128Y219846D01*
X346235Y219896D01*
X346344Y219943D01*
X346454Y219987D01*
X346565Y220026D01*
X346678Y220062D01*
X346791Y220095D01*
X346906Y220124D01*
X347021Y220149D01*
X347138Y220170D01*
X347255Y220187D01*
X347372Y220201D01*
X347490Y220210D01*
X347608Y220216D01*
X347726Y220218D01*
X347887Y220216D01*
X348049Y220210D01*
X348210Y220201D01*
X348371Y220187D01*
X348531Y220170D01*
X348691Y220149D01*
X348851Y220124D01*
X349010Y220095D01*
X349168Y220063D01*
X349325Y220027D01*
X349481Y219987D01*
X349637Y219943D01*
X349791Y219895D01*
X349944Y219844D01*
X350096Y219790D01*
X350247Y219731D01*
X350396Y219670D01*
X350543Y219604D01*
X350689Y219535D01*
X350834Y219463D01*
X350976Y219387D01*
X351117Y219308D01*
X351256Y219226D01*
X351392Y219140D01*
X351527Y219051D01*
X351660Y218959D01*
X351790Y218863D01*
X345919Y213445D02*
X345818Y213507D01*
X345718Y213572D01*
X345621Y213641D01*
X345526Y213713D01*
X345433Y213787D01*
X345343Y213865D01*
X345255Y213946D01*
X345170Y214029D01*
X345088Y214115D01*
X345009Y214204D01*
X344932Y214295D01*
X344859Y214389D01*
X344788Y214485D01*
X344721Y214583D01*
X344657Y214683D01*
X344596Y214786D01*
X344539Y214890D01*
X344485Y214996D01*
X344435Y215104D01*
X344388Y215213D01*
X344344Y215324D01*
X344304Y215436D01*
X344268Y215550D01*
X344236Y215664D01*
X344207Y215780D01*
X344182Y215896D01*
X344161Y216013D01*
X344144Y216131D01*
X344130Y216249D01*
X344121Y216368D01*
X344115Y216487D01*
X344113Y216606D01*
X350887Y210735D02*
X350988Y210673D01*
X351088Y210608D01*
X351185Y210539D01*
X351280Y210467D01*
X351373Y210393D01*
X351463Y210315D01*
X351551Y210234D01*
X351636Y210151D01*
X351718Y210065D01*
X351797Y209976D01*
X351874Y209885D01*
X351947Y209791D01*
X352018Y209695D01*
X352085Y209597D01*
X352149Y209497D01*
X352210Y209394D01*
X352267Y209290D01*
X352321Y209184D01*
X352371Y209076D01*
X352418Y208967D01*
X352462Y208856D01*
X352502Y208744D01*
X352538Y208630D01*
X352570Y208516D01*
X352599Y208400D01*
X352624Y208284D01*
X352645Y208167D01*
X352662Y208049D01*
X352676Y207931D01*
X352685Y207812D01*
X352691Y207693D01*
X352693Y207574D01*
X350887Y210735D02*
X345920Y213445D01*
X359228Y214799D02*
X359228Y198543D01*
X359228Y214799D02*
X363743Y214799D01*
X363847Y214797D01*
X363950Y214791D01*
X364054Y214781D01*
X364157Y214767D01*
X364259Y214749D01*
X364360Y214728D01*
X364461Y214702D01*
X364560Y214673D01*
X364659Y214640D01*
X364756Y214603D01*
X364851Y214562D01*
X364945Y214518D01*
X365037Y214470D01*
X365127Y214419D01*
X365216Y214364D01*
X365302Y214306D01*
X365385Y214244D01*
X365467Y214180D01*
X365545Y214112D01*
X365621Y214042D01*
X365695Y213969D01*
X365765Y213892D01*
X365833Y213814D01*
X365897Y213732D01*
X365959Y213649D01*
X366017Y213563D01*
X366072Y213474D01*
X366123Y213384D01*
X366171Y213292D01*
X366215Y213198D01*
X366256Y213103D01*
X366293Y213006D01*
X366326Y212907D01*
X366355Y212808D01*
X366381Y212707D01*
X366402Y212606D01*
X366420Y212504D01*
X366434Y212401D01*
X366444Y212297D01*
X366450Y212194D01*
X366452Y212090D01*
X366452Y206671D01*
X366450Y206570D01*
X366444Y206469D01*
X366435Y206368D01*
X366422Y206267D01*
X366405Y206167D01*
X366384Y206068D01*
X366360Y205970D01*
X366332Y205873D01*
X366300Y205776D01*
X366265Y205681D01*
X366226Y205588D01*
X366184Y205496D01*
X366138Y205405D01*
X366089Y205316D01*
X366037Y205230D01*
X365981Y205145D01*
X365923Y205062D01*
X365861Y204982D01*
X365796Y204904D01*
X365729Y204828D01*
X365659Y204755D01*
X365586Y204685D01*
X365510Y204618D01*
X365432Y204553D01*
X365352Y204491D01*
X365269Y204433D01*
X365184Y204377D01*
X365098Y204325D01*
X365009Y204276D01*
X364918Y204230D01*
X364826Y204188D01*
X364733Y204149D01*
X364638Y204114D01*
X364541Y204082D01*
X364444Y204054D01*
X364346Y204030D01*
X364247Y204009D01*
X364147Y203992D01*
X364046Y203979D01*
X363945Y203970D01*
X363844Y203964D01*
X363743Y203962D01*
X359228Y203962D01*
X375411Y203962D02*
X379926Y203962D01*
X375411Y203962D02*
X375310Y203964D01*
X375209Y203970D01*
X375108Y203979D01*
X375007Y203992D01*
X374907Y204009D01*
X374808Y204030D01*
X374710Y204054D01*
X374613Y204082D01*
X374516Y204114D01*
X374421Y204149D01*
X374328Y204188D01*
X374236Y204230D01*
X374145Y204276D01*
X374057Y204325D01*
X373970Y204377D01*
X373885Y204433D01*
X373802Y204491D01*
X373722Y204553D01*
X373644Y204618D01*
X373568Y204685D01*
X373495Y204755D01*
X373425Y204828D01*
X373358Y204904D01*
X373293Y204982D01*
X373231Y205062D01*
X373173Y205145D01*
X373117Y205230D01*
X373065Y205317D01*
X373016Y205405D01*
X372970Y205496D01*
X372928Y205588D01*
X372889Y205681D01*
X372854Y205776D01*
X372822Y205873D01*
X372794Y205970D01*
X372770Y206068D01*
X372749Y206167D01*
X372732Y206267D01*
X372719Y206368D01*
X372710Y206469D01*
X372704Y206570D01*
X372702Y206671D01*
X372701Y206671D02*
X372701Y211187D01*
X372702Y211187D02*
X372704Y211306D01*
X372710Y211426D01*
X372720Y211545D01*
X372734Y211663D01*
X372751Y211782D01*
X372773Y211899D01*
X372798Y212016D01*
X372828Y212131D01*
X372861Y212246D01*
X372898Y212360D01*
X372938Y212472D01*
X372983Y212583D01*
X373031Y212692D01*
X373082Y212800D01*
X373137Y212906D01*
X373196Y213010D01*
X373258Y213112D01*
X373323Y213212D01*
X373392Y213310D01*
X373464Y213406D01*
X373539Y213499D01*
X373616Y213589D01*
X373697Y213677D01*
X373781Y213762D01*
X373868Y213844D01*
X373957Y213924D01*
X374049Y214000D01*
X374143Y214074D01*
X374240Y214144D01*
X374338Y214211D01*
X374439Y214275D01*
X374543Y214335D01*
X374648Y214392D01*
X374755Y214445D01*
X374863Y214495D01*
X374973Y214541D01*
X375085Y214583D01*
X375198Y214622D01*
X375312Y214657D01*
X375427Y214688D01*
X375544Y214716D01*
X375661Y214739D01*
X375778Y214759D01*
X375897Y214775D01*
X376016Y214787D01*
X376135Y214795D01*
X376254Y214799D01*
X376374Y214799D01*
X376493Y214795D01*
X376612Y214787D01*
X376731Y214775D01*
X376850Y214759D01*
X376967Y214739D01*
X377084Y214716D01*
X377201Y214688D01*
X377316Y214657D01*
X377430Y214622D01*
X377543Y214583D01*
X377655Y214541D01*
X377765Y214495D01*
X377873Y214445D01*
X377980Y214392D01*
X378085Y214335D01*
X378189Y214275D01*
X378290Y214211D01*
X378388Y214144D01*
X378485Y214074D01*
X378579Y214000D01*
X378671Y213924D01*
X378760Y213844D01*
X378847Y213762D01*
X378931Y213677D01*
X379012Y213589D01*
X379089Y213499D01*
X379164Y213406D01*
X379236Y213310D01*
X379305Y213212D01*
X379370Y213112D01*
X379432Y213010D01*
X379491Y212906D01*
X379546Y212800D01*
X379597Y212692D01*
X379645Y212583D01*
X379690Y212472D01*
X379730Y212360D01*
X379767Y212246D01*
X379800Y212131D01*
X379830Y212016D01*
X379855Y211899D01*
X379877Y211782D01*
X379894Y211663D01*
X379908Y211545D01*
X379918Y211426D01*
X379924Y211306D01*
X379926Y211187D01*
X379926Y209381D01*
X372701Y209381D01*
X388958Y203962D02*
X393473Y203962D01*
X388958Y203962D02*
X388857Y203964D01*
X388756Y203970D01*
X388655Y203979D01*
X388554Y203992D01*
X388454Y204009D01*
X388355Y204030D01*
X388257Y204054D01*
X388160Y204082D01*
X388063Y204114D01*
X387968Y204149D01*
X387875Y204188D01*
X387783Y204230D01*
X387692Y204276D01*
X387604Y204325D01*
X387517Y204377D01*
X387432Y204433D01*
X387349Y204491D01*
X387269Y204553D01*
X387191Y204618D01*
X387115Y204685D01*
X387042Y204755D01*
X386972Y204828D01*
X386905Y204904D01*
X386840Y204982D01*
X386778Y205062D01*
X386720Y205145D01*
X386664Y205230D01*
X386612Y205317D01*
X386563Y205405D01*
X386517Y205496D01*
X386475Y205588D01*
X386436Y205681D01*
X386401Y205776D01*
X386369Y205873D01*
X386341Y205970D01*
X386317Y206068D01*
X386296Y206167D01*
X386279Y206267D01*
X386266Y206368D01*
X386257Y206469D01*
X386251Y206570D01*
X386249Y206671D01*
X386248Y206671D02*
X386248Y211187D01*
X386249Y211187D02*
X386251Y211306D01*
X386257Y211426D01*
X386267Y211545D01*
X386281Y211663D01*
X386298Y211782D01*
X386320Y211899D01*
X386345Y212016D01*
X386375Y212131D01*
X386408Y212246D01*
X386445Y212360D01*
X386485Y212472D01*
X386530Y212583D01*
X386578Y212692D01*
X386629Y212800D01*
X386684Y212906D01*
X386743Y213010D01*
X386805Y213112D01*
X386870Y213212D01*
X386939Y213310D01*
X387011Y213406D01*
X387086Y213499D01*
X387163Y213589D01*
X387244Y213677D01*
X387328Y213762D01*
X387415Y213844D01*
X387504Y213924D01*
X387596Y214000D01*
X387690Y214074D01*
X387787Y214144D01*
X387885Y214211D01*
X387986Y214275D01*
X388090Y214335D01*
X388195Y214392D01*
X388302Y214445D01*
X388410Y214495D01*
X388520Y214541D01*
X388632Y214583D01*
X388745Y214622D01*
X388859Y214657D01*
X388974Y214688D01*
X389091Y214716D01*
X389208Y214739D01*
X389325Y214759D01*
X389444Y214775D01*
X389563Y214787D01*
X389682Y214795D01*
X389801Y214799D01*
X389921Y214799D01*
X390040Y214795D01*
X390159Y214787D01*
X390278Y214775D01*
X390397Y214759D01*
X390514Y214739D01*
X390631Y214716D01*
X390748Y214688D01*
X390863Y214657D01*
X390977Y214622D01*
X391090Y214583D01*
X391202Y214541D01*
X391312Y214495D01*
X391420Y214445D01*
X391527Y214392D01*
X391632Y214335D01*
X391736Y214275D01*
X391837Y214211D01*
X391935Y214144D01*
X392032Y214074D01*
X392126Y214000D01*
X392218Y213924D01*
X392307Y213844D01*
X392394Y213762D01*
X392478Y213677D01*
X392559Y213589D01*
X392636Y213499D01*
X392711Y213406D01*
X392783Y213310D01*
X392852Y213212D01*
X392917Y213112D01*
X392979Y213010D01*
X393038Y212906D01*
X393093Y212800D01*
X393144Y212692D01*
X393192Y212583D01*
X393237Y212472D01*
X393277Y212360D01*
X393314Y212246D01*
X393347Y212131D01*
X393377Y212016D01*
X393402Y211899D01*
X393424Y211782D01*
X393441Y211663D01*
X393455Y211545D01*
X393465Y211426D01*
X393471Y211306D01*
X393473Y211187D01*
X393473Y209381D01*
X386248Y209381D01*
X406947Y203962D02*
X406947Y220218D01*
X406947Y203962D02*
X402431Y203962D01*
X402330Y203964D01*
X402229Y203970D01*
X402128Y203979D01*
X402027Y203992D01*
X401927Y204009D01*
X401828Y204030D01*
X401730Y204054D01*
X401633Y204082D01*
X401536Y204114D01*
X401441Y204149D01*
X401348Y204188D01*
X401256Y204230D01*
X401165Y204276D01*
X401077Y204325D01*
X400990Y204377D01*
X400905Y204433D01*
X400822Y204491D01*
X400742Y204553D01*
X400664Y204618D01*
X400588Y204685D01*
X400515Y204755D01*
X400445Y204828D01*
X400378Y204904D01*
X400313Y204982D01*
X400251Y205062D01*
X400193Y205145D01*
X400137Y205230D01*
X400085Y205317D01*
X400036Y205405D01*
X399990Y205496D01*
X399948Y205588D01*
X399909Y205681D01*
X399874Y205776D01*
X399842Y205873D01*
X399814Y205970D01*
X399790Y206068D01*
X399769Y206167D01*
X399752Y206267D01*
X399739Y206368D01*
X399730Y206469D01*
X399724Y206570D01*
X399722Y206671D01*
X399722Y212090D01*
X399724Y212191D01*
X399730Y212292D01*
X399739Y212393D01*
X399752Y212494D01*
X399769Y212594D01*
X399790Y212693D01*
X399814Y212791D01*
X399842Y212888D01*
X399874Y212985D01*
X399909Y213080D01*
X399948Y213173D01*
X399990Y213265D01*
X400036Y213356D01*
X400085Y213445D01*
X400137Y213531D01*
X400193Y213616D01*
X400251Y213699D01*
X400313Y213779D01*
X400378Y213857D01*
X400445Y213933D01*
X400515Y214006D01*
X400588Y214076D01*
X400664Y214143D01*
X400742Y214208D01*
X400822Y214270D01*
X400905Y214328D01*
X400990Y214384D01*
X401077Y214436D01*
X401165Y214485D01*
X401256Y214531D01*
X401348Y214573D01*
X401441Y214612D01*
X401536Y214647D01*
X401633Y214679D01*
X401730Y214707D01*
X401828Y214731D01*
X401927Y214752D01*
X402027Y214769D01*
X402128Y214782D01*
X402229Y214791D01*
X402330Y214797D01*
X402431Y214799D01*
X406947Y214799D01*
X414385Y214799D02*
X414385Y206671D01*
X414387Y206570D01*
X414393Y206469D01*
X414402Y206368D01*
X414415Y206267D01*
X414432Y206167D01*
X414453Y206068D01*
X414477Y205970D01*
X414505Y205873D01*
X414537Y205776D01*
X414572Y205681D01*
X414611Y205588D01*
X414653Y205496D01*
X414699Y205405D01*
X414748Y205317D01*
X414800Y205230D01*
X414856Y205145D01*
X414914Y205062D01*
X414976Y204982D01*
X415041Y204904D01*
X415108Y204828D01*
X415178Y204755D01*
X415251Y204685D01*
X415327Y204618D01*
X415405Y204553D01*
X415485Y204491D01*
X415568Y204433D01*
X415653Y204377D01*
X415740Y204325D01*
X415828Y204276D01*
X415919Y204230D01*
X416011Y204188D01*
X416104Y204149D01*
X416199Y204114D01*
X416296Y204082D01*
X416393Y204054D01*
X416491Y204030D01*
X416590Y204009D01*
X416690Y203992D01*
X416791Y203979D01*
X416892Y203970D01*
X416993Y203964D01*
X417094Y203962D01*
X421609Y203962D01*
X421609Y214799D01*
X428418Y214799D02*
X428418Y203962D01*
X427966Y219315D02*
X427966Y220218D01*
X428869Y220218D01*
X428869Y219315D01*
X427966Y219315D01*
X435226Y214799D02*
X435226Y203962D01*
X435226Y214799D02*
X439742Y214799D01*
X439846Y214797D01*
X439949Y214791D01*
X440053Y214781D01*
X440156Y214767D01*
X440258Y214749D01*
X440359Y214728D01*
X440460Y214702D01*
X440559Y214673D01*
X440658Y214640D01*
X440755Y214603D01*
X440850Y214562D01*
X440944Y214518D01*
X441036Y214470D01*
X441126Y214419D01*
X441215Y214364D01*
X441301Y214306D01*
X441384Y214244D01*
X441466Y214180D01*
X441544Y214112D01*
X441620Y214042D01*
X441694Y213969D01*
X441764Y213892D01*
X441832Y213814D01*
X441896Y213732D01*
X441958Y213649D01*
X442016Y213563D01*
X442071Y213474D01*
X442122Y213384D01*
X442170Y213292D01*
X442214Y213198D01*
X442255Y213103D01*
X442292Y213006D01*
X442325Y212907D01*
X442354Y212808D01*
X442380Y212707D01*
X442401Y212606D01*
X442419Y212504D01*
X442433Y212401D01*
X442443Y212297D01*
X442449Y212194D01*
X442451Y212090D01*
X442451Y203962D01*
X449294Y207574D02*
X449294Y211187D01*
X449295Y211187D02*
X449297Y211306D01*
X449303Y211426D01*
X449313Y211545D01*
X449327Y211663D01*
X449344Y211782D01*
X449366Y211899D01*
X449391Y212016D01*
X449421Y212131D01*
X449454Y212246D01*
X449491Y212360D01*
X449531Y212472D01*
X449576Y212583D01*
X449624Y212692D01*
X449675Y212800D01*
X449730Y212906D01*
X449789Y213010D01*
X449851Y213112D01*
X449916Y213212D01*
X449985Y213310D01*
X450057Y213406D01*
X450132Y213499D01*
X450209Y213589D01*
X450290Y213677D01*
X450374Y213762D01*
X450461Y213844D01*
X450550Y213924D01*
X450642Y214000D01*
X450736Y214074D01*
X450833Y214144D01*
X450931Y214211D01*
X451032Y214275D01*
X451136Y214335D01*
X451241Y214392D01*
X451348Y214445D01*
X451456Y214495D01*
X451566Y214541D01*
X451678Y214583D01*
X451791Y214622D01*
X451905Y214657D01*
X452020Y214688D01*
X452137Y214716D01*
X452254Y214739D01*
X452371Y214759D01*
X452490Y214775D01*
X452609Y214787D01*
X452728Y214795D01*
X452847Y214799D01*
X452967Y214799D01*
X453086Y214795D01*
X453205Y214787D01*
X453324Y214775D01*
X453443Y214759D01*
X453560Y214739D01*
X453677Y214716D01*
X453794Y214688D01*
X453909Y214657D01*
X454023Y214622D01*
X454136Y214583D01*
X454248Y214541D01*
X454358Y214495D01*
X454466Y214445D01*
X454573Y214392D01*
X454678Y214335D01*
X454782Y214275D01*
X454883Y214211D01*
X454981Y214144D01*
X455078Y214074D01*
X455172Y214000D01*
X455264Y213924D01*
X455353Y213844D01*
X455440Y213762D01*
X455524Y213677D01*
X455605Y213589D01*
X455682Y213499D01*
X455757Y213406D01*
X455829Y213310D01*
X455898Y213212D01*
X455963Y213112D01*
X456025Y213010D01*
X456084Y212906D01*
X456139Y212800D01*
X456190Y212692D01*
X456238Y212583D01*
X456283Y212472D01*
X456323Y212360D01*
X456360Y212246D01*
X456393Y212131D01*
X456423Y212016D01*
X456448Y211899D01*
X456470Y211782D01*
X456487Y211663D01*
X456501Y211545D01*
X456511Y211426D01*
X456517Y211306D01*
X456519Y211187D01*
X456519Y207574D01*
X456517Y207455D01*
X456511Y207335D01*
X456501Y207216D01*
X456487Y207098D01*
X456470Y206979D01*
X456448Y206862D01*
X456423Y206745D01*
X456393Y206630D01*
X456360Y206515D01*
X456323Y206401D01*
X456283Y206289D01*
X456238Y206178D01*
X456190Y206069D01*
X456139Y205961D01*
X456084Y205855D01*
X456025Y205751D01*
X455963Y205649D01*
X455898Y205549D01*
X455829Y205451D01*
X455757Y205355D01*
X455682Y205262D01*
X455605Y205172D01*
X455524Y205084D01*
X455440Y204999D01*
X455353Y204917D01*
X455264Y204837D01*
X455172Y204761D01*
X455078Y204687D01*
X454981Y204617D01*
X454883Y204550D01*
X454782Y204486D01*
X454678Y204426D01*
X454573Y204369D01*
X454466Y204316D01*
X454358Y204266D01*
X454248Y204220D01*
X454136Y204178D01*
X454023Y204139D01*
X453909Y204104D01*
X453794Y204073D01*
X453677Y204045D01*
X453560Y204022D01*
X453443Y204002D01*
X453324Y203986D01*
X453205Y203974D01*
X453086Y203966D01*
X452967Y203962D01*
X452847Y203962D01*
X452728Y203966D01*
X452609Y203974D01*
X452490Y203986D01*
X452371Y204002D01*
X452254Y204022D01*
X452137Y204045D01*
X452020Y204073D01*
X451905Y204104D01*
X451791Y204139D01*
X451678Y204178D01*
X451566Y204220D01*
X451456Y204266D01*
X451348Y204316D01*
X451241Y204369D01*
X451136Y204426D01*
X451032Y204486D01*
X450931Y204550D01*
X450833Y204617D01*
X450736Y204687D01*
X450642Y204761D01*
X450550Y204837D01*
X450461Y204917D01*
X450374Y204999D01*
X450290Y205084D01*
X450209Y205172D01*
X450132Y205262D01*
X450057Y205355D01*
X449985Y205451D01*
X449916Y205549D01*
X449851Y205649D01*
X449789Y205751D01*
X449730Y205855D01*
X449675Y205961D01*
X449624Y206069D01*
X449576Y206178D01*
X449531Y206289D01*
X449491Y206401D01*
X449454Y206515D01*
X449421Y206630D01*
X449391Y206745D01*
X449366Y206862D01*
X449344Y206979D01*
X449327Y207098D01*
X449313Y207216D01*
X449303Y207335D01*
X449297Y207455D01*
X449295Y207574D01*
D13*
X330200Y196850D02*
X330200Y260350D01*
X330200Y196850D02*
X336550Y190500D01*
X469900Y190500D01*
X476250Y196850D01*
X476250Y260350D01*
X469900Y266700D01*
X336550Y266700D01*
X330200Y260350D01*
D11*
X279908Y51816D02*
X279908Y38608D01*
X287246Y38608D02*
X279908Y51816D01*
X287246Y51816D02*
X287246Y38608D01*
X292965Y38608D02*
X292965Y47413D01*
X292598Y51082D02*
X292598Y51816D01*
X293332Y51816D01*
X293332Y51082D01*
X292598Y51082D01*
X300353Y38608D02*
X303288Y38608D01*
X300353Y38608D02*
X300262Y38610D01*
X300171Y38616D01*
X300081Y38625D01*
X299991Y38638D01*
X299901Y38655D01*
X299813Y38675D01*
X299725Y38700D01*
X299638Y38727D01*
X299553Y38759D01*
X299469Y38793D01*
X299386Y38832D01*
X299305Y38873D01*
X299226Y38918D01*
X299149Y38966D01*
X299074Y39018D01*
X299001Y39072D01*
X298930Y39129D01*
X298862Y39190D01*
X298797Y39253D01*
X298734Y39318D01*
X298673Y39386D01*
X298616Y39457D01*
X298562Y39530D01*
X298510Y39605D01*
X298462Y39682D01*
X298417Y39761D01*
X298376Y39842D01*
X298337Y39925D01*
X298303Y40009D01*
X298271Y40094D01*
X298244Y40181D01*
X298219Y40269D01*
X298199Y40357D01*
X298182Y40447D01*
X298169Y40537D01*
X298160Y40627D01*
X298154Y40718D01*
X298152Y40809D01*
X298151Y40809D02*
X298151Y45212D01*
X298152Y45212D02*
X298154Y45303D01*
X298160Y45394D01*
X298169Y45484D01*
X298182Y45574D01*
X298199Y45664D01*
X298219Y45752D01*
X298244Y45840D01*
X298271Y45927D01*
X298303Y46012D01*
X298337Y46096D01*
X298376Y46179D01*
X298417Y46260D01*
X298462Y46339D01*
X298510Y46416D01*
X298562Y46491D01*
X298616Y46564D01*
X298673Y46635D01*
X298734Y46703D01*
X298797Y46768D01*
X298862Y46831D01*
X298930Y46892D01*
X299001Y46949D01*
X299074Y47003D01*
X299149Y47055D01*
X299226Y47103D01*
X299305Y47148D01*
X299386Y47189D01*
X299469Y47228D01*
X299553Y47262D01*
X299638Y47294D01*
X299725Y47321D01*
X299813Y47346D01*
X299901Y47366D01*
X299991Y47383D01*
X300081Y47396D01*
X300171Y47405D01*
X300262Y47411D01*
X300353Y47413D01*
X303288Y47413D01*
X308522Y51816D02*
X308522Y38608D01*
X308522Y43011D02*
X314392Y47413D01*
X311090Y44845D02*
X314392Y38608D01*
X326420Y38608D02*
X326420Y51816D01*
X326420Y45946D02*
X333758Y45946D01*
X333758Y51816D02*
X333758Y38608D01*
X342035Y43744D02*
X345337Y43744D01*
X342035Y43744D02*
X341935Y43742D01*
X341836Y43736D01*
X341737Y43727D01*
X341638Y43713D01*
X341540Y43696D01*
X341443Y43675D01*
X341346Y43650D01*
X341251Y43621D01*
X341157Y43589D01*
X341064Y43553D01*
X340972Y43514D01*
X340882Y43471D01*
X340794Y43424D01*
X340708Y43375D01*
X340624Y43322D01*
X340542Y43265D01*
X340462Y43206D01*
X340384Y43143D01*
X340309Y43078D01*
X340237Y43009D01*
X340167Y42938D01*
X340100Y42865D01*
X340036Y42788D01*
X339975Y42710D01*
X339917Y42628D01*
X339863Y42545D01*
X339811Y42460D01*
X339763Y42373D01*
X339718Y42284D01*
X339677Y42193D01*
X339639Y42101D01*
X339605Y42007D01*
X339575Y41913D01*
X339548Y41817D01*
X339525Y41720D01*
X339506Y41622D01*
X339491Y41524D01*
X339479Y41425D01*
X339471Y41325D01*
X339467Y41226D01*
X339467Y41126D01*
X339471Y41027D01*
X339479Y40927D01*
X339491Y40828D01*
X339506Y40730D01*
X339525Y40632D01*
X339548Y40535D01*
X339575Y40439D01*
X339605Y40345D01*
X339639Y40251D01*
X339677Y40159D01*
X339718Y40068D01*
X339763Y39979D01*
X339811Y39892D01*
X339863Y39807D01*
X339917Y39724D01*
X339975Y39642D01*
X340036Y39564D01*
X340100Y39487D01*
X340167Y39414D01*
X340237Y39343D01*
X340309Y39274D01*
X340384Y39209D01*
X340462Y39146D01*
X340542Y39087D01*
X340624Y39030D01*
X340708Y38977D01*
X340794Y38928D01*
X340882Y38881D01*
X340972Y38838D01*
X341064Y38799D01*
X341157Y38763D01*
X341251Y38731D01*
X341346Y38702D01*
X341443Y38677D01*
X341540Y38656D01*
X341638Y38639D01*
X341737Y38625D01*
X341836Y38616D01*
X341935Y38610D01*
X342035Y38608D01*
X345337Y38608D01*
X345337Y45212D01*
X345336Y45212D02*
X345334Y45303D01*
X345328Y45394D01*
X345319Y45484D01*
X345306Y45574D01*
X345289Y45664D01*
X345269Y45752D01*
X345244Y45840D01*
X345217Y45927D01*
X345185Y46012D01*
X345151Y46096D01*
X345112Y46179D01*
X345071Y46260D01*
X345026Y46339D01*
X344978Y46416D01*
X344926Y46491D01*
X344872Y46564D01*
X344815Y46635D01*
X344754Y46703D01*
X344691Y46768D01*
X344626Y46831D01*
X344558Y46892D01*
X344487Y46949D01*
X344414Y47003D01*
X344339Y47055D01*
X344262Y47103D01*
X344183Y47148D01*
X344102Y47189D01*
X344019Y47228D01*
X343935Y47262D01*
X343850Y47294D01*
X343763Y47321D01*
X343675Y47346D01*
X343587Y47366D01*
X343497Y47383D01*
X343407Y47396D01*
X343317Y47405D01*
X343226Y47411D01*
X343135Y47413D01*
X340200Y47413D01*
X350624Y34205D02*
X352091Y34205D01*
X356494Y47413D01*
X350624Y47413D02*
X353559Y38608D01*
X372275Y51816D02*
X372388Y51814D01*
X372500Y51808D01*
X372613Y51799D01*
X372725Y51785D01*
X372836Y51768D01*
X372947Y51747D01*
X373057Y51722D01*
X373166Y51694D01*
X373274Y51661D01*
X373381Y51625D01*
X373486Y51586D01*
X373591Y51543D01*
X373693Y51496D01*
X373794Y51446D01*
X373893Y51392D01*
X373991Y51335D01*
X374086Y51275D01*
X374179Y51212D01*
X374270Y51145D01*
X374359Y51075D01*
X374445Y51003D01*
X374529Y50927D01*
X374610Y50849D01*
X374688Y50768D01*
X374764Y50684D01*
X374836Y50598D01*
X374906Y50509D01*
X374973Y50418D01*
X375036Y50325D01*
X375096Y50230D01*
X375153Y50132D01*
X375207Y50033D01*
X375257Y49932D01*
X375304Y49830D01*
X375347Y49725D01*
X375386Y49620D01*
X375422Y49513D01*
X375455Y49405D01*
X375483Y49296D01*
X375508Y49186D01*
X375529Y49075D01*
X375546Y48964D01*
X375560Y48852D01*
X375569Y48739D01*
X375575Y48627D01*
X375577Y48514D01*
X372275Y51816D02*
X372148Y51814D01*
X372021Y51808D01*
X371894Y51799D01*
X371768Y51786D01*
X371642Y51769D01*
X371517Y51748D01*
X371392Y51723D01*
X371269Y51695D01*
X371146Y51663D01*
X371024Y51627D01*
X370903Y51588D01*
X370783Y51545D01*
X370665Y51499D01*
X370548Y51449D01*
X370433Y51395D01*
X370320Y51338D01*
X370208Y51278D01*
X370098Y51215D01*
X369990Y51148D01*
X369884Y51078D01*
X369780Y51005D01*
X369678Y50928D01*
X369579Y50849D01*
X369482Y50767D01*
X369388Y50682D01*
X369296Y50594D01*
X369207Y50504D01*
X369121Y50410D01*
X369037Y50315D01*
X368957Y50217D01*
X368879Y50116D01*
X368804Y50013D01*
X368733Y49908D01*
X368665Y49801D01*
X368600Y49692D01*
X368538Y49581D01*
X368479Y49468D01*
X368424Y49354D01*
X368373Y49238D01*
X368325Y49120D01*
X368280Y49001D01*
X368239Y48881D01*
X374476Y45946D02*
X374558Y46026D01*
X374637Y46109D01*
X374714Y46195D01*
X374788Y46283D01*
X374858Y46374D01*
X374926Y46466D01*
X374991Y46561D01*
X375053Y46658D01*
X375111Y46757D01*
X375167Y46858D01*
X375219Y46960D01*
X375267Y47064D01*
X375312Y47170D01*
X375354Y47277D01*
X375393Y47385D01*
X375427Y47495D01*
X375459Y47605D01*
X375486Y47717D01*
X375510Y47829D01*
X375531Y47942D01*
X375547Y48056D01*
X375560Y48170D01*
X375570Y48284D01*
X375575Y48399D01*
X375577Y48514D01*
X374476Y45946D02*
X368239Y38608D01*
X375577Y38608D01*
X381041Y45212D02*
X381044Y45472D01*
X381053Y45731D01*
X381069Y45991D01*
X381091Y46250D01*
X381118Y46508D01*
X381152Y46766D01*
X381193Y47022D01*
X381239Y47278D01*
X381291Y47533D01*
X381350Y47786D01*
X381414Y48038D01*
X381485Y48288D01*
X381561Y48536D01*
X381643Y48782D01*
X381731Y49027D01*
X381825Y49269D01*
X381925Y49509D01*
X382031Y49747D01*
X382142Y49981D01*
X382141Y49982D02*
X382176Y50077D01*
X382214Y50172D01*
X382256Y50265D01*
X382302Y50356D01*
X382351Y50446D01*
X382403Y50534D01*
X382458Y50619D01*
X382517Y50703D01*
X382579Y50784D01*
X382643Y50863D01*
X382711Y50939D01*
X382782Y51013D01*
X382855Y51084D01*
X382931Y51152D01*
X383009Y51218D01*
X383090Y51280D01*
X383173Y51340D01*
X383258Y51396D01*
X383345Y51449D01*
X383434Y51498D01*
X383525Y51544D01*
X383618Y51587D01*
X383712Y51626D01*
X383808Y51662D01*
X383905Y51694D01*
X384003Y51723D01*
X384102Y51747D01*
X384202Y51768D01*
X384302Y51785D01*
X384403Y51799D01*
X384505Y51808D01*
X384607Y51814D01*
X384709Y51816D01*
X384811Y51814D01*
X384913Y51808D01*
X385015Y51799D01*
X385116Y51785D01*
X385216Y51768D01*
X385316Y51747D01*
X385415Y51723D01*
X385513Y51694D01*
X385610Y51662D01*
X385706Y51626D01*
X385800Y51587D01*
X385893Y51544D01*
X385984Y51498D01*
X386073Y51449D01*
X386160Y51396D01*
X386245Y51340D01*
X386328Y51280D01*
X386409Y51218D01*
X386487Y51152D01*
X386563Y51084D01*
X386636Y51013D01*
X386707Y50939D01*
X386775Y50863D01*
X386839Y50784D01*
X386901Y50703D01*
X386960Y50619D01*
X387015Y50534D01*
X387067Y50446D01*
X387116Y50356D01*
X387162Y50265D01*
X387204Y50172D01*
X387242Y50077D01*
X387277Y49982D01*
X387277Y49981D02*
X387388Y49746D01*
X387494Y49509D01*
X387594Y49269D01*
X387688Y49027D01*
X387776Y48782D01*
X387858Y48536D01*
X387934Y48288D01*
X388005Y48037D01*
X388069Y47786D01*
X388128Y47533D01*
X388180Y47278D01*
X388226Y47022D01*
X388267Y46766D01*
X388301Y46508D01*
X388328Y46250D01*
X388350Y45991D01*
X388366Y45731D01*
X388375Y45472D01*
X388378Y45212D01*
X381041Y45212D02*
X381044Y44952D01*
X381053Y44693D01*
X381069Y44433D01*
X381091Y44174D01*
X381118Y43916D01*
X381152Y43658D01*
X381193Y43402D01*
X381239Y43146D01*
X381291Y42891D01*
X381350Y42638D01*
X381414Y42387D01*
X381485Y42136D01*
X381561Y41888D01*
X381643Y41642D01*
X381731Y41397D01*
X381825Y41155D01*
X381925Y40915D01*
X382031Y40678D01*
X382142Y40443D01*
X382141Y40442D02*
X382176Y40347D01*
X382214Y40252D01*
X382256Y40159D01*
X382302Y40068D01*
X382351Y39978D01*
X382403Y39890D01*
X382458Y39805D01*
X382517Y39721D01*
X382579Y39640D01*
X382643Y39561D01*
X382711Y39485D01*
X382782Y39411D01*
X382855Y39340D01*
X382931Y39272D01*
X383009Y39206D01*
X383090Y39144D01*
X383173Y39084D01*
X383258Y39028D01*
X383345Y38975D01*
X383434Y38926D01*
X383525Y38880D01*
X383618Y38837D01*
X383712Y38798D01*
X383808Y38762D01*
X383905Y38730D01*
X384003Y38701D01*
X384102Y38677D01*
X384202Y38656D01*
X384302Y38639D01*
X384403Y38625D01*
X384505Y38616D01*
X384607Y38610D01*
X384709Y38608D01*
X387278Y40442D02*
X387389Y40677D01*
X387495Y40915D01*
X387595Y41155D01*
X387689Y41397D01*
X387777Y41641D01*
X387859Y41888D01*
X387935Y42136D01*
X388006Y42386D01*
X388070Y42638D01*
X388129Y42891D01*
X388181Y43146D01*
X388227Y43401D01*
X388268Y43658D01*
X388302Y43916D01*
X388329Y44174D01*
X388351Y44433D01*
X388367Y44692D01*
X388376Y44952D01*
X388379Y45212D01*
X387277Y40442D02*
X387242Y40347D01*
X387204Y40252D01*
X387162Y40159D01*
X387116Y40068D01*
X387067Y39978D01*
X387015Y39890D01*
X386960Y39805D01*
X386901Y39721D01*
X386839Y39640D01*
X386775Y39561D01*
X386707Y39485D01*
X386636Y39411D01*
X386563Y39340D01*
X386487Y39272D01*
X386409Y39206D01*
X386328Y39144D01*
X386245Y39084D01*
X386160Y39028D01*
X386073Y38975D01*
X385984Y38926D01*
X385893Y38880D01*
X385800Y38837D01*
X385706Y38798D01*
X385610Y38762D01*
X385513Y38730D01*
X385415Y38701D01*
X385316Y38677D01*
X385216Y38656D01*
X385116Y38639D01*
X385015Y38625D01*
X384913Y38616D01*
X384811Y38610D01*
X384709Y38608D01*
X381774Y41543D02*
X387645Y48881D01*
X393842Y48881D02*
X397511Y51816D01*
X397511Y38608D01*
X393842Y38608D02*
X401180Y38608D01*
X406644Y42277D02*
X406646Y42397D01*
X406652Y42517D01*
X406662Y42637D01*
X406675Y42756D01*
X406693Y42875D01*
X406714Y42993D01*
X406740Y43110D01*
X406769Y43227D01*
X406802Y43342D01*
X406839Y43456D01*
X406879Y43569D01*
X406923Y43681D01*
X406971Y43791D01*
X407022Y43900D01*
X407077Y44007D01*
X407136Y44111D01*
X407197Y44214D01*
X407262Y44315D01*
X407331Y44414D01*
X407402Y44511D01*
X407477Y44605D01*
X407554Y44696D01*
X407635Y44785D01*
X407719Y44871D01*
X407805Y44955D01*
X407894Y45036D01*
X407985Y45113D01*
X408079Y45188D01*
X408176Y45259D01*
X408275Y45328D01*
X408376Y45393D01*
X408479Y45454D01*
X408583Y45513D01*
X408690Y45568D01*
X408799Y45619D01*
X408909Y45667D01*
X409021Y45711D01*
X409134Y45751D01*
X409248Y45788D01*
X409363Y45821D01*
X409480Y45850D01*
X409597Y45876D01*
X409715Y45897D01*
X409834Y45915D01*
X409953Y45928D01*
X410073Y45938D01*
X410193Y45944D01*
X410313Y45946D01*
X410433Y45944D01*
X410553Y45938D01*
X410673Y45928D01*
X410792Y45915D01*
X410911Y45897D01*
X411029Y45876D01*
X411146Y45850D01*
X411263Y45821D01*
X411378Y45788D01*
X411492Y45751D01*
X411605Y45711D01*
X411717Y45667D01*
X411827Y45619D01*
X411936Y45568D01*
X412043Y45513D01*
X412148Y45454D01*
X412250Y45393D01*
X412351Y45328D01*
X412450Y45259D01*
X412547Y45188D01*
X412641Y45113D01*
X412732Y45036D01*
X412821Y44955D01*
X412907Y44871D01*
X412991Y44785D01*
X413072Y44696D01*
X413149Y44605D01*
X413224Y44511D01*
X413295Y44414D01*
X413364Y44315D01*
X413429Y44214D01*
X413490Y44112D01*
X413549Y44007D01*
X413604Y43900D01*
X413655Y43791D01*
X413703Y43681D01*
X413747Y43569D01*
X413787Y43456D01*
X413824Y43342D01*
X413857Y43227D01*
X413886Y43110D01*
X413912Y42993D01*
X413933Y42875D01*
X413951Y42756D01*
X413964Y42637D01*
X413974Y42517D01*
X413980Y42397D01*
X413982Y42277D01*
X413980Y42157D01*
X413974Y42037D01*
X413964Y41917D01*
X413951Y41798D01*
X413933Y41679D01*
X413912Y41561D01*
X413886Y41444D01*
X413857Y41327D01*
X413824Y41212D01*
X413787Y41098D01*
X413747Y40985D01*
X413703Y40873D01*
X413655Y40763D01*
X413604Y40654D01*
X413549Y40547D01*
X413490Y40443D01*
X413429Y40340D01*
X413364Y40239D01*
X413295Y40140D01*
X413224Y40043D01*
X413149Y39949D01*
X413072Y39858D01*
X412991Y39769D01*
X412907Y39683D01*
X412821Y39599D01*
X412732Y39518D01*
X412641Y39441D01*
X412547Y39366D01*
X412450Y39295D01*
X412351Y39226D01*
X412250Y39161D01*
X412148Y39100D01*
X412043Y39041D01*
X411936Y38986D01*
X411827Y38935D01*
X411717Y38887D01*
X411605Y38843D01*
X411492Y38803D01*
X411378Y38766D01*
X411263Y38733D01*
X411146Y38704D01*
X411029Y38678D01*
X410911Y38657D01*
X410792Y38639D01*
X410673Y38626D01*
X410553Y38616D01*
X410433Y38610D01*
X410313Y38608D01*
X410193Y38610D01*
X410073Y38616D01*
X409953Y38626D01*
X409834Y38639D01*
X409715Y38657D01*
X409597Y38678D01*
X409480Y38704D01*
X409363Y38733D01*
X409248Y38766D01*
X409134Y38803D01*
X409021Y38843D01*
X408909Y38887D01*
X408799Y38935D01*
X408690Y38986D01*
X408583Y39041D01*
X408479Y39100D01*
X408376Y39161D01*
X408275Y39226D01*
X408176Y39295D01*
X408079Y39366D01*
X407985Y39441D01*
X407894Y39518D01*
X407805Y39599D01*
X407719Y39683D01*
X407635Y39769D01*
X407554Y39858D01*
X407477Y39949D01*
X407402Y40043D01*
X407331Y40140D01*
X407262Y40239D01*
X407197Y40340D01*
X407136Y40442D01*
X407077Y40547D01*
X407022Y40654D01*
X406971Y40763D01*
X406923Y40873D01*
X406879Y40985D01*
X406839Y41098D01*
X406802Y41212D01*
X406769Y41327D01*
X406740Y41444D01*
X406714Y41561D01*
X406693Y41679D01*
X406675Y41798D01*
X406662Y41917D01*
X406652Y42037D01*
X406646Y42157D01*
X406644Y42277D01*
X407378Y48881D02*
X407380Y48988D01*
X407386Y49095D01*
X407396Y49202D01*
X407409Y49308D01*
X407427Y49414D01*
X407448Y49519D01*
X407473Y49623D01*
X407502Y49727D01*
X407535Y49829D01*
X407572Y49929D01*
X407612Y50029D01*
X407656Y50127D01*
X407703Y50223D01*
X407754Y50317D01*
X407808Y50410D01*
X407865Y50500D01*
X407926Y50589D01*
X407990Y50675D01*
X408057Y50758D01*
X408127Y50840D01*
X408200Y50918D01*
X408276Y50994D01*
X408354Y51067D01*
X408436Y51137D01*
X408519Y51204D01*
X408605Y51268D01*
X408694Y51329D01*
X408784Y51386D01*
X408877Y51440D01*
X408971Y51491D01*
X409067Y51538D01*
X409165Y51582D01*
X409265Y51622D01*
X409365Y51659D01*
X409467Y51692D01*
X409571Y51721D01*
X409675Y51746D01*
X409780Y51767D01*
X409886Y51785D01*
X409992Y51798D01*
X410099Y51808D01*
X410206Y51814D01*
X410313Y51816D01*
X410420Y51814D01*
X410527Y51808D01*
X410634Y51798D01*
X410740Y51785D01*
X410846Y51767D01*
X410951Y51746D01*
X411055Y51721D01*
X411159Y51692D01*
X411261Y51659D01*
X411361Y51622D01*
X411461Y51582D01*
X411559Y51538D01*
X411655Y51491D01*
X411749Y51440D01*
X411842Y51386D01*
X411932Y51329D01*
X412021Y51268D01*
X412107Y51204D01*
X412190Y51137D01*
X412272Y51067D01*
X412350Y50994D01*
X412426Y50918D01*
X412499Y50840D01*
X412569Y50758D01*
X412636Y50675D01*
X412700Y50589D01*
X412761Y50500D01*
X412818Y50410D01*
X412872Y50317D01*
X412923Y50223D01*
X412970Y50127D01*
X413014Y50029D01*
X413054Y49929D01*
X413091Y49829D01*
X413124Y49727D01*
X413153Y49623D01*
X413178Y49519D01*
X413199Y49414D01*
X413217Y49308D01*
X413230Y49202D01*
X413240Y49095D01*
X413246Y48988D01*
X413248Y48881D01*
X413246Y48774D01*
X413240Y48667D01*
X413230Y48560D01*
X413217Y48454D01*
X413199Y48348D01*
X413178Y48243D01*
X413153Y48139D01*
X413124Y48035D01*
X413091Y47933D01*
X413054Y47833D01*
X413014Y47733D01*
X412970Y47635D01*
X412923Y47539D01*
X412872Y47445D01*
X412818Y47352D01*
X412761Y47262D01*
X412700Y47173D01*
X412636Y47087D01*
X412569Y47004D01*
X412499Y46922D01*
X412426Y46844D01*
X412350Y46768D01*
X412272Y46695D01*
X412190Y46625D01*
X412107Y46558D01*
X412021Y46494D01*
X411932Y46433D01*
X411842Y46376D01*
X411749Y46322D01*
X411655Y46271D01*
X411559Y46224D01*
X411461Y46180D01*
X411361Y46140D01*
X411261Y46103D01*
X411159Y46070D01*
X411055Y46041D01*
X410951Y46016D01*
X410846Y45995D01*
X410740Y45977D01*
X410634Y45964D01*
X410527Y45954D01*
X410420Y45948D01*
X410313Y45946D01*
X410206Y45948D01*
X410099Y45954D01*
X409992Y45964D01*
X409886Y45977D01*
X409780Y45995D01*
X409675Y46016D01*
X409571Y46041D01*
X409467Y46070D01*
X409365Y46103D01*
X409265Y46140D01*
X409165Y46180D01*
X409067Y46224D01*
X408971Y46271D01*
X408877Y46322D01*
X408784Y46376D01*
X408694Y46433D01*
X408605Y46494D01*
X408519Y46558D01*
X408436Y46625D01*
X408354Y46695D01*
X408276Y46768D01*
X408200Y46844D01*
X408127Y46922D01*
X408057Y47004D01*
X407990Y47087D01*
X407926Y47173D01*
X407865Y47262D01*
X407808Y47352D01*
X407754Y47445D01*
X407703Y47539D01*
X407656Y47635D01*
X407612Y47733D01*
X407572Y47833D01*
X407535Y47933D01*
X407502Y48035D01*
X407473Y48139D01*
X407448Y48243D01*
X407427Y48348D01*
X407409Y48454D01*
X407396Y48560D01*
X407386Y48667D01*
X407380Y48774D01*
X407378Y48881D01*
X209578Y22013D02*
X203708Y22013D01*
X209578Y22013D02*
X203708Y13208D01*
X209578Y13208D01*
X213949Y11740D02*
X219820Y11740D01*
X225044Y13208D02*
X225044Y22013D01*
X228713Y22013D01*
X228806Y22011D01*
X228900Y22005D01*
X228993Y21995D01*
X229085Y21981D01*
X229177Y21964D01*
X229268Y21942D01*
X229357Y21917D01*
X229446Y21887D01*
X229534Y21854D01*
X229620Y21818D01*
X229704Y21777D01*
X229786Y21734D01*
X229867Y21686D01*
X229945Y21636D01*
X230022Y21582D01*
X230096Y21524D01*
X230167Y21464D01*
X230236Y21401D01*
X230302Y21335D01*
X230365Y21266D01*
X230425Y21195D01*
X230483Y21121D01*
X230537Y21045D01*
X230587Y20966D01*
X230634Y20885D01*
X230678Y20803D01*
X230719Y20719D01*
X230755Y20633D01*
X230788Y20545D01*
X230818Y20457D01*
X230843Y20367D01*
X230865Y20276D01*
X230882Y20184D01*
X230896Y20092D01*
X230906Y19999D01*
X230912Y19905D01*
X230914Y19812D01*
X230914Y13208D01*
X236514Y13208D02*
X236514Y22013D01*
X236147Y25682D02*
X236147Y26416D01*
X236880Y26416D01*
X236880Y25682D01*
X236147Y25682D01*
X243901Y13208D02*
X246837Y13208D01*
X243901Y13208D02*
X243810Y13210D01*
X243719Y13216D01*
X243629Y13225D01*
X243539Y13238D01*
X243449Y13255D01*
X243361Y13275D01*
X243273Y13300D01*
X243186Y13327D01*
X243101Y13359D01*
X243017Y13393D01*
X242934Y13432D01*
X242853Y13473D01*
X242774Y13518D01*
X242697Y13566D01*
X242622Y13618D01*
X242549Y13672D01*
X242478Y13729D01*
X242410Y13790D01*
X242345Y13853D01*
X242282Y13918D01*
X242221Y13986D01*
X242164Y14057D01*
X242110Y14130D01*
X242058Y14205D01*
X242010Y14282D01*
X241965Y14361D01*
X241924Y14442D01*
X241885Y14525D01*
X241851Y14609D01*
X241819Y14694D01*
X241792Y14781D01*
X241767Y14869D01*
X241747Y14957D01*
X241730Y15047D01*
X241717Y15137D01*
X241708Y15227D01*
X241702Y15318D01*
X241700Y15409D01*
X241700Y19812D01*
X241702Y19903D01*
X241708Y19994D01*
X241717Y20084D01*
X241730Y20174D01*
X241747Y20264D01*
X241767Y20352D01*
X241792Y20440D01*
X241819Y20527D01*
X241851Y20612D01*
X241885Y20696D01*
X241924Y20779D01*
X241965Y20860D01*
X242010Y20939D01*
X242058Y21016D01*
X242110Y21091D01*
X242164Y21164D01*
X242221Y21235D01*
X242282Y21303D01*
X242345Y21368D01*
X242410Y21431D01*
X242478Y21492D01*
X242549Y21549D01*
X242622Y21603D01*
X242697Y21655D01*
X242774Y21703D01*
X242853Y21748D01*
X242934Y21789D01*
X243017Y21828D01*
X243101Y21862D01*
X243186Y21894D01*
X243273Y21921D01*
X243361Y21946D01*
X243449Y21966D01*
X243539Y21983D01*
X243629Y21996D01*
X243719Y22005D01*
X243810Y22011D01*
X243901Y22013D01*
X246837Y22013D01*
X252071Y26416D02*
X252071Y13208D01*
X252071Y17611D02*
X257941Y22013D01*
X254639Y19445D02*
X257941Y13208D01*
X262169Y11740D02*
X268039Y11740D01*
X273263Y13208D02*
X273263Y26416D01*
X273263Y22013D02*
X276932Y22013D01*
X277025Y22011D01*
X277119Y22005D01*
X277212Y21995D01*
X277304Y21981D01*
X277396Y21964D01*
X277487Y21942D01*
X277576Y21917D01*
X277665Y21887D01*
X277753Y21854D01*
X277839Y21818D01*
X277923Y21777D01*
X278005Y21734D01*
X278086Y21686D01*
X278164Y21636D01*
X278241Y21582D01*
X278315Y21524D01*
X278386Y21464D01*
X278455Y21401D01*
X278521Y21335D01*
X278584Y21266D01*
X278644Y21195D01*
X278702Y21121D01*
X278756Y21045D01*
X278806Y20966D01*
X278853Y20885D01*
X278897Y20803D01*
X278938Y20719D01*
X278974Y20633D01*
X279007Y20545D01*
X279037Y20457D01*
X279062Y20367D01*
X279084Y20276D01*
X279101Y20184D01*
X279115Y20092D01*
X279125Y19999D01*
X279131Y19905D01*
X279133Y19812D01*
X279134Y19812D02*
X279134Y13208D01*
X287291Y18344D02*
X290593Y18344D01*
X287291Y18344D02*
X287191Y18342D01*
X287092Y18336D01*
X286993Y18327D01*
X286894Y18313D01*
X286796Y18296D01*
X286699Y18275D01*
X286602Y18250D01*
X286507Y18221D01*
X286413Y18189D01*
X286320Y18153D01*
X286228Y18114D01*
X286138Y18071D01*
X286050Y18024D01*
X285964Y17975D01*
X285880Y17922D01*
X285798Y17865D01*
X285718Y17806D01*
X285640Y17743D01*
X285565Y17678D01*
X285493Y17609D01*
X285423Y17538D01*
X285356Y17465D01*
X285292Y17388D01*
X285231Y17310D01*
X285173Y17228D01*
X285119Y17145D01*
X285067Y17060D01*
X285019Y16973D01*
X284974Y16884D01*
X284933Y16793D01*
X284895Y16701D01*
X284861Y16607D01*
X284831Y16513D01*
X284804Y16417D01*
X284781Y16320D01*
X284762Y16222D01*
X284747Y16124D01*
X284735Y16025D01*
X284727Y15925D01*
X284723Y15826D01*
X284723Y15726D01*
X284727Y15627D01*
X284735Y15527D01*
X284747Y15428D01*
X284762Y15330D01*
X284781Y15232D01*
X284804Y15135D01*
X284831Y15039D01*
X284861Y14945D01*
X284895Y14851D01*
X284933Y14759D01*
X284974Y14668D01*
X285019Y14579D01*
X285067Y14492D01*
X285119Y14407D01*
X285173Y14324D01*
X285231Y14242D01*
X285292Y14164D01*
X285356Y14087D01*
X285423Y14014D01*
X285493Y13943D01*
X285565Y13874D01*
X285640Y13809D01*
X285718Y13746D01*
X285798Y13687D01*
X285880Y13630D01*
X285964Y13577D01*
X286050Y13528D01*
X286138Y13481D01*
X286228Y13438D01*
X286320Y13399D01*
X286413Y13363D01*
X286507Y13331D01*
X286602Y13302D01*
X286699Y13277D01*
X286796Y13256D01*
X286894Y13239D01*
X286993Y13225D01*
X287092Y13216D01*
X287191Y13210D01*
X287291Y13208D01*
X290593Y13208D01*
X290593Y19812D01*
X290592Y19812D02*
X290590Y19903D01*
X290584Y19994D01*
X290575Y20084D01*
X290562Y20174D01*
X290545Y20264D01*
X290525Y20352D01*
X290500Y20440D01*
X290473Y20527D01*
X290441Y20612D01*
X290407Y20696D01*
X290368Y20779D01*
X290327Y20860D01*
X290282Y20939D01*
X290234Y21016D01*
X290182Y21091D01*
X290128Y21164D01*
X290071Y21235D01*
X290010Y21303D01*
X289947Y21368D01*
X289882Y21431D01*
X289814Y21492D01*
X289743Y21549D01*
X289670Y21603D01*
X289595Y21655D01*
X289518Y21703D01*
X289439Y21748D01*
X289358Y21789D01*
X289275Y21828D01*
X289191Y21862D01*
X289106Y21894D01*
X289019Y21921D01*
X288931Y21946D01*
X288843Y21966D01*
X288753Y21983D01*
X288663Y21996D01*
X288573Y22005D01*
X288482Y22011D01*
X288391Y22013D01*
X285456Y22013D01*
X295879Y8805D02*
X297347Y8805D01*
X301750Y22013D01*
X295879Y22013D02*
X298815Y13208D01*
X306121Y11740D02*
X311991Y11740D01*
X316362Y22013D02*
X322232Y22013D01*
X316362Y13208D01*
X322232Y13208D01*
X333806Y24215D02*
X336007Y24215D01*
X333806Y24214D02*
X333713Y24212D01*
X333619Y24206D01*
X333526Y24196D01*
X333434Y24182D01*
X333342Y24165D01*
X333251Y24143D01*
X333162Y24118D01*
X333073Y24088D01*
X332985Y24055D01*
X332899Y24019D01*
X332815Y23978D01*
X332733Y23935D01*
X332652Y23887D01*
X332574Y23837D01*
X332497Y23783D01*
X332423Y23725D01*
X332352Y23665D01*
X332283Y23602D01*
X332217Y23536D01*
X332154Y23467D01*
X332094Y23396D01*
X332036Y23322D01*
X331982Y23246D01*
X331932Y23167D01*
X331885Y23086D01*
X331841Y23004D01*
X331800Y22920D01*
X331764Y22834D01*
X331731Y22746D01*
X331701Y22658D01*
X331676Y22568D01*
X331654Y22477D01*
X331637Y22385D01*
X331623Y22293D01*
X331613Y22200D01*
X331607Y22106D01*
X331605Y22013D01*
X331604Y22013D02*
X331604Y17611D01*
X331605Y17611D02*
X331607Y17519D01*
X331613Y17427D01*
X331622Y17335D01*
X331636Y17244D01*
X331653Y17153D01*
X331674Y17064D01*
X331699Y16975D01*
X331727Y16887D01*
X331760Y16801D01*
X331795Y16716D01*
X331835Y16632D01*
X331877Y16551D01*
X331923Y16471D01*
X331973Y16393D01*
X332025Y16317D01*
X332081Y16244D01*
X332140Y16173D01*
X332202Y16104D01*
X332266Y16038D01*
X332333Y15975D01*
X332403Y15915D01*
X332475Y15858D01*
X332550Y15804D01*
X332627Y15753D01*
X332706Y15705D01*
X332786Y15660D01*
X332869Y15619D01*
X332953Y15582D01*
X333039Y15548D01*
X333126Y15518D01*
X333214Y15491D01*
X333303Y15468D01*
X333394Y15449D01*
X333484Y15434D01*
X333576Y15422D01*
X333668Y15414D01*
X333760Y15410D01*
X333852Y15410D01*
X333944Y15414D01*
X334036Y15422D01*
X334128Y15434D01*
X334218Y15449D01*
X334309Y15468D01*
X334398Y15491D01*
X334486Y15518D01*
X334573Y15548D01*
X334659Y15582D01*
X334743Y15619D01*
X334826Y15660D01*
X334907Y15705D01*
X334985Y15753D01*
X335062Y15804D01*
X335137Y15858D01*
X335209Y15915D01*
X335279Y15975D01*
X335346Y16038D01*
X335410Y16104D01*
X335472Y16173D01*
X335531Y16244D01*
X335587Y16317D01*
X335639Y16393D01*
X335689Y16471D01*
X335735Y16551D01*
X335777Y16632D01*
X335817Y16716D01*
X335852Y16801D01*
X335885Y16887D01*
X335913Y16975D01*
X335938Y17064D01*
X335959Y17153D01*
X335976Y17244D01*
X335990Y17335D01*
X335999Y17427D01*
X336005Y17519D01*
X336007Y17611D01*
X336007Y17244D02*
X336007Y24215D01*
X336007Y17244D02*
X336009Y17159D01*
X336015Y17075D01*
X336025Y16991D01*
X336038Y16907D01*
X336056Y16824D01*
X336077Y16742D01*
X336102Y16661D01*
X336131Y16581D01*
X336163Y16503D01*
X336199Y16427D01*
X336239Y16352D01*
X336282Y16279D01*
X336328Y16208D01*
X336377Y16139D01*
X336430Y16072D01*
X336486Y16008D01*
X336544Y15947D01*
X336605Y15889D01*
X336669Y15833D01*
X336736Y15780D01*
X336805Y15731D01*
X336876Y15685D01*
X336949Y15642D01*
X337024Y15602D01*
X337100Y15566D01*
X337178Y15534D01*
X337258Y15505D01*
X337339Y15480D01*
X337421Y15459D01*
X337504Y15441D01*
X337588Y15428D01*
X337672Y15418D01*
X337756Y15412D01*
X337841Y15410D01*
X337926Y15412D01*
X338010Y15418D01*
X338094Y15428D01*
X338178Y15441D01*
X338261Y15459D01*
X338343Y15480D01*
X338424Y15505D01*
X338504Y15534D01*
X338582Y15566D01*
X338658Y15602D01*
X338733Y15642D01*
X338806Y15685D01*
X338877Y15731D01*
X338946Y15780D01*
X339013Y15833D01*
X339077Y15889D01*
X339138Y15947D01*
X339196Y16008D01*
X339252Y16072D01*
X339305Y16139D01*
X339354Y16208D01*
X339400Y16279D01*
X339443Y16352D01*
X339483Y16427D01*
X339519Y16503D01*
X339551Y16581D01*
X339580Y16661D01*
X339605Y16742D01*
X339626Y16824D01*
X339644Y16907D01*
X339657Y16991D01*
X339667Y17075D01*
X339673Y17159D01*
X339675Y17244D01*
X339676Y17244D02*
X339676Y22747D01*
X339674Y22899D01*
X339668Y23052D01*
X339658Y23204D01*
X339644Y23356D01*
X339627Y23507D01*
X339605Y23658D01*
X339579Y23808D01*
X339550Y23958D01*
X339516Y24106D01*
X339479Y24254D01*
X339438Y24401D01*
X339393Y24546D01*
X339345Y24691D01*
X339292Y24834D01*
X339236Y24976D01*
X339177Y25116D01*
X339113Y25255D01*
X339047Y25392D01*
X338976Y25527D01*
X338902Y25660D01*
X338825Y25791D01*
X338744Y25921D01*
X338660Y26048D01*
X338573Y26173D01*
X338482Y26295D01*
X338389Y26415D01*
X338292Y26533D01*
X338192Y26648D01*
X338089Y26761D01*
X337984Y26871D01*
X337875Y26978D01*
X337764Y27082D01*
X337650Y27183D01*
X337534Y27282D01*
X337415Y27377D01*
X337293Y27469D01*
X337169Y27558D01*
X337043Y27644D01*
X336915Y27726D01*
X336785Y27805D01*
X336653Y27881D01*
X336518Y27953D01*
X336382Y28021D01*
X336244Y28087D01*
X336105Y28148D01*
X335964Y28206D01*
X335822Y28260D01*
X335678Y28311D01*
X335533Y28357D01*
X335387Y28400D01*
X335239Y28439D01*
X335091Y28475D01*
X334942Y28506D01*
X334792Y28534D01*
X334641Y28557D01*
X334490Y28577D01*
X334339Y28593D01*
X334187Y28605D01*
X334035Y28613D01*
X333882Y28617D01*
X333730Y28617D01*
X333577Y28613D01*
X333425Y28605D01*
X333273Y28593D01*
X333122Y28577D01*
X332971Y28557D01*
X332820Y28534D01*
X332670Y28506D01*
X332521Y28475D01*
X332373Y28439D01*
X332225Y28400D01*
X332079Y28357D01*
X331934Y28311D01*
X331790Y28260D01*
X331648Y28206D01*
X331507Y28148D01*
X331368Y28087D01*
X331230Y28021D01*
X331094Y27953D01*
X330959Y27881D01*
X330827Y27805D01*
X330697Y27726D01*
X330569Y27644D01*
X330443Y27558D01*
X330319Y27469D01*
X330197Y27377D01*
X330078Y27282D01*
X329962Y27183D01*
X329848Y27082D01*
X329737Y26978D01*
X329628Y26871D01*
X329523Y26761D01*
X329420Y26648D01*
X329320Y26533D01*
X329223Y26415D01*
X329130Y26295D01*
X329039Y26173D01*
X328952Y26048D01*
X328868Y25921D01*
X328787Y25791D01*
X328710Y25660D01*
X328636Y25527D01*
X328565Y25392D01*
X328499Y25255D01*
X328435Y25116D01*
X328376Y24976D01*
X328320Y24834D01*
X328267Y24691D01*
X328219Y24546D01*
X328174Y24401D01*
X328133Y24254D01*
X328096Y24106D01*
X328062Y23958D01*
X328033Y23808D01*
X328007Y23658D01*
X327985Y23507D01*
X327968Y23356D01*
X327954Y23204D01*
X327944Y23052D01*
X327938Y22899D01*
X327936Y22747D01*
X327935Y22747D02*
X327935Y16510D01*
X327936Y16510D02*
X327938Y16362D01*
X327944Y16214D01*
X327954Y16067D01*
X327968Y15919D01*
X327986Y15773D01*
X328007Y15626D01*
X328033Y15481D01*
X328062Y15336D01*
X328096Y15191D01*
X328133Y15048D01*
X328174Y14906D01*
X328219Y14765D01*
X328268Y14626D01*
X328320Y14487D01*
X328376Y14350D01*
X328436Y14215D01*
X328499Y14081D01*
X328566Y13949D01*
X328637Y13819D01*
X328711Y13691D01*
X328788Y13565D01*
X328869Y13441D01*
X328953Y13319D01*
X329040Y13200D01*
X329130Y13083D01*
X329224Y12968D01*
X329320Y12856D01*
X329420Y12746D01*
X329522Y12640D01*
X329627Y12536D01*
X329735Y12434D01*
X329846Y12336D01*
X329959Y12241D01*
X330075Y12149D01*
X330193Y12060D01*
X330313Y11974D01*
X330436Y11892D01*
X330561Y11812D01*
X330688Y11736D01*
X330817Y11664D01*
X330948Y11595D01*
X331081Y11530D01*
X331215Y11468D01*
X331351Y11410D01*
X331489Y11355D01*
X331627Y11304D01*
X331768Y11257D01*
X331909Y11214D01*
X332052Y11175D01*
X332195Y11139D01*
X332340Y11107D01*
X332485Y11079D01*
X332631Y11055D01*
X332778Y11035D01*
X332925Y11019D01*
X333072Y11007D01*
X346232Y13208D02*
X346232Y26416D01*
X346232Y22013D02*
X349901Y22013D01*
X349994Y22011D01*
X350088Y22005D01*
X350181Y21995D01*
X350273Y21981D01*
X350365Y21964D01*
X350456Y21942D01*
X350545Y21917D01*
X350634Y21887D01*
X350722Y21854D01*
X350808Y21818D01*
X350892Y21777D01*
X350974Y21734D01*
X351055Y21686D01*
X351133Y21636D01*
X351210Y21582D01*
X351284Y21524D01*
X351355Y21464D01*
X351424Y21401D01*
X351490Y21335D01*
X351553Y21266D01*
X351613Y21195D01*
X351671Y21121D01*
X351725Y21045D01*
X351775Y20966D01*
X351822Y20885D01*
X351866Y20803D01*
X351907Y20719D01*
X351943Y20633D01*
X351976Y20545D01*
X352006Y20457D01*
X352031Y20367D01*
X352053Y20276D01*
X352070Y20184D01*
X352084Y20092D01*
X352094Y19999D01*
X352100Y19905D01*
X352102Y19812D01*
X352103Y19812D02*
X352103Y13208D01*
X357754Y16143D02*
X357754Y19078D01*
X357756Y19185D01*
X357762Y19292D01*
X357772Y19399D01*
X357785Y19505D01*
X357803Y19611D01*
X357824Y19716D01*
X357849Y19820D01*
X357878Y19924D01*
X357911Y20026D01*
X357948Y20126D01*
X357988Y20226D01*
X358032Y20324D01*
X358079Y20420D01*
X358130Y20514D01*
X358184Y20607D01*
X358241Y20697D01*
X358302Y20786D01*
X358366Y20872D01*
X358433Y20955D01*
X358503Y21037D01*
X358576Y21115D01*
X358652Y21191D01*
X358730Y21264D01*
X358812Y21334D01*
X358895Y21401D01*
X358981Y21465D01*
X359070Y21526D01*
X359160Y21583D01*
X359253Y21637D01*
X359347Y21688D01*
X359443Y21735D01*
X359541Y21779D01*
X359641Y21819D01*
X359741Y21856D01*
X359843Y21889D01*
X359947Y21918D01*
X360051Y21943D01*
X360156Y21964D01*
X360262Y21982D01*
X360368Y21995D01*
X360475Y22005D01*
X360582Y22011D01*
X360689Y22013D01*
X360796Y22011D01*
X360903Y22005D01*
X361010Y21995D01*
X361116Y21982D01*
X361222Y21964D01*
X361327Y21943D01*
X361431Y21918D01*
X361535Y21889D01*
X361637Y21856D01*
X361737Y21819D01*
X361837Y21779D01*
X361935Y21735D01*
X362031Y21688D01*
X362125Y21637D01*
X362218Y21583D01*
X362308Y21526D01*
X362397Y21465D01*
X362483Y21401D01*
X362566Y21334D01*
X362648Y21264D01*
X362726Y21191D01*
X362802Y21115D01*
X362875Y21037D01*
X362945Y20955D01*
X363012Y20872D01*
X363076Y20786D01*
X363137Y20697D01*
X363194Y20607D01*
X363248Y20514D01*
X363299Y20420D01*
X363346Y20324D01*
X363390Y20226D01*
X363430Y20126D01*
X363467Y20026D01*
X363500Y19924D01*
X363529Y19820D01*
X363554Y19716D01*
X363575Y19611D01*
X363593Y19505D01*
X363606Y19399D01*
X363616Y19292D01*
X363622Y19185D01*
X363624Y19078D01*
X363624Y16143D01*
X363622Y16036D01*
X363616Y15929D01*
X363606Y15822D01*
X363593Y15716D01*
X363575Y15610D01*
X363554Y15505D01*
X363529Y15401D01*
X363500Y15297D01*
X363467Y15195D01*
X363430Y15095D01*
X363390Y14995D01*
X363346Y14897D01*
X363299Y14801D01*
X363248Y14707D01*
X363194Y14614D01*
X363137Y14524D01*
X363076Y14435D01*
X363012Y14349D01*
X362945Y14266D01*
X362875Y14184D01*
X362802Y14106D01*
X362726Y14030D01*
X362648Y13957D01*
X362566Y13887D01*
X362483Y13820D01*
X362397Y13756D01*
X362308Y13695D01*
X362218Y13638D01*
X362125Y13584D01*
X362031Y13533D01*
X361935Y13486D01*
X361837Y13442D01*
X361737Y13402D01*
X361637Y13365D01*
X361535Y13332D01*
X361431Y13303D01*
X361327Y13278D01*
X361222Y13257D01*
X361116Y13239D01*
X361010Y13226D01*
X360903Y13216D01*
X360796Y13210D01*
X360689Y13208D01*
X360582Y13210D01*
X360475Y13216D01*
X360368Y13226D01*
X360262Y13239D01*
X360156Y13257D01*
X360051Y13278D01*
X359947Y13303D01*
X359843Y13332D01*
X359741Y13365D01*
X359641Y13402D01*
X359541Y13442D01*
X359443Y13486D01*
X359347Y13533D01*
X359253Y13584D01*
X359160Y13638D01*
X359070Y13695D01*
X358981Y13756D01*
X358895Y13820D01*
X358812Y13887D01*
X358730Y13957D01*
X358652Y14030D01*
X358576Y14106D01*
X358503Y14184D01*
X358433Y14266D01*
X358366Y14349D01*
X358302Y14435D01*
X358241Y14524D01*
X358184Y14614D01*
X358130Y14707D01*
X358079Y14801D01*
X358032Y14897D01*
X357988Y14995D01*
X357948Y15095D01*
X357911Y15195D01*
X357878Y15297D01*
X357849Y15401D01*
X357824Y15505D01*
X357803Y15610D01*
X357785Y15716D01*
X357772Y15822D01*
X357762Y15929D01*
X357756Y16036D01*
X357754Y16143D01*
X367778Y22013D02*
X372180Y22013D01*
X369245Y26416D02*
X369245Y15409D01*
X369247Y15318D01*
X369253Y15227D01*
X369262Y15137D01*
X369275Y15047D01*
X369292Y14957D01*
X369312Y14869D01*
X369337Y14781D01*
X369364Y14694D01*
X369396Y14609D01*
X369430Y14525D01*
X369469Y14442D01*
X369510Y14361D01*
X369555Y14282D01*
X369603Y14205D01*
X369655Y14130D01*
X369709Y14057D01*
X369766Y13986D01*
X369827Y13918D01*
X369890Y13853D01*
X369955Y13790D01*
X370024Y13729D01*
X370094Y13672D01*
X370167Y13618D01*
X370242Y13566D01*
X370319Y13518D01*
X370398Y13473D01*
X370479Y13432D01*
X370562Y13393D01*
X370646Y13359D01*
X370731Y13327D01*
X370818Y13299D01*
X370906Y13275D01*
X370994Y13255D01*
X371084Y13238D01*
X371174Y13225D01*
X371264Y13216D01*
X371355Y13210D01*
X371446Y13208D01*
X372180Y13208D01*
X377622Y13208D02*
X377622Y22013D01*
X384226Y22013D01*
X384317Y22011D01*
X384408Y22005D01*
X384498Y21996D01*
X384588Y21983D01*
X384678Y21966D01*
X384766Y21946D01*
X384854Y21921D01*
X384941Y21894D01*
X385026Y21862D01*
X385110Y21828D01*
X385193Y21789D01*
X385274Y21748D01*
X385353Y21703D01*
X385430Y21655D01*
X385505Y21603D01*
X385578Y21549D01*
X385649Y21492D01*
X385717Y21431D01*
X385782Y21368D01*
X385845Y21303D01*
X385906Y21235D01*
X385963Y21164D01*
X386017Y21091D01*
X386069Y21016D01*
X386117Y20939D01*
X386162Y20860D01*
X386203Y20779D01*
X386242Y20696D01*
X386276Y20612D01*
X386308Y20527D01*
X386335Y20440D01*
X386360Y20352D01*
X386380Y20264D01*
X386397Y20174D01*
X386410Y20084D01*
X386419Y19994D01*
X386425Y19903D01*
X386427Y19812D01*
X386428Y19812D02*
X386428Y13208D01*
X382025Y13208D02*
X382025Y22013D01*
X394824Y18344D02*
X398126Y18344D01*
X394824Y18344D02*
X394724Y18342D01*
X394625Y18336D01*
X394526Y18327D01*
X394427Y18313D01*
X394329Y18296D01*
X394232Y18275D01*
X394135Y18250D01*
X394040Y18221D01*
X393946Y18189D01*
X393853Y18153D01*
X393761Y18114D01*
X393671Y18071D01*
X393583Y18024D01*
X393497Y17975D01*
X393413Y17922D01*
X393331Y17865D01*
X393251Y17806D01*
X393173Y17743D01*
X393098Y17678D01*
X393026Y17609D01*
X392956Y17538D01*
X392889Y17465D01*
X392825Y17388D01*
X392764Y17310D01*
X392706Y17228D01*
X392652Y17145D01*
X392600Y17060D01*
X392552Y16973D01*
X392507Y16884D01*
X392466Y16793D01*
X392428Y16701D01*
X392394Y16607D01*
X392364Y16513D01*
X392337Y16417D01*
X392314Y16320D01*
X392295Y16222D01*
X392280Y16124D01*
X392268Y16025D01*
X392260Y15925D01*
X392256Y15826D01*
X392256Y15726D01*
X392260Y15627D01*
X392268Y15527D01*
X392280Y15428D01*
X392295Y15330D01*
X392314Y15232D01*
X392337Y15135D01*
X392364Y15039D01*
X392394Y14945D01*
X392428Y14851D01*
X392466Y14759D01*
X392507Y14668D01*
X392552Y14579D01*
X392600Y14492D01*
X392652Y14407D01*
X392706Y14324D01*
X392764Y14242D01*
X392825Y14164D01*
X392889Y14087D01*
X392956Y14014D01*
X393026Y13943D01*
X393098Y13874D01*
X393173Y13809D01*
X393251Y13746D01*
X393331Y13687D01*
X393413Y13630D01*
X393497Y13577D01*
X393583Y13528D01*
X393671Y13481D01*
X393761Y13438D01*
X393853Y13399D01*
X393946Y13363D01*
X394040Y13331D01*
X394135Y13302D01*
X394232Y13277D01*
X394329Y13256D01*
X394427Y13239D01*
X394526Y13225D01*
X394625Y13216D01*
X394724Y13210D01*
X394824Y13208D01*
X398126Y13208D01*
X398126Y19812D01*
X398124Y19903D01*
X398118Y19994D01*
X398109Y20084D01*
X398096Y20174D01*
X398079Y20264D01*
X398059Y20352D01*
X398034Y20440D01*
X398007Y20527D01*
X397975Y20612D01*
X397941Y20696D01*
X397902Y20779D01*
X397861Y20860D01*
X397816Y20939D01*
X397768Y21016D01*
X397716Y21091D01*
X397662Y21164D01*
X397605Y21235D01*
X397544Y21303D01*
X397481Y21368D01*
X397416Y21431D01*
X397348Y21492D01*
X397277Y21549D01*
X397204Y21603D01*
X397129Y21655D01*
X397052Y21703D01*
X396973Y21748D01*
X396892Y21789D01*
X396809Y21828D01*
X396725Y21862D01*
X396640Y21894D01*
X396553Y21921D01*
X396465Y21946D01*
X396377Y21966D01*
X396287Y21983D01*
X396197Y21996D01*
X396107Y22005D01*
X396016Y22011D01*
X395925Y22013D01*
X392989Y22013D01*
X403788Y22013D02*
X403788Y13208D01*
X403421Y25682D02*
X403421Y26416D01*
X404154Y26416D01*
X404154Y25682D01*
X403421Y25682D01*
X409142Y26416D02*
X409142Y15409D01*
X409144Y15318D01*
X409150Y15227D01*
X409159Y15137D01*
X409172Y15047D01*
X409189Y14957D01*
X409209Y14869D01*
X409234Y14781D01*
X409261Y14694D01*
X409293Y14609D01*
X409327Y14525D01*
X409366Y14442D01*
X409407Y14361D01*
X409452Y14282D01*
X409500Y14205D01*
X409552Y14130D01*
X409606Y14057D01*
X409663Y13986D01*
X409724Y13918D01*
X409787Y13853D01*
X409852Y13790D01*
X409920Y13729D01*
X409991Y13672D01*
X410064Y13618D01*
X410139Y13566D01*
X410216Y13518D01*
X410295Y13473D01*
X410376Y13432D01*
X410459Y13393D01*
X410543Y13359D01*
X410628Y13327D01*
X410715Y13300D01*
X410803Y13275D01*
X410891Y13255D01*
X410981Y13238D01*
X411071Y13225D01*
X411161Y13216D01*
X411252Y13210D01*
X411343Y13208D01*
X415369Y13208D02*
X415369Y13942D01*
X416103Y13942D01*
X416103Y13208D01*
X415369Y13208D01*
X423124Y13208D02*
X426059Y13208D01*
X423124Y13208D02*
X423033Y13210D01*
X422942Y13216D01*
X422852Y13225D01*
X422762Y13238D01*
X422672Y13255D01*
X422584Y13275D01*
X422496Y13300D01*
X422409Y13327D01*
X422324Y13359D01*
X422240Y13393D01*
X422157Y13432D01*
X422076Y13473D01*
X421997Y13518D01*
X421920Y13566D01*
X421845Y13618D01*
X421772Y13672D01*
X421701Y13729D01*
X421633Y13790D01*
X421568Y13853D01*
X421505Y13918D01*
X421444Y13986D01*
X421387Y14057D01*
X421333Y14130D01*
X421281Y14205D01*
X421233Y14282D01*
X421188Y14361D01*
X421147Y14442D01*
X421108Y14525D01*
X421074Y14609D01*
X421042Y14694D01*
X421015Y14781D01*
X420990Y14869D01*
X420970Y14957D01*
X420953Y15047D01*
X420940Y15137D01*
X420931Y15227D01*
X420925Y15318D01*
X420923Y15409D01*
X420922Y15409D02*
X420922Y19812D01*
X420923Y19812D02*
X420925Y19903D01*
X420931Y19994D01*
X420940Y20084D01*
X420953Y20174D01*
X420970Y20264D01*
X420990Y20352D01*
X421015Y20440D01*
X421042Y20527D01*
X421074Y20612D01*
X421108Y20696D01*
X421147Y20779D01*
X421188Y20860D01*
X421233Y20939D01*
X421281Y21016D01*
X421333Y21091D01*
X421387Y21164D01*
X421444Y21235D01*
X421505Y21303D01*
X421568Y21368D01*
X421633Y21431D01*
X421701Y21492D01*
X421772Y21549D01*
X421845Y21603D01*
X421920Y21655D01*
X421997Y21703D01*
X422076Y21748D01*
X422157Y21789D01*
X422240Y21828D01*
X422324Y21862D01*
X422409Y21894D01*
X422496Y21921D01*
X422584Y21946D01*
X422672Y21966D01*
X422762Y21983D01*
X422852Y21996D01*
X422942Y22005D01*
X423033Y22011D01*
X423124Y22013D01*
X426059Y22013D01*
X430723Y19078D02*
X430723Y16143D01*
X430723Y19078D02*
X430725Y19185D01*
X430731Y19292D01*
X430741Y19399D01*
X430754Y19505D01*
X430772Y19611D01*
X430793Y19716D01*
X430818Y19820D01*
X430847Y19924D01*
X430880Y20026D01*
X430917Y20126D01*
X430957Y20226D01*
X431001Y20324D01*
X431048Y20420D01*
X431099Y20514D01*
X431153Y20607D01*
X431210Y20697D01*
X431271Y20786D01*
X431335Y20872D01*
X431402Y20955D01*
X431472Y21037D01*
X431545Y21115D01*
X431621Y21191D01*
X431699Y21264D01*
X431781Y21334D01*
X431864Y21401D01*
X431950Y21465D01*
X432039Y21526D01*
X432129Y21583D01*
X432222Y21637D01*
X432316Y21688D01*
X432412Y21735D01*
X432510Y21779D01*
X432610Y21819D01*
X432710Y21856D01*
X432812Y21889D01*
X432916Y21918D01*
X433020Y21943D01*
X433125Y21964D01*
X433231Y21982D01*
X433337Y21995D01*
X433444Y22005D01*
X433551Y22011D01*
X433658Y22013D01*
X433765Y22011D01*
X433872Y22005D01*
X433979Y21995D01*
X434085Y21982D01*
X434191Y21964D01*
X434296Y21943D01*
X434400Y21918D01*
X434504Y21889D01*
X434606Y21856D01*
X434706Y21819D01*
X434806Y21779D01*
X434904Y21735D01*
X435000Y21688D01*
X435094Y21637D01*
X435187Y21583D01*
X435277Y21526D01*
X435366Y21465D01*
X435452Y21401D01*
X435535Y21334D01*
X435617Y21264D01*
X435695Y21191D01*
X435771Y21115D01*
X435844Y21037D01*
X435914Y20955D01*
X435981Y20872D01*
X436045Y20786D01*
X436106Y20697D01*
X436163Y20607D01*
X436217Y20514D01*
X436268Y20420D01*
X436315Y20324D01*
X436359Y20226D01*
X436399Y20126D01*
X436436Y20026D01*
X436469Y19924D01*
X436498Y19820D01*
X436523Y19716D01*
X436544Y19611D01*
X436562Y19505D01*
X436575Y19399D01*
X436585Y19292D01*
X436591Y19185D01*
X436593Y19078D01*
X436593Y16143D01*
X436591Y16036D01*
X436585Y15929D01*
X436575Y15822D01*
X436562Y15716D01*
X436544Y15610D01*
X436523Y15505D01*
X436498Y15401D01*
X436469Y15297D01*
X436436Y15195D01*
X436399Y15095D01*
X436359Y14995D01*
X436315Y14897D01*
X436268Y14801D01*
X436217Y14707D01*
X436163Y14614D01*
X436106Y14524D01*
X436045Y14435D01*
X435981Y14349D01*
X435914Y14266D01*
X435844Y14184D01*
X435771Y14106D01*
X435695Y14030D01*
X435617Y13957D01*
X435535Y13887D01*
X435452Y13820D01*
X435366Y13756D01*
X435277Y13695D01*
X435187Y13638D01*
X435094Y13584D01*
X435000Y13533D01*
X434904Y13486D01*
X434806Y13442D01*
X434706Y13402D01*
X434606Y13365D01*
X434504Y13332D01*
X434400Y13303D01*
X434296Y13278D01*
X434191Y13257D01*
X434085Y13239D01*
X433979Y13226D01*
X433872Y13216D01*
X433765Y13210D01*
X433658Y13208D01*
X433551Y13210D01*
X433444Y13216D01*
X433337Y13226D01*
X433231Y13239D01*
X433125Y13257D01*
X433020Y13278D01*
X432916Y13303D01*
X432812Y13332D01*
X432710Y13365D01*
X432610Y13402D01*
X432510Y13442D01*
X432412Y13486D01*
X432316Y13533D01*
X432222Y13584D01*
X432129Y13638D01*
X432039Y13695D01*
X431950Y13756D01*
X431864Y13820D01*
X431781Y13887D01*
X431699Y13957D01*
X431621Y14030D01*
X431545Y14106D01*
X431472Y14184D01*
X431402Y14266D01*
X431335Y14349D01*
X431271Y14435D01*
X431210Y14524D01*
X431153Y14614D01*
X431099Y14707D01*
X431048Y14801D01*
X431001Y14897D01*
X430957Y14995D01*
X430917Y15095D01*
X430880Y15195D01*
X430847Y15297D01*
X430818Y15401D01*
X430793Y15505D01*
X430772Y15610D01*
X430754Y15716D01*
X430741Y15822D01*
X430731Y15929D01*
X430725Y16036D01*
X430723Y16143D01*
X442484Y13208D02*
X442484Y22013D01*
X449088Y22013D01*
X449179Y22011D01*
X449270Y22005D01*
X449360Y21996D01*
X449450Y21983D01*
X449540Y21966D01*
X449628Y21946D01*
X449716Y21921D01*
X449803Y21894D01*
X449888Y21862D01*
X449972Y21828D01*
X450055Y21789D01*
X450136Y21748D01*
X450215Y21703D01*
X450292Y21655D01*
X450367Y21603D01*
X450440Y21549D01*
X450511Y21492D01*
X450579Y21431D01*
X450644Y21368D01*
X450707Y21303D01*
X450768Y21235D01*
X450825Y21164D01*
X450879Y21091D01*
X450931Y21016D01*
X450979Y20939D01*
X451024Y20860D01*
X451065Y20779D01*
X451104Y20696D01*
X451138Y20612D01*
X451170Y20527D01*
X451197Y20440D01*
X451222Y20352D01*
X451242Y20264D01*
X451259Y20174D01*
X451272Y20084D01*
X451281Y19994D01*
X451287Y19903D01*
X451289Y19812D01*
X451289Y13208D01*
X446886Y13208D02*
X446886Y22013D01*
D14*
X16214Y13081D02*
X13081Y22479D01*
X19346Y22479D02*
X16214Y13081D01*
X24226Y13081D02*
X26836Y13081D01*
X24226Y13081D02*
X24149Y13083D01*
X24073Y13089D01*
X23996Y13098D01*
X23920Y13111D01*
X23845Y13128D01*
X23771Y13148D01*
X23698Y13173D01*
X23627Y13200D01*
X23556Y13231D01*
X23488Y13266D01*
X23421Y13304D01*
X23356Y13345D01*
X23293Y13389D01*
X23233Y13436D01*
X23174Y13487D01*
X23119Y13540D01*
X23066Y13595D01*
X23015Y13654D01*
X22968Y13714D01*
X22924Y13777D01*
X22883Y13842D01*
X22845Y13909D01*
X22810Y13977D01*
X22779Y14048D01*
X22752Y14119D01*
X22727Y14192D01*
X22707Y14266D01*
X22690Y14341D01*
X22677Y14417D01*
X22668Y14494D01*
X22662Y14570D01*
X22660Y14647D01*
X22660Y17258D01*
X22662Y17348D01*
X22668Y17437D01*
X22677Y17527D01*
X22691Y17616D01*
X22708Y17704D01*
X22729Y17791D01*
X22754Y17878D01*
X22783Y17963D01*
X22815Y18047D01*
X22850Y18129D01*
X22890Y18210D01*
X22932Y18289D01*
X22978Y18366D01*
X23028Y18441D01*
X23080Y18514D01*
X23136Y18585D01*
X23194Y18653D01*
X23256Y18718D01*
X23320Y18781D01*
X23387Y18841D01*
X23456Y18898D01*
X23528Y18952D01*
X23602Y19003D01*
X23678Y19051D01*
X23756Y19095D01*
X23836Y19136D01*
X23918Y19174D01*
X24001Y19208D01*
X24086Y19238D01*
X24172Y19265D01*
X24258Y19288D01*
X24346Y19307D01*
X24435Y19322D01*
X24524Y19334D01*
X24613Y19342D01*
X24703Y19346D01*
X24793Y19346D01*
X24883Y19342D01*
X24972Y19334D01*
X25061Y19322D01*
X25150Y19307D01*
X25238Y19288D01*
X25324Y19265D01*
X25410Y19238D01*
X25495Y19208D01*
X25578Y19174D01*
X25660Y19136D01*
X25740Y19095D01*
X25818Y19051D01*
X25894Y19003D01*
X25968Y18952D01*
X26040Y18898D01*
X26109Y18841D01*
X26176Y18781D01*
X26240Y18718D01*
X26302Y18653D01*
X26360Y18585D01*
X26416Y18514D01*
X26468Y18441D01*
X26518Y18366D01*
X26564Y18289D01*
X26606Y18210D01*
X26646Y18129D01*
X26681Y18047D01*
X26713Y17963D01*
X26742Y17878D01*
X26767Y17791D01*
X26788Y17704D01*
X26805Y17616D01*
X26819Y17527D01*
X26828Y17437D01*
X26834Y17348D01*
X26836Y17258D01*
X26836Y16214D01*
X22660Y16214D01*
X30941Y13081D02*
X30941Y19346D01*
X34073Y19346D01*
X34073Y18302D01*
X37768Y16736D02*
X40379Y15692D01*
X37768Y16736D02*
X37702Y16764D01*
X37637Y16797D01*
X37574Y16832D01*
X37513Y16871D01*
X37454Y16913D01*
X37398Y16958D01*
X37344Y17006D01*
X37293Y17057D01*
X37244Y17110D01*
X37199Y17167D01*
X37156Y17225D01*
X37117Y17285D01*
X37080Y17348D01*
X37048Y17413D01*
X37019Y17479D01*
X36993Y17546D01*
X36971Y17615D01*
X36953Y17685D01*
X36938Y17756D01*
X36927Y17827D01*
X36920Y17899D01*
X36917Y17971D01*
X36918Y18043D01*
X36923Y18116D01*
X36931Y18187D01*
X36943Y18259D01*
X36959Y18329D01*
X36979Y18398D01*
X37003Y18467D01*
X37030Y18534D01*
X37060Y18599D01*
X37094Y18663D01*
X37132Y18725D01*
X37172Y18785D01*
X37216Y18842D01*
X37263Y18897D01*
X37313Y18950D01*
X37365Y18999D01*
X37420Y19046D01*
X37477Y19090D01*
X37537Y19131D01*
X37599Y19168D01*
X37663Y19203D01*
X37728Y19233D01*
X37795Y19261D01*
X37863Y19284D01*
X37933Y19304D01*
X38003Y19320D01*
X38074Y19333D01*
X38146Y19341D01*
X38218Y19346D01*
X38290Y19347D01*
X38291Y19346D02*
X38442Y19342D01*
X38593Y19334D01*
X38744Y19323D01*
X38895Y19307D01*
X39045Y19287D01*
X39195Y19264D01*
X39344Y19237D01*
X39492Y19206D01*
X39640Y19171D01*
X39786Y19133D01*
X39932Y19090D01*
X40076Y19044D01*
X40219Y18995D01*
X40361Y18942D01*
X40501Y18885D01*
X40640Y18824D01*
X40379Y15692D02*
X40445Y15664D01*
X40510Y15631D01*
X40573Y15596D01*
X40634Y15557D01*
X40693Y15515D01*
X40749Y15470D01*
X40803Y15422D01*
X40854Y15371D01*
X40903Y15318D01*
X40948Y15261D01*
X40991Y15203D01*
X41030Y15143D01*
X41067Y15080D01*
X41099Y15015D01*
X41128Y14949D01*
X41154Y14882D01*
X41176Y14813D01*
X41194Y14743D01*
X41209Y14672D01*
X41220Y14601D01*
X41227Y14529D01*
X41230Y14457D01*
X41229Y14385D01*
X41224Y14312D01*
X41216Y14241D01*
X41204Y14169D01*
X41188Y14099D01*
X41168Y14030D01*
X41144Y13961D01*
X41117Y13894D01*
X41087Y13829D01*
X41053Y13765D01*
X41015Y13703D01*
X40975Y13643D01*
X40931Y13586D01*
X40884Y13531D01*
X40834Y13478D01*
X40782Y13429D01*
X40727Y13382D01*
X40670Y13338D01*
X40610Y13297D01*
X40548Y13260D01*
X40484Y13225D01*
X40419Y13195D01*
X40352Y13167D01*
X40284Y13144D01*
X40214Y13124D01*
X40144Y13108D01*
X40073Y13095D01*
X40001Y13087D01*
X39929Y13082D01*
X39857Y13081D01*
X39647Y13086D01*
X39438Y13097D01*
X39229Y13112D01*
X39021Y13132D01*
X38813Y13158D01*
X38606Y13188D01*
X38399Y13223D01*
X38194Y13263D01*
X37989Y13307D01*
X37786Y13357D01*
X37583Y13411D01*
X37382Y13471D01*
X37183Y13534D01*
X36985Y13603D01*
X44865Y13081D02*
X44865Y19346D01*
X44604Y21957D02*
X44604Y22479D01*
X45126Y22479D01*
X45126Y21957D01*
X44604Y21957D01*
X48567Y17258D02*
X48567Y15169D01*
X48568Y17258D02*
X48570Y17348D01*
X48576Y17437D01*
X48585Y17527D01*
X48599Y17616D01*
X48616Y17704D01*
X48637Y17791D01*
X48662Y17878D01*
X48691Y17963D01*
X48723Y18047D01*
X48758Y18129D01*
X48798Y18210D01*
X48840Y18289D01*
X48886Y18366D01*
X48936Y18441D01*
X48988Y18514D01*
X49044Y18585D01*
X49102Y18653D01*
X49164Y18718D01*
X49228Y18781D01*
X49295Y18841D01*
X49364Y18898D01*
X49436Y18952D01*
X49510Y19003D01*
X49586Y19051D01*
X49664Y19095D01*
X49744Y19136D01*
X49826Y19174D01*
X49909Y19208D01*
X49994Y19238D01*
X50080Y19265D01*
X50166Y19288D01*
X50254Y19307D01*
X50343Y19322D01*
X50432Y19334D01*
X50521Y19342D01*
X50611Y19346D01*
X50701Y19346D01*
X50791Y19342D01*
X50880Y19334D01*
X50969Y19322D01*
X51058Y19307D01*
X51146Y19288D01*
X51232Y19265D01*
X51318Y19238D01*
X51403Y19208D01*
X51486Y19174D01*
X51568Y19136D01*
X51648Y19095D01*
X51726Y19051D01*
X51802Y19003D01*
X51876Y18952D01*
X51948Y18898D01*
X52017Y18841D01*
X52084Y18781D01*
X52148Y18718D01*
X52210Y18653D01*
X52268Y18585D01*
X52324Y18514D01*
X52376Y18441D01*
X52426Y18366D01*
X52472Y18289D01*
X52514Y18210D01*
X52554Y18129D01*
X52589Y18047D01*
X52621Y17963D01*
X52650Y17878D01*
X52675Y17791D01*
X52696Y17704D01*
X52713Y17616D01*
X52727Y17527D01*
X52736Y17437D01*
X52742Y17348D01*
X52744Y17258D01*
X52744Y15169D01*
X52742Y15079D01*
X52736Y14990D01*
X52727Y14900D01*
X52713Y14811D01*
X52696Y14723D01*
X52675Y14636D01*
X52650Y14549D01*
X52621Y14464D01*
X52589Y14380D01*
X52554Y14298D01*
X52514Y14217D01*
X52472Y14138D01*
X52426Y14061D01*
X52376Y13986D01*
X52324Y13913D01*
X52268Y13842D01*
X52210Y13774D01*
X52148Y13709D01*
X52084Y13646D01*
X52017Y13586D01*
X51948Y13529D01*
X51876Y13475D01*
X51802Y13424D01*
X51726Y13376D01*
X51648Y13332D01*
X51568Y13291D01*
X51486Y13253D01*
X51403Y13219D01*
X51318Y13189D01*
X51232Y13162D01*
X51146Y13139D01*
X51058Y13120D01*
X50969Y13105D01*
X50880Y13093D01*
X50791Y13085D01*
X50701Y13081D01*
X50611Y13081D01*
X50521Y13085D01*
X50432Y13093D01*
X50343Y13105D01*
X50254Y13120D01*
X50166Y13139D01*
X50080Y13162D01*
X49994Y13189D01*
X49909Y13219D01*
X49826Y13253D01*
X49744Y13291D01*
X49664Y13332D01*
X49586Y13376D01*
X49510Y13424D01*
X49436Y13475D01*
X49364Y13529D01*
X49295Y13586D01*
X49228Y13646D01*
X49164Y13709D01*
X49102Y13774D01*
X49044Y13842D01*
X48988Y13913D01*
X48936Y13986D01*
X48886Y14061D01*
X48840Y14138D01*
X48798Y14217D01*
X48758Y14298D01*
X48723Y14380D01*
X48691Y14464D01*
X48662Y14549D01*
X48637Y14636D01*
X48616Y14723D01*
X48599Y14811D01*
X48585Y14900D01*
X48576Y14990D01*
X48570Y15079D01*
X48568Y15169D01*
X56797Y13081D02*
X56797Y19346D01*
X59408Y19346D01*
X59485Y19344D01*
X59561Y19338D01*
X59638Y19329D01*
X59714Y19316D01*
X59789Y19299D01*
X59863Y19279D01*
X59936Y19254D01*
X60007Y19227D01*
X60078Y19196D01*
X60146Y19161D01*
X60213Y19123D01*
X60278Y19082D01*
X60341Y19038D01*
X60401Y18991D01*
X60460Y18940D01*
X60515Y18887D01*
X60568Y18832D01*
X60619Y18773D01*
X60666Y18713D01*
X60710Y18650D01*
X60751Y18585D01*
X60789Y18518D01*
X60824Y18450D01*
X60855Y18379D01*
X60882Y18308D01*
X60907Y18235D01*
X60927Y18161D01*
X60944Y18086D01*
X60957Y18010D01*
X60966Y17934D01*
X60972Y17857D01*
X60974Y17780D01*
X60974Y13081D01*
X69991Y20391D02*
X72601Y22479D01*
X72601Y13081D01*
X69991Y13081D02*
X75212Y13081D01*
X78741Y13081D02*
X78741Y13603D01*
X79263Y13603D01*
X79263Y13081D01*
X78741Y13081D01*
X82792Y17780D02*
X82794Y17965D01*
X82801Y18150D01*
X82812Y18334D01*
X82827Y18518D01*
X82847Y18702D01*
X82871Y18886D01*
X82900Y19068D01*
X82933Y19250D01*
X82970Y19431D01*
X83012Y19611D01*
X83058Y19791D01*
X83108Y19969D01*
X83162Y20145D01*
X83221Y20321D01*
X83283Y20495D01*
X83350Y20667D01*
X83421Y20838D01*
X83496Y21007D01*
X83575Y21174D01*
X83605Y21254D01*
X83638Y21333D01*
X83675Y21410D01*
X83715Y21486D01*
X83758Y21560D01*
X83804Y21632D01*
X83854Y21701D01*
X83906Y21769D01*
X83962Y21834D01*
X84020Y21897D01*
X84082Y21956D01*
X84145Y22014D01*
X84212Y22068D01*
X84280Y22119D01*
X84351Y22167D01*
X84424Y22212D01*
X84498Y22254D01*
X84575Y22292D01*
X84653Y22327D01*
X84732Y22359D01*
X84813Y22387D01*
X84895Y22411D01*
X84979Y22432D01*
X85062Y22449D01*
X85147Y22462D01*
X85232Y22471D01*
X85317Y22477D01*
X85403Y22479D01*
X85489Y22477D01*
X85574Y22471D01*
X85659Y22462D01*
X85744Y22449D01*
X85827Y22432D01*
X85911Y22411D01*
X85993Y22387D01*
X86074Y22359D01*
X86153Y22327D01*
X86231Y22292D01*
X86308Y22254D01*
X86382Y22212D01*
X86455Y22167D01*
X86526Y22119D01*
X86594Y22068D01*
X86661Y22014D01*
X86724Y21956D01*
X86786Y21897D01*
X86844Y21834D01*
X86900Y21769D01*
X86952Y21701D01*
X87002Y21632D01*
X87048Y21560D01*
X87091Y21486D01*
X87131Y21410D01*
X87168Y21333D01*
X87201Y21254D01*
X87231Y21174D01*
X87310Y21007D01*
X87385Y20838D01*
X87456Y20667D01*
X87523Y20495D01*
X87585Y20321D01*
X87644Y20145D01*
X87698Y19969D01*
X87748Y19791D01*
X87794Y19611D01*
X87836Y19431D01*
X87873Y19250D01*
X87906Y19068D01*
X87935Y18886D01*
X87959Y18702D01*
X87979Y18518D01*
X87994Y18334D01*
X88005Y18150D01*
X88012Y17965D01*
X88014Y17780D01*
X82792Y17780D02*
X82794Y17595D01*
X82801Y17410D01*
X82812Y17226D01*
X82827Y17042D01*
X82847Y16858D01*
X82871Y16674D01*
X82900Y16492D01*
X82933Y16310D01*
X82970Y16129D01*
X83012Y15949D01*
X83058Y15769D01*
X83108Y15591D01*
X83162Y15415D01*
X83221Y15239D01*
X83283Y15065D01*
X83350Y14893D01*
X83421Y14722D01*
X83496Y14553D01*
X83575Y14386D01*
X83605Y14306D01*
X83638Y14227D01*
X83675Y14150D01*
X83715Y14074D01*
X83758Y14000D01*
X83804Y13928D01*
X83854Y13859D01*
X83907Y13791D01*
X83962Y13726D01*
X84021Y13663D01*
X84082Y13604D01*
X84145Y13546D01*
X84212Y13492D01*
X84280Y13441D01*
X84351Y13393D01*
X84424Y13348D01*
X84498Y13306D01*
X84575Y13268D01*
X84653Y13233D01*
X84732Y13201D01*
X84813Y13173D01*
X84895Y13149D01*
X84979Y13128D01*
X85062Y13111D01*
X85147Y13098D01*
X85232Y13089D01*
X85317Y13083D01*
X85403Y13081D01*
X87231Y14386D02*
X87310Y14553D01*
X87385Y14722D01*
X87456Y14893D01*
X87523Y15065D01*
X87585Y15239D01*
X87644Y15415D01*
X87698Y15591D01*
X87748Y15769D01*
X87794Y15949D01*
X87836Y16129D01*
X87873Y16310D01*
X87906Y16492D01*
X87935Y16674D01*
X87959Y16858D01*
X87979Y17042D01*
X87994Y17226D01*
X88005Y17410D01*
X88012Y17595D01*
X88014Y17780D01*
X87231Y14386D02*
X87201Y14306D01*
X87168Y14227D01*
X87131Y14150D01*
X87091Y14074D01*
X87048Y14000D01*
X87002Y13928D01*
X86952Y13859D01*
X86900Y13791D01*
X86844Y13726D01*
X86786Y13663D01*
X86724Y13604D01*
X86661Y13546D01*
X86594Y13492D01*
X86526Y13441D01*
X86455Y13393D01*
X86382Y13348D01*
X86308Y13306D01*
X86231Y13268D01*
X86153Y13233D01*
X86074Y13201D01*
X85993Y13173D01*
X85911Y13149D01*
X85827Y13128D01*
X85744Y13111D01*
X85659Y13098D01*
X85574Y13089D01*
X85489Y13083D01*
X85403Y13081D01*
X83314Y15169D02*
X87491Y20391D01*
D15*
X287150Y94775D02*
X287150Y108425D01*
X287150Y70325D02*
X287150Y56675D01*
D16*
X184000Y392700D02*
X191500Y400200D01*
X321500Y400200D01*
X324000Y397700D01*
X324000Y262700D01*
X321500Y260200D01*
X186500Y260200D01*
X184000Y262700D01*
X184000Y392700D01*
X191501Y390200D02*
X191503Y390299D01*
X191509Y390399D01*
X191519Y390497D01*
X191533Y390596D01*
X191550Y390694D01*
X191572Y390791D01*
X191597Y390887D01*
X191626Y390982D01*
X191659Y391075D01*
X191696Y391168D01*
X191736Y391259D01*
X191780Y391348D01*
X191828Y391435D01*
X191878Y391521D01*
X191933Y391604D01*
X191990Y391685D01*
X192051Y391764D01*
X192114Y391840D01*
X192181Y391914D01*
X192251Y391985D01*
X192323Y392053D01*
X192398Y392118D01*
X192475Y392180D01*
X192555Y392239D01*
X192638Y392295D01*
X192722Y392347D01*
X192808Y392397D01*
X192897Y392442D01*
X192987Y392484D01*
X193078Y392523D01*
X193171Y392558D01*
X193266Y392589D01*
X193361Y392616D01*
X193458Y392639D01*
X193555Y392659D01*
X193653Y392675D01*
X193752Y392687D01*
X193851Y392695D01*
X193950Y392699D01*
X194050Y392699D01*
X194149Y392695D01*
X194248Y392687D01*
X194347Y392675D01*
X194445Y392659D01*
X194542Y392639D01*
X194639Y392616D01*
X194734Y392589D01*
X194829Y392558D01*
X194922Y392523D01*
X195013Y392484D01*
X195103Y392442D01*
X195192Y392397D01*
X195278Y392347D01*
X195362Y392295D01*
X195445Y392239D01*
X195525Y392180D01*
X195602Y392118D01*
X195677Y392053D01*
X195749Y391985D01*
X195819Y391914D01*
X195886Y391840D01*
X195949Y391764D01*
X196010Y391685D01*
X196067Y391604D01*
X196122Y391521D01*
X196172Y391435D01*
X196220Y391348D01*
X196264Y391259D01*
X196304Y391168D01*
X196341Y391075D01*
X196374Y390982D01*
X196403Y390887D01*
X196428Y390791D01*
X196450Y390694D01*
X196467Y390596D01*
X196481Y390497D01*
X196491Y390399D01*
X196497Y390299D01*
X196499Y390200D01*
X196497Y390101D01*
X196491Y390001D01*
X196481Y389903D01*
X196467Y389804D01*
X196450Y389706D01*
X196428Y389609D01*
X196403Y389513D01*
X196374Y389418D01*
X196341Y389325D01*
X196304Y389232D01*
X196264Y389141D01*
X196220Y389052D01*
X196172Y388965D01*
X196122Y388879D01*
X196067Y388796D01*
X196010Y388715D01*
X195949Y388636D01*
X195886Y388560D01*
X195819Y388486D01*
X195749Y388415D01*
X195677Y388347D01*
X195602Y388282D01*
X195525Y388220D01*
X195445Y388161D01*
X195362Y388105D01*
X195278Y388053D01*
X195192Y388003D01*
X195103Y387958D01*
X195013Y387916D01*
X194922Y387877D01*
X194829Y387842D01*
X194734Y387811D01*
X194639Y387784D01*
X194542Y387761D01*
X194445Y387741D01*
X194347Y387725D01*
X194248Y387713D01*
X194149Y387705D01*
X194050Y387701D01*
X193950Y387701D01*
X193851Y387705D01*
X193752Y387713D01*
X193653Y387725D01*
X193555Y387741D01*
X193458Y387761D01*
X193361Y387784D01*
X193266Y387811D01*
X193171Y387842D01*
X193078Y387877D01*
X192987Y387916D01*
X192897Y387958D01*
X192808Y388003D01*
X192722Y388053D01*
X192638Y388105D01*
X192555Y388161D01*
X192475Y388220D01*
X192398Y388282D01*
X192323Y388347D01*
X192251Y388415D01*
X192181Y388486D01*
X192114Y388560D01*
X192051Y388636D01*
X191990Y388715D01*
X191933Y388796D01*
X191878Y388879D01*
X191828Y388965D01*
X191780Y389052D01*
X191736Y389141D01*
X191696Y389232D01*
X191659Y389325D01*
X191626Y389418D01*
X191597Y389513D01*
X191572Y389609D01*
X191550Y389706D01*
X191533Y389804D01*
X191519Y389903D01*
X191509Y390001D01*
X191503Y390101D01*
X191501Y390200D01*
D12*
X502666Y191516D02*
X526034Y191516D01*
X526034Y240284D02*
X517398Y240284D01*
X511302Y240284D01*
X502666Y240284D01*
X502666Y58166D02*
X526034Y58166D01*
X526034Y106934D02*
X517398Y106934D01*
X511302Y106934D01*
X502666Y106934D01*
D15*
X42800Y339400D02*
X4800Y339400D01*
X4800Y219400D02*
X42800Y219400D01*
X84800Y219400D02*
X123800Y219400D01*
X123800Y339400D01*
X84800Y339400D01*
X57150Y419100D02*
X50800Y425450D01*
X69850Y419100D02*
X76200Y425450D01*
X82550Y419100D01*
X95250Y419100D02*
X101600Y425450D01*
X107950Y419100D01*
X120650Y419100D02*
X127000Y425450D01*
X50800Y425450D02*
X50800Y463550D01*
X57150Y469900D01*
X69850Y469900D01*
X76200Y463550D01*
X82550Y469900D01*
X95250Y469900D01*
X101600Y463550D01*
X107950Y469900D01*
X120650Y469900D01*
X127000Y463550D01*
X76200Y463550D02*
X76200Y425450D01*
X101600Y425450D02*
X101600Y463550D01*
X127000Y463550D02*
X127000Y425450D01*
X120650Y419100D02*
X107950Y419100D01*
X95250Y419100D02*
X82550Y419100D01*
X69850Y419100D02*
X57150Y419100D01*
X57150Y415750D02*
X69850Y415750D01*
X176944Y98850D02*
X176946Y98964D01*
X176952Y99077D01*
X176962Y99190D01*
X176976Y99303D01*
X176993Y99415D01*
X177015Y99527D01*
X177041Y99638D01*
X177070Y99747D01*
X177103Y99856D01*
X177140Y99964D01*
X177181Y100070D01*
X177225Y100174D01*
X177274Y100277D01*
X177325Y100379D01*
X177380Y100478D01*
X177439Y100575D01*
X177501Y100671D01*
X177566Y100764D01*
X177634Y100855D01*
X177706Y100943D01*
X177780Y101029D01*
X177858Y101112D01*
X177938Y101192D01*
X178021Y101270D01*
X178107Y101344D01*
X178195Y101416D01*
X178286Y101484D01*
X178379Y101549D01*
X178475Y101611D01*
X178572Y101670D01*
X178671Y101725D01*
X178773Y101776D01*
X178876Y101825D01*
X178980Y101869D01*
X179086Y101910D01*
X179194Y101947D01*
X179303Y101980D01*
X179412Y102009D01*
X179523Y102035D01*
X179635Y102057D01*
X179747Y102074D01*
X179860Y102088D01*
X179973Y102098D01*
X180086Y102104D01*
X180200Y102106D01*
X180314Y102104D01*
X180427Y102098D01*
X180540Y102088D01*
X180653Y102074D01*
X180765Y102057D01*
X180877Y102035D01*
X180988Y102009D01*
X181097Y101980D01*
X181206Y101947D01*
X181314Y101910D01*
X181420Y101869D01*
X181524Y101825D01*
X181627Y101776D01*
X181729Y101725D01*
X181828Y101670D01*
X181925Y101611D01*
X182021Y101549D01*
X182114Y101484D01*
X182205Y101416D01*
X182293Y101344D01*
X182379Y101270D01*
X182462Y101192D01*
X182542Y101112D01*
X182620Y101029D01*
X182694Y100943D01*
X182766Y100855D01*
X182834Y100764D01*
X182899Y100671D01*
X182961Y100575D01*
X183020Y100478D01*
X183075Y100379D01*
X183126Y100277D01*
X183175Y100174D01*
X183219Y100070D01*
X183260Y99964D01*
X183297Y99856D01*
X183330Y99747D01*
X183359Y99638D01*
X183385Y99527D01*
X183407Y99415D01*
X183424Y99303D01*
X183438Y99190D01*
X183448Y99077D01*
X183454Y98964D01*
X183456Y98850D01*
X183454Y98736D01*
X183448Y98623D01*
X183438Y98510D01*
X183424Y98397D01*
X183407Y98285D01*
X183385Y98173D01*
X183359Y98062D01*
X183330Y97953D01*
X183297Y97844D01*
X183260Y97736D01*
X183219Y97630D01*
X183175Y97526D01*
X183126Y97423D01*
X183075Y97321D01*
X183020Y97222D01*
X182961Y97125D01*
X182899Y97029D01*
X182834Y96936D01*
X182766Y96845D01*
X182694Y96757D01*
X182620Y96671D01*
X182542Y96588D01*
X182462Y96508D01*
X182379Y96430D01*
X182293Y96356D01*
X182205Y96284D01*
X182114Y96216D01*
X182021Y96151D01*
X181925Y96089D01*
X181828Y96030D01*
X181729Y95975D01*
X181627Y95924D01*
X181524Y95875D01*
X181420Y95831D01*
X181314Y95790D01*
X181206Y95753D01*
X181097Y95720D01*
X180988Y95691D01*
X180877Y95665D01*
X180765Y95643D01*
X180653Y95626D01*
X180540Y95612D01*
X180427Y95602D01*
X180314Y95596D01*
X180200Y95594D01*
X180086Y95596D01*
X179973Y95602D01*
X179860Y95612D01*
X179747Y95626D01*
X179635Y95643D01*
X179523Y95665D01*
X179412Y95691D01*
X179303Y95720D01*
X179194Y95753D01*
X179086Y95790D01*
X178980Y95831D01*
X178876Y95875D01*
X178773Y95924D01*
X178671Y95975D01*
X178572Y96030D01*
X178475Y96089D01*
X178379Y96151D01*
X178286Y96216D01*
X178195Y96284D01*
X178107Y96356D01*
X178021Y96430D01*
X177938Y96508D01*
X177858Y96588D01*
X177780Y96671D01*
X177706Y96757D01*
X177634Y96845D01*
X177566Y96936D01*
X177501Y97029D01*
X177439Y97125D01*
X177380Y97222D01*
X177325Y97321D01*
X177274Y97423D01*
X177225Y97526D01*
X177181Y97630D01*
X177140Y97736D01*
X177103Y97844D01*
X177070Y97953D01*
X177041Y98062D01*
X177015Y98173D01*
X176993Y98285D01*
X176976Y98397D01*
X176962Y98510D01*
X176952Y98623D01*
X176946Y98736D01*
X176944Y98850D01*
D17*
X60960Y118110D02*
X60960Y59690D01*
X15240Y59690D02*
X15240Y118110D01*
D12*
X55880Y118110D02*
X55880Y59690D01*
X20320Y59690D02*
X20320Y118110D01*
X20325Y118543D01*
X20341Y118976D01*
X20367Y119408D01*
X20404Y119839D01*
X20452Y120270D01*
X20509Y120699D01*
X20578Y121126D01*
X20656Y121552D01*
X20745Y121976D01*
X20845Y122397D01*
X20954Y122816D01*
X21074Y123232D01*
X21204Y123645D01*
X21343Y124055D01*
X21493Y124462D01*
X21653Y124864D01*
X21822Y125263D01*
X22001Y125657D01*
X22190Y126047D01*
X22388Y126432D01*
X22595Y126812D01*
X22811Y127187D01*
X23037Y127556D01*
X23272Y127920D01*
X23515Y128279D01*
X23767Y128631D01*
X24027Y128977D01*
X24296Y129316D01*
X24573Y129649D01*
X24858Y129975D01*
X25151Y130294D01*
X25451Y130606D01*
X25759Y130910D01*
X26075Y131207D01*
X26397Y131496D01*
X26727Y131777D01*
X27063Y132049D01*
X27405Y132314D01*
X27755Y132570D01*
X28110Y132818D01*
X28471Y133057D01*
X28838Y133287D01*
X29210Y133508D01*
X29588Y133720D01*
X29970Y133923D01*
X30358Y134116D01*
X30750Y134300D01*
X31146Y134474D01*
X31547Y134638D01*
X31951Y134793D01*
X32359Y134938D01*
X32771Y135073D01*
X33185Y135197D01*
X33603Y135312D01*
X34023Y135416D01*
X34446Y135510D01*
X34870Y135594D01*
X35297Y135668D01*
X35726Y135731D01*
X36155Y135783D01*
X36586Y135825D01*
X37018Y135857D01*
X37451Y135878D01*
X37884Y135889D01*
X38316Y135889D01*
X38749Y135878D01*
X39182Y135857D01*
X39614Y135825D01*
X40045Y135783D01*
X40474Y135731D01*
X40903Y135668D01*
X41330Y135594D01*
X41754Y135510D01*
X42177Y135416D01*
X42597Y135312D01*
X43015Y135197D01*
X43429Y135073D01*
X43841Y134938D01*
X44249Y134793D01*
X44653Y134638D01*
X45054Y134474D01*
X45450Y134300D01*
X45842Y134116D01*
X46230Y133923D01*
X46612Y133720D01*
X46990Y133508D01*
X47362Y133287D01*
X47729Y133057D01*
X48090Y132818D01*
X48445Y132570D01*
X48795Y132314D01*
X49137Y132049D01*
X49473Y131777D01*
X49803Y131496D01*
X50125Y131207D01*
X50441Y130910D01*
X50749Y130606D01*
X51049Y130294D01*
X51342Y129975D01*
X51627Y129649D01*
X51904Y129316D01*
X52173Y128977D01*
X52433Y128631D01*
X52685Y128279D01*
X52928Y127920D01*
X53163Y127556D01*
X53389Y127187D01*
X53605Y126812D01*
X53812Y126432D01*
X54010Y126047D01*
X54199Y125657D01*
X54378Y125263D01*
X54547Y124864D01*
X54707Y124462D01*
X54857Y124055D01*
X54996Y123645D01*
X55126Y123232D01*
X55246Y122816D01*
X55355Y122397D01*
X55455Y121976D01*
X55544Y121552D01*
X55622Y121126D01*
X55691Y120699D01*
X55748Y120270D01*
X55796Y119839D01*
X55833Y119408D01*
X55859Y118976D01*
X55875Y118543D01*
X55880Y118110D01*
D17*
X60960Y118110D02*
X60953Y118667D01*
X60933Y119223D01*
X60899Y119779D01*
X60852Y120333D01*
X60791Y120887D01*
X60716Y121438D01*
X60629Y121988D01*
X60528Y122536D01*
X60413Y123080D01*
X60285Y123622D01*
X60145Y124161D01*
X59991Y124696D01*
X59824Y125227D01*
X59644Y125754D01*
X59452Y126276D01*
X59246Y126794D01*
X59029Y127306D01*
X58799Y127813D01*
X58556Y128314D01*
X58302Y128809D01*
X58035Y129298D01*
X57757Y129780D01*
X57467Y130255D01*
X57165Y130723D01*
X56852Y131184D01*
X56528Y131637D01*
X56194Y132081D01*
X55848Y132518D01*
X55492Y132946D01*
X55125Y133365D01*
X54749Y133775D01*
X54363Y134176D01*
X53967Y134567D01*
X53561Y134948D01*
X53146Y135320D01*
X52723Y135681D01*
X52291Y136032D01*
X51850Y136372D01*
X51401Y136702D01*
X50945Y137020D01*
X50480Y137327D01*
X50009Y137623D01*
X49530Y137907D01*
X49045Y138180D01*
X48553Y138440D01*
X48054Y138689D01*
X47550Y138925D01*
X47041Y139149D01*
X46526Y139361D01*
X46006Y139559D01*
X45481Y139746D01*
X44952Y139919D01*
X44419Y140079D01*
X43882Y140227D01*
X43342Y140361D01*
X42798Y140482D01*
X42252Y140590D01*
X41704Y140684D01*
X41153Y140765D01*
X40600Y140833D01*
X40046Y140887D01*
X39491Y140928D01*
X38935Y140955D01*
X38378Y140968D01*
X37822Y140968D01*
X37265Y140955D01*
X36709Y140928D01*
X36154Y140887D01*
X35600Y140833D01*
X35047Y140765D01*
X34496Y140684D01*
X33948Y140590D01*
X33402Y140482D01*
X32858Y140361D01*
X32318Y140227D01*
X31781Y140079D01*
X31248Y139919D01*
X30719Y139746D01*
X30194Y139559D01*
X29674Y139361D01*
X29159Y139149D01*
X28650Y138925D01*
X28146Y138689D01*
X27647Y138440D01*
X27155Y138180D01*
X26670Y137907D01*
X26191Y137623D01*
X25720Y137327D01*
X25255Y137020D01*
X24799Y136702D01*
X24350Y136372D01*
X23909Y136032D01*
X23477Y135681D01*
X23054Y135320D01*
X22639Y134948D01*
X22233Y134567D01*
X21837Y134176D01*
X21451Y133775D01*
X21075Y133365D01*
X20708Y132946D01*
X20352Y132518D01*
X20006Y132081D01*
X19672Y131637D01*
X19348Y131184D01*
X19035Y130723D01*
X18733Y130255D01*
X18443Y129780D01*
X18165Y129298D01*
X17898Y128809D01*
X17644Y128314D01*
X17401Y127813D01*
X17171Y127306D01*
X16954Y126794D01*
X16748Y126276D01*
X16556Y125754D01*
X16376Y125227D01*
X16209Y124696D01*
X16055Y124161D01*
X15915Y123622D01*
X15787Y123080D01*
X15672Y122536D01*
X15571Y121988D01*
X15484Y121438D01*
X15409Y120887D01*
X15348Y120333D01*
X15301Y119779D01*
X15267Y119223D01*
X15247Y118667D01*
X15240Y118110D01*
X15240Y59690D02*
X15247Y59133D01*
X15267Y58577D01*
X15301Y58021D01*
X15348Y57467D01*
X15409Y56913D01*
X15484Y56362D01*
X15571Y55812D01*
X15672Y55264D01*
X15787Y54720D01*
X15915Y54178D01*
X16055Y53639D01*
X16209Y53104D01*
X16376Y52573D01*
X16556Y52046D01*
X16748Y51524D01*
X16954Y51006D01*
X17171Y50494D01*
X17401Y49987D01*
X17644Y49486D01*
X17898Y48991D01*
X18165Y48502D01*
X18443Y48020D01*
X18733Y47545D01*
X19035Y47077D01*
X19348Y46616D01*
X19672Y46163D01*
X20006Y45719D01*
X20352Y45282D01*
X20708Y44854D01*
X21075Y44435D01*
X21451Y44025D01*
X21837Y43624D01*
X22233Y43233D01*
X22639Y42852D01*
X23054Y42480D01*
X23477Y42119D01*
X23909Y41768D01*
X24350Y41428D01*
X24799Y41098D01*
X25255Y40780D01*
X25720Y40473D01*
X26191Y40177D01*
X26670Y39893D01*
X27155Y39620D01*
X27647Y39360D01*
X28146Y39111D01*
X28650Y38875D01*
X29159Y38651D01*
X29674Y38439D01*
X30194Y38241D01*
X30719Y38054D01*
X31248Y37881D01*
X31781Y37721D01*
X32318Y37573D01*
X32858Y37439D01*
X33402Y37318D01*
X33948Y37210D01*
X34496Y37116D01*
X35047Y37035D01*
X35600Y36967D01*
X36154Y36913D01*
X36709Y36872D01*
X37265Y36845D01*
X37822Y36832D01*
X38378Y36832D01*
X38935Y36845D01*
X39491Y36872D01*
X40046Y36913D01*
X40600Y36967D01*
X41153Y37035D01*
X41704Y37116D01*
X42252Y37210D01*
X42798Y37318D01*
X43342Y37439D01*
X43882Y37573D01*
X44419Y37721D01*
X44952Y37881D01*
X45481Y38054D01*
X46006Y38241D01*
X46526Y38439D01*
X47041Y38651D01*
X47550Y38875D01*
X48054Y39111D01*
X48553Y39360D01*
X49045Y39620D01*
X49530Y39893D01*
X50009Y40177D01*
X50480Y40473D01*
X50945Y40780D01*
X51401Y41098D01*
X51850Y41428D01*
X52291Y41768D01*
X52723Y42119D01*
X53146Y42480D01*
X53561Y42852D01*
X53967Y43233D01*
X54363Y43624D01*
X54749Y44025D01*
X55125Y44435D01*
X55492Y44854D01*
X55848Y45282D01*
X56194Y45719D01*
X56528Y46163D01*
X56852Y46616D01*
X57165Y47077D01*
X57467Y47545D01*
X57757Y48020D01*
X58035Y48502D01*
X58302Y48991D01*
X58556Y49486D01*
X58799Y49987D01*
X59029Y50494D01*
X59246Y51006D01*
X59452Y51524D01*
X59644Y52046D01*
X59824Y52573D01*
X59991Y53104D01*
X60145Y53639D01*
X60285Y54178D01*
X60413Y54720D01*
X60528Y55264D01*
X60629Y55812D01*
X60716Y56362D01*
X60791Y56913D01*
X60852Y57467D01*
X60899Y58021D01*
X60933Y58577D01*
X60953Y59133D01*
X60960Y59690D01*
D12*
X55880Y59690D02*
X55875Y59257D01*
X55859Y58824D01*
X55833Y58392D01*
X55796Y57961D01*
X55748Y57530D01*
X55691Y57101D01*
X55622Y56674D01*
X55544Y56248D01*
X55455Y55824D01*
X55355Y55403D01*
X55246Y54984D01*
X55126Y54568D01*
X54996Y54155D01*
X54857Y53745D01*
X54707Y53338D01*
X54547Y52936D01*
X54378Y52537D01*
X54199Y52143D01*
X54010Y51753D01*
X53812Y51368D01*
X53605Y50988D01*
X53389Y50613D01*
X53163Y50244D01*
X52928Y49880D01*
X52685Y49521D01*
X52433Y49169D01*
X52173Y48823D01*
X51904Y48484D01*
X51627Y48151D01*
X51342Y47825D01*
X51049Y47506D01*
X50749Y47194D01*
X50441Y46890D01*
X50125Y46593D01*
X49803Y46304D01*
X49473Y46023D01*
X49137Y45751D01*
X48795Y45486D01*
X48445Y45230D01*
X48090Y44982D01*
X47729Y44743D01*
X47362Y44513D01*
X46990Y44292D01*
X46612Y44080D01*
X46230Y43877D01*
X45842Y43684D01*
X45450Y43500D01*
X45054Y43326D01*
X44653Y43162D01*
X44249Y43007D01*
X43841Y42862D01*
X43429Y42727D01*
X43015Y42603D01*
X42597Y42488D01*
X42177Y42384D01*
X41754Y42290D01*
X41330Y42206D01*
X40903Y42132D01*
X40474Y42069D01*
X40045Y42017D01*
X39614Y41975D01*
X39182Y41943D01*
X38749Y41922D01*
X38316Y41911D01*
X37884Y41911D01*
X37451Y41922D01*
X37018Y41943D01*
X36586Y41975D01*
X36155Y42017D01*
X35726Y42069D01*
X35297Y42132D01*
X34870Y42206D01*
X34446Y42290D01*
X34023Y42384D01*
X33603Y42488D01*
X33185Y42603D01*
X32771Y42727D01*
X32359Y42862D01*
X31951Y43007D01*
X31547Y43162D01*
X31146Y43326D01*
X30750Y43500D01*
X30358Y43684D01*
X29970Y43877D01*
X29588Y44080D01*
X29210Y44292D01*
X28838Y44513D01*
X28471Y44743D01*
X28110Y44982D01*
X27755Y45230D01*
X27405Y45486D01*
X27063Y45751D01*
X26727Y46023D01*
X26397Y46304D01*
X26075Y46593D01*
X25759Y46890D01*
X25451Y47194D01*
X25151Y47506D01*
X24858Y47825D01*
X24573Y48151D01*
X24296Y48484D01*
X24027Y48823D01*
X23767Y49169D01*
X23515Y49521D01*
X23272Y49880D01*
X23037Y50244D01*
X22811Y50613D01*
X22595Y50988D01*
X22388Y51368D01*
X22190Y51753D01*
X22001Y52143D01*
X21822Y52537D01*
X21653Y52936D01*
X21493Y53338D01*
X21343Y53745D01*
X21204Y54155D01*
X21074Y54568D01*
X20954Y54984D01*
X20845Y55403D01*
X20745Y55824D01*
X20656Y56248D01*
X20578Y56674D01*
X20509Y57101D01*
X20452Y57530D01*
X20404Y57961D01*
X20367Y58392D01*
X20341Y58824D01*
X20325Y59257D01*
X20320Y59690D01*
X29210Y86360D02*
X29210Y91440D01*
X46990Y91440D01*
X46990Y86360D01*
X29210Y86360D01*
X29210Y95250D02*
X38100Y95250D01*
X46990Y95250D01*
X38100Y82550D02*
X29210Y82550D01*
X38100Y82550D02*
X46990Y82550D01*
X38100Y95250D02*
X38100Y101600D01*
X38100Y82550D02*
X38100Y76200D01*
D17*
X250190Y180340D02*
X308610Y180340D01*
X308610Y226060D02*
X250190Y226060D01*
D12*
X250190Y185420D02*
X308610Y185420D01*
X308610Y220980D02*
X250190Y220980D01*
X308610Y220980D02*
X309043Y220975D01*
X309476Y220959D01*
X309908Y220933D01*
X310339Y220896D01*
X310770Y220848D01*
X311199Y220791D01*
X311626Y220722D01*
X312052Y220644D01*
X312476Y220555D01*
X312897Y220455D01*
X313316Y220346D01*
X313732Y220226D01*
X314145Y220096D01*
X314555Y219957D01*
X314962Y219807D01*
X315364Y219647D01*
X315763Y219478D01*
X316157Y219299D01*
X316547Y219110D01*
X316932Y218912D01*
X317312Y218705D01*
X317687Y218489D01*
X318056Y218263D01*
X318420Y218028D01*
X318779Y217785D01*
X319131Y217533D01*
X319477Y217273D01*
X319816Y217004D01*
X320149Y216727D01*
X320475Y216442D01*
X320794Y216149D01*
X321106Y215849D01*
X321410Y215541D01*
X321707Y215225D01*
X321996Y214903D01*
X322277Y214573D01*
X322549Y214237D01*
X322814Y213895D01*
X323070Y213545D01*
X323318Y213190D01*
X323557Y212829D01*
X323787Y212462D01*
X324008Y212090D01*
X324220Y211712D01*
X324423Y211330D01*
X324616Y210942D01*
X324800Y210550D01*
X324974Y210154D01*
X325138Y209753D01*
X325293Y209349D01*
X325438Y208941D01*
X325573Y208529D01*
X325697Y208115D01*
X325812Y207697D01*
X325916Y207277D01*
X326010Y206854D01*
X326094Y206430D01*
X326168Y206003D01*
X326231Y205574D01*
X326283Y205145D01*
X326325Y204714D01*
X326357Y204282D01*
X326378Y203849D01*
X326389Y203416D01*
X326389Y202984D01*
X326378Y202551D01*
X326357Y202118D01*
X326325Y201686D01*
X326283Y201255D01*
X326231Y200826D01*
X326168Y200397D01*
X326094Y199970D01*
X326010Y199546D01*
X325916Y199123D01*
X325812Y198703D01*
X325697Y198285D01*
X325573Y197871D01*
X325438Y197459D01*
X325293Y197051D01*
X325138Y196647D01*
X324974Y196246D01*
X324800Y195850D01*
X324616Y195458D01*
X324423Y195070D01*
X324220Y194688D01*
X324008Y194310D01*
X323787Y193938D01*
X323557Y193571D01*
X323318Y193210D01*
X323070Y192855D01*
X322814Y192505D01*
X322549Y192163D01*
X322277Y191827D01*
X321996Y191497D01*
X321707Y191175D01*
X321410Y190859D01*
X321106Y190551D01*
X320794Y190251D01*
X320475Y189958D01*
X320149Y189673D01*
X319816Y189396D01*
X319477Y189127D01*
X319131Y188867D01*
X318779Y188615D01*
X318420Y188372D01*
X318056Y188137D01*
X317687Y187911D01*
X317312Y187695D01*
X316932Y187488D01*
X316547Y187290D01*
X316157Y187101D01*
X315763Y186922D01*
X315364Y186753D01*
X314962Y186593D01*
X314555Y186443D01*
X314145Y186304D01*
X313732Y186174D01*
X313316Y186054D01*
X312897Y185945D01*
X312476Y185845D01*
X312052Y185756D01*
X311626Y185678D01*
X311199Y185609D01*
X310770Y185552D01*
X310339Y185504D01*
X309908Y185467D01*
X309476Y185441D01*
X309043Y185425D01*
X308610Y185420D01*
D17*
X308610Y180340D02*
X309167Y180347D01*
X309723Y180367D01*
X310279Y180401D01*
X310833Y180448D01*
X311387Y180509D01*
X311938Y180584D01*
X312488Y180671D01*
X313036Y180772D01*
X313580Y180887D01*
X314122Y181015D01*
X314661Y181155D01*
X315196Y181309D01*
X315727Y181476D01*
X316254Y181656D01*
X316776Y181848D01*
X317294Y182054D01*
X317806Y182271D01*
X318313Y182501D01*
X318814Y182744D01*
X319309Y182998D01*
X319798Y183265D01*
X320280Y183543D01*
X320755Y183833D01*
X321223Y184135D01*
X321684Y184448D01*
X322137Y184772D01*
X322581Y185106D01*
X323018Y185452D01*
X323446Y185808D01*
X323865Y186175D01*
X324275Y186551D01*
X324676Y186937D01*
X325067Y187333D01*
X325448Y187739D01*
X325820Y188154D01*
X326181Y188577D01*
X326532Y189009D01*
X326872Y189450D01*
X327202Y189899D01*
X327520Y190355D01*
X327827Y190820D01*
X328123Y191291D01*
X328407Y191770D01*
X328680Y192255D01*
X328940Y192747D01*
X329189Y193246D01*
X329425Y193750D01*
X329649Y194259D01*
X329861Y194774D01*
X330059Y195294D01*
X330246Y195819D01*
X330419Y196348D01*
X330579Y196881D01*
X330727Y197418D01*
X330861Y197958D01*
X330982Y198502D01*
X331090Y199048D01*
X331184Y199596D01*
X331265Y200147D01*
X331333Y200700D01*
X331387Y201254D01*
X331428Y201809D01*
X331455Y202365D01*
X331468Y202922D01*
X331468Y203478D01*
X331455Y204035D01*
X331428Y204591D01*
X331387Y205146D01*
X331333Y205700D01*
X331265Y206253D01*
X331184Y206804D01*
X331090Y207352D01*
X330982Y207898D01*
X330861Y208442D01*
X330727Y208982D01*
X330579Y209519D01*
X330419Y210052D01*
X330246Y210581D01*
X330059Y211106D01*
X329861Y211626D01*
X329649Y212141D01*
X329425Y212650D01*
X329189Y213154D01*
X328940Y213653D01*
X328680Y214145D01*
X328407Y214630D01*
X328123Y215109D01*
X327827Y215580D01*
X327520Y216045D01*
X327202Y216501D01*
X326872Y216950D01*
X326532Y217391D01*
X326181Y217823D01*
X325820Y218246D01*
X325448Y218661D01*
X325067Y219067D01*
X324676Y219463D01*
X324275Y219849D01*
X323865Y220225D01*
X323446Y220592D01*
X323018Y220948D01*
X322581Y221294D01*
X322137Y221628D01*
X321684Y221952D01*
X321223Y222265D01*
X320755Y222567D01*
X320280Y222857D01*
X319798Y223135D01*
X319309Y223402D01*
X318814Y223656D01*
X318313Y223899D01*
X317806Y224129D01*
X317294Y224346D01*
X316776Y224552D01*
X316254Y224744D01*
X315727Y224924D01*
X315196Y225091D01*
X314661Y225245D01*
X314122Y225385D01*
X313580Y225513D01*
X313036Y225628D01*
X312488Y225729D01*
X311938Y225816D01*
X311387Y225891D01*
X310833Y225952D01*
X310279Y225999D01*
X309723Y226033D01*
X309167Y226053D01*
X308610Y226060D01*
X250190Y226060D02*
X249633Y226053D01*
X249077Y226033D01*
X248521Y225999D01*
X247967Y225952D01*
X247413Y225891D01*
X246862Y225816D01*
X246312Y225729D01*
X245764Y225628D01*
X245220Y225513D01*
X244678Y225385D01*
X244139Y225245D01*
X243604Y225091D01*
X243073Y224924D01*
X242546Y224744D01*
X242024Y224552D01*
X241506Y224346D01*
X240994Y224129D01*
X240487Y223899D01*
X239986Y223656D01*
X239491Y223402D01*
X239002Y223135D01*
X238520Y222857D01*
X238045Y222567D01*
X237577Y222265D01*
X237116Y221952D01*
X236663Y221628D01*
X236219Y221294D01*
X235782Y220948D01*
X235354Y220592D01*
X234935Y220225D01*
X234525Y219849D01*
X234124Y219463D01*
X233733Y219067D01*
X233352Y218661D01*
X232980Y218246D01*
X232619Y217823D01*
X232268Y217391D01*
X231928Y216950D01*
X231598Y216501D01*
X231280Y216045D01*
X230973Y215580D01*
X230677Y215109D01*
X230393Y214630D01*
X230120Y214145D01*
X229860Y213653D01*
X229611Y213154D01*
X229375Y212650D01*
X229151Y212141D01*
X228939Y211626D01*
X228741Y211106D01*
X228554Y210581D01*
X228381Y210052D01*
X228221Y209519D01*
X228073Y208982D01*
X227939Y208442D01*
X227818Y207898D01*
X227710Y207352D01*
X227616Y206804D01*
X227535Y206253D01*
X227467Y205700D01*
X227413Y205146D01*
X227372Y204591D01*
X227345Y204035D01*
X227332Y203478D01*
X227332Y202922D01*
X227345Y202365D01*
X227372Y201809D01*
X227413Y201254D01*
X227467Y200700D01*
X227535Y200147D01*
X227616Y199596D01*
X227710Y199048D01*
X227818Y198502D01*
X227939Y197958D01*
X228073Y197418D01*
X228221Y196881D01*
X228381Y196348D01*
X228554Y195819D01*
X228741Y195294D01*
X228939Y194774D01*
X229151Y194259D01*
X229375Y193750D01*
X229611Y193246D01*
X229860Y192747D01*
X230120Y192255D01*
X230393Y191770D01*
X230677Y191291D01*
X230973Y190820D01*
X231280Y190355D01*
X231598Y189899D01*
X231928Y189450D01*
X232268Y189009D01*
X232619Y188577D01*
X232980Y188154D01*
X233352Y187739D01*
X233733Y187333D01*
X234124Y186937D01*
X234525Y186551D01*
X234935Y186175D01*
X235354Y185808D01*
X235782Y185452D01*
X236219Y185106D01*
X236663Y184772D01*
X237116Y184448D01*
X237577Y184135D01*
X238045Y183833D01*
X238520Y183543D01*
X239002Y183265D01*
X239491Y182998D01*
X239986Y182744D01*
X240487Y182501D01*
X240994Y182271D01*
X241506Y182054D01*
X242024Y181848D01*
X242546Y181656D01*
X243073Y181476D01*
X243604Y181309D01*
X244139Y181155D01*
X244678Y181015D01*
X245220Y180887D01*
X245764Y180772D01*
X246312Y180671D01*
X246862Y180584D01*
X247413Y180509D01*
X247967Y180448D01*
X248521Y180401D01*
X249077Y180367D01*
X249633Y180347D01*
X250190Y180340D01*
D12*
X250190Y185420D02*
X249757Y185425D01*
X249324Y185441D01*
X248892Y185467D01*
X248461Y185504D01*
X248030Y185552D01*
X247601Y185609D01*
X247174Y185678D01*
X246748Y185756D01*
X246324Y185845D01*
X245903Y185945D01*
X245484Y186054D01*
X245068Y186174D01*
X244655Y186304D01*
X244245Y186443D01*
X243838Y186593D01*
X243436Y186753D01*
X243037Y186922D01*
X242643Y187101D01*
X242253Y187290D01*
X241868Y187488D01*
X241488Y187695D01*
X241113Y187911D01*
X240744Y188137D01*
X240380Y188372D01*
X240021Y188615D01*
X239669Y188867D01*
X239323Y189127D01*
X238984Y189396D01*
X238651Y189673D01*
X238325Y189958D01*
X238006Y190251D01*
X237694Y190551D01*
X237390Y190859D01*
X237093Y191175D01*
X236804Y191497D01*
X236523Y191827D01*
X236251Y192163D01*
X235986Y192505D01*
X235730Y192855D01*
X235482Y193210D01*
X235243Y193571D01*
X235013Y193938D01*
X234792Y194310D01*
X234580Y194688D01*
X234377Y195070D01*
X234184Y195458D01*
X234000Y195850D01*
X233826Y196246D01*
X233662Y196647D01*
X233507Y197051D01*
X233362Y197459D01*
X233227Y197871D01*
X233103Y198285D01*
X232988Y198703D01*
X232884Y199123D01*
X232790Y199546D01*
X232706Y199970D01*
X232632Y200397D01*
X232569Y200826D01*
X232517Y201255D01*
X232475Y201686D01*
X232443Y202118D01*
X232422Y202551D01*
X232411Y202984D01*
X232411Y203416D01*
X232422Y203849D01*
X232443Y204282D01*
X232475Y204714D01*
X232517Y205145D01*
X232569Y205574D01*
X232632Y206003D01*
X232706Y206430D01*
X232790Y206854D01*
X232884Y207277D01*
X232988Y207697D01*
X233103Y208115D01*
X233227Y208529D01*
X233362Y208941D01*
X233507Y209349D01*
X233662Y209753D01*
X233826Y210154D01*
X234000Y210550D01*
X234184Y210942D01*
X234377Y211330D01*
X234580Y211712D01*
X234792Y212090D01*
X235013Y212462D01*
X235243Y212829D01*
X235482Y213190D01*
X235730Y213545D01*
X235986Y213895D01*
X236251Y214237D01*
X236523Y214573D01*
X236804Y214903D01*
X237093Y215225D01*
X237390Y215541D01*
X237694Y215849D01*
X238006Y216149D01*
X238325Y216442D01*
X238651Y216727D01*
X238984Y217004D01*
X239323Y217273D01*
X239669Y217533D01*
X240021Y217785D01*
X240380Y218028D01*
X240744Y218263D01*
X241113Y218489D01*
X241488Y218705D01*
X241868Y218912D01*
X242253Y219110D01*
X242643Y219299D01*
X243037Y219478D01*
X243436Y219647D01*
X243838Y219807D01*
X244245Y219957D01*
X244655Y220096D01*
X245068Y220226D01*
X245484Y220346D01*
X245903Y220455D01*
X246324Y220555D01*
X246748Y220644D01*
X247174Y220722D01*
X247601Y220791D01*
X248030Y220848D01*
X248461Y220896D01*
X248892Y220933D01*
X249324Y220959D01*
X249757Y220975D01*
X250190Y220980D01*
X276860Y212090D02*
X281940Y212090D01*
X281940Y194310D01*
X276860Y194310D01*
X276860Y212090D01*
X285750Y212090D02*
X285750Y203200D01*
X285750Y194310D01*
X273050Y203200D02*
X273050Y212090D01*
X273050Y203200D02*
X273050Y194310D01*
X285750Y203200D02*
X292100Y203200D01*
X273050Y203200D02*
X266700Y203200D01*
D16*
X774150Y245800D02*
X774150Y109800D01*
X774150Y245800D02*
X841150Y245800D01*
X852150Y245800D02*
X868150Y245800D01*
X868150Y109800D01*
X774150Y109800D01*
X841150Y245800D02*
X841152Y245948D01*
X841158Y246095D01*
X841168Y246243D01*
X841182Y246390D01*
X841199Y246536D01*
X841221Y246682D01*
X841247Y246828D01*
X841276Y246972D01*
X841310Y247116D01*
X841347Y247259D01*
X841388Y247401D01*
X841433Y247542D01*
X841482Y247681D01*
X841534Y247819D01*
X841590Y247956D01*
X841650Y248091D01*
X841713Y248224D01*
X841780Y248356D01*
X841850Y248486D01*
X841924Y248614D01*
X842001Y248740D01*
X842082Y248863D01*
X842166Y248985D01*
X842253Y249104D01*
X842343Y249221D01*
X842437Y249335D01*
X842533Y249447D01*
X842633Y249556D01*
X842735Y249663D01*
X842840Y249767D01*
X842948Y249867D01*
X843058Y249965D01*
X843172Y250060D01*
X843287Y250152D01*
X843405Y250241D01*
X843526Y250326D01*
X843648Y250409D01*
X843773Y250488D01*
X843900Y250563D01*
X844029Y250635D01*
X844160Y250704D01*
X844292Y250769D01*
X844426Y250830D01*
X844562Y250888D01*
X844700Y250943D01*
X844838Y250993D01*
X844979Y251040D01*
X845120Y251083D01*
X845262Y251122D01*
X845406Y251157D01*
X845550Y251189D01*
X845695Y251216D01*
X845841Y251240D01*
X845987Y251260D01*
X846134Y251276D01*
X846281Y251288D01*
X846429Y251296D01*
X846576Y251300D01*
X846724Y251300D01*
X846871Y251296D01*
X847019Y251288D01*
X847166Y251276D01*
X847313Y251260D01*
X847459Y251240D01*
X847605Y251216D01*
X847750Y251189D01*
X847894Y251157D01*
X848038Y251122D01*
X848180Y251083D01*
X848321Y251040D01*
X848462Y250993D01*
X848600Y250943D01*
X848738Y250888D01*
X848874Y250830D01*
X849008Y250769D01*
X849140Y250704D01*
X849271Y250635D01*
X849400Y250563D01*
X849527Y250488D01*
X849652Y250409D01*
X849774Y250326D01*
X849895Y250241D01*
X850013Y250152D01*
X850128Y250060D01*
X850242Y249965D01*
X850352Y249867D01*
X850460Y249767D01*
X850565Y249663D01*
X850667Y249556D01*
X850767Y249447D01*
X850863Y249335D01*
X850957Y249221D01*
X851047Y249104D01*
X851134Y248985D01*
X851218Y248863D01*
X851299Y248740D01*
X851376Y248614D01*
X851450Y248486D01*
X851520Y248356D01*
X851587Y248224D01*
X851650Y248091D01*
X851710Y247956D01*
X851766Y247819D01*
X851818Y247681D01*
X851867Y247542D01*
X851912Y247401D01*
X851953Y247259D01*
X851990Y247116D01*
X852024Y246972D01*
X852053Y246828D01*
X852079Y246682D01*
X852101Y246536D01*
X852118Y246390D01*
X852132Y246243D01*
X852142Y246095D01*
X852148Y245948D01*
X852150Y245800D01*
X767800Y303250D02*
X767800Y649250D01*
X834800Y649250D01*
X845800Y649250D02*
X861800Y649250D01*
X861800Y303250D01*
X767800Y303250D01*
X834800Y649250D02*
X834802Y649398D01*
X834808Y649545D01*
X834818Y649693D01*
X834832Y649840D01*
X834849Y649986D01*
X834871Y650132D01*
X834897Y650278D01*
X834926Y650422D01*
X834960Y650566D01*
X834997Y650709D01*
X835038Y650851D01*
X835083Y650992D01*
X835132Y651131D01*
X835184Y651269D01*
X835240Y651406D01*
X835300Y651541D01*
X835363Y651674D01*
X835430Y651806D01*
X835500Y651936D01*
X835574Y652064D01*
X835651Y652190D01*
X835732Y652313D01*
X835816Y652435D01*
X835903Y652554D01*
X835993Y652671D01*
X836087Y652785D01*
X836183Y652897D01*
X836283Y653006D01*
X836385Y653113D01*
X836490Y653217D01*
X836598Y653317D01*
X836708Y653415D01*
X836822Y653510D01*
X836937Y653602D01*
X837055Y653691D01*
X837176Y653776D01*
X837298Y653859D01*
X837423Y653938D01*
X837550Y654013D01*
X837679Y654085D01*
X837810Y654154D01*
X837942Y654219D01*
X838076Y654280D01*
X838212Y654338D01*
X838350Y654393D01*
X838488Y654443D01*
X838629Y654490D01*
X838770Y654533D01*
X838912Y654572D01*
X839056Y654607D01*
X839200Y654639D01*
X839345Y654666D01*
X839491Y654690D01*
X839637Y654710D01*
X839784Y654726D01*
X839931Y654738D01*
X840079Y654746D01*
X840226Y654750D01*
X840374Y654750D01*
X840521Y654746D01*
X840669Y654738D01*
X840816Y654726D01*
X840963Y654710D01*
X841109Y654690D01*
X841255Y654666D01*
X841400Y654639D01*
X841544Y654607D01*
X841688Y654572D01*
X841830Y654533D01*
X841971Y654490D01*
X842112Y654443D01*
X842250Y654393D01*
X842388Y654338D01*
X842524Y654280D01*
X842658Y654219D01*
X842790Y654154D01*
X842921Y654085D01*
X843050Y654013D01*
X843177Y653938D01*
X843302Y653859D01*
X843424Y653776D01*
X843545Y653691D01*
X843663Y653602D01*
X843778Y653510D01*
X843892Y653415D01*
X844002Y653317D01*
X844110Y653217D01*
X844215Y653113D01*
X844317Y653006D01*
X844417Y652897D01*
X844513Y652785D01*
X844607Y652671D01*
X844697Y652554D01*
X844784Y652435D01*
X844868Y652313D01*
X844949Y652190D01*
X845026Y652064D01*
X845100Y651936D01*
X845170Y651806D01*
X845237Y651674D01*
X845300Y651541D01*
X845360Y651406D01*
X845416Y651269D01*
X845468Y651131D01*
X845517Y650992D01*
X845562Y650851D01*
X845603Y650709D01*
X845640Y650566D01*
X845674Y650422D01*
X845703Y650278D01*
X845729Y650132D01*
X845751Y649986D01*
X845768Y649840D01*
X845782Y649693D01*
X845792Y649545D01*
X845798Y649398D01*
X845800Y649250D01*
D12*
X294386Y493268D02*
X294386Y484632D01*
X264414Y491998D02*
X264414Y493268D01*
X264414Y491998D02*
X264414Y485902D01*
X264414Y484632D01*
X264414Y485902D02*
X264523Y485904D01*
X264631Y485910D01*
X264740Y485919D01*
X264848Y485933D01*
X264955Y485950D01*
X265062Y485972D01*
X265168Y485997D01*
X265273Y486025D01*
X265377Y486058D01*
X265479Y486094D01*
X265580Y486134D01*
X265680Y486177D01*
X265778Y486224D01*
X265875Y486275D01*
X265969Y486329D01*
X266062Y486386D01*
X266152Y486446D01*
X266241Y486510D01*
X266327Y486577D01*
X266410Y486646D01*
X266491Y486719D01*
X266569Y486795D01*
X266645Y486873D01*
X266718Y486954D01*
X266787Y487037D01*
X266854Y487123D01*
X266918Y487212D01*
X266978Y487302D01*
X267035Y487395D01*
X267089Y487489D01*
X267140Y487586D01*
X267187Y487684D01*
X267230Y487784D01*
X267270Y487885D01*
X267306Y487987D01*
X267339Y488091D01*
X267367Y488196D01*
X267392Y488302D01*
X267414Y488409D01*
X267431Y488516D01*
X267445Y488624D01*
X267454Y488733D01*
X267460Y488841D01*
X267462Y488950D01*
X267460Y489059D01*
X267454Y489167D01*
X267445Y489276D01*
X267431Y489384D01*
X267414Y489491D01*
X267392Y489598D01*
X267367Y489704D01*
X267339Y489809D01*
X267306Y489913D01*
X267270Y490015D01*
X267230Y490116D01*
X267187Y490216D01*
X267140Y490314D01*
X267089Y490411D01*
X267035Y490505D01*
X266978Y490598D01*
X266918Y490688D01*
X266854Y490777D01*
X266787Y490863D01*
X266718Y490946D01*
X266645Y491027D01*
X266569Y491105D01*
X266491Y491181D01*
X266410Y491254D01*
X266327Y491323D01*
X266241Y491390D01*
X266152Y491454D01*
X266062Y491514D01*
X265969Y491571D01*
X265875Y491625D01*
X265778Y491676D01*
X265680Y491723D01*
X265580Y491766D01*
X265479Y491806D01*
X265377Y491842D01*
X265273Y491875D01*
X265168Y491903D01*
X265062Y491928D01*
X264955Y491950D01*
X264848Y491967D01*
X264740Y491981D01*
X264631Y491990D01*
X264523Y491996D01*
X264414Y491998D01*
X243586Y493268D02*
X243586Y484632D01*
X213614Y491998D02*
X213614Y493268D01*
X213614Y491998D02*
X213614Y485902D01*
X213614Y484632D01*
X213614Y485902D02*
X213723Y485904D01*
X213831Y485910D01*
X213940Y485919D01*
X214048Y485933D01*
X214155Y485950D01*
X214262Y485972D01*
X214368Y485997D01*
X214473Y486025D01*
X214577Y486058D01*
X214679Y486094D01*
X214780Y486134D01*
X214880Y486177D01*
X214978Y486224D01*
X215075Y486275D01*
X215169Y486329D01*
X215262Y486386D01*
X215352Y486446D01*
X215441Y486510D01*
X215527Y486577D01*
X215610Y486646D01*
X215691Y486719D01*
X215769Y486795D01*
X215845Y486873D01*
X215918Y486954D01*
X215987Y487037D01*
X216054Y487123D01*
X216118Y487212D01*
X216178Y487302D01*
X216235Y487395D01*
X216289Y487489D01*
X216340Y487586D01*
X216387Y487684D01*
X216430Y487784D01*
X216470Y487885D01*
X216506Y487987D01*
X216539Y488091D01*
X216567Y488196D01*
X216592Y488302D01*
X216614Y488409D01*
X216631Y488516D01*
X216645Y488624D01*
X216654Y488733D01*
X216660Y488841D01*
X216662Y488950D01*
X216660Y489059D01*
X216654Y489167D01*
X216645Y489276D01*
X216631Y489384D01*
X216614Y489491D01*
X216592Y489598D01*
X216567Y489704D01*
X216539Y489809D01*
X216506Y489913D01*
X216470Y490015D01*
X216430Y490116D01*
X216387Y490216D01*
X216340Y490314D01*
X216289Y490411D01*
X216235Y490505D01*
X216178Y490598D01*
X216118Y490688D01*
X216054Y490777D01*
X215987Y490863D01*
X215918Y490946D01*
X215845Y491027D01*
X215769Y491105D01*
X215691Y491181D01*
X215610Y491254D01*
X215527Y491323D01*
X215441Y491390D01*
X215352Y491454D01*
X215262Y491514D01*
X215169Y491571D01*
X215075Y491625D01*
X214978Y491676D01*
X214880Y491723D01*
X214780Y491766D01*
X214679Y491806D01*
X214577Y491842D01*
X214473Y491875D01*
X214368Y491903D01*
X214262Y491928D01*
X214155Y491950D01*
X214048Y491967D01*
X213940Y491981D01*
X213831Y491990D01*
X213723Y491996D01*
X213614Y491998D01*
D18*
X444500Y544300D02*
X444500Y573300D01*
D19*
X428500Y576590D03*
D15*
X584750Y564450D02*
X621750Y564450D01*
X621750Y515050D02*
X584750Y515050D01*
X584750Y564450D01*
X621750Y564450D02*
X621750Y515050D01*
D20*
X592750Y556250D03*
D12*
X703580Y505460D02*
X731520Y505460D01*
X703580Y485140D02*
X703480Y485142D01*
X703381Y485148D01*
X703281Y485158D01*
X703183Y485171D01*
X703084Y485189D01*
X702987Y485210D01*
X702891Y485235D01*
X702795Y485264D01*
X702701Y485297D01*
X702608Y485333D01*
X702517Y485373D01*
X702427Y485417D01*
X702339Y485464D01*
X702253Y485514D01*
X702169Y485568D01*
X702087Y485625D01*
X702008Y485685D01*
X701930Y485749D01*
X701856Y485815D01*
X701784Y485884D01*
X701715Y485956D01*
X701649Y486030D01*
X701585Y486108D01*
X701525Y486187D01*
X701468Y486269D01*
X701414Y486353D01*
X701364Y486439D01*
X701317Y486527D01*
X701273Y486617D01*
X701233Y486708D01*
X701197Y486801D01*
X701164Y486895D01*
X701135Y486991D01*
X701110Y487087D01*
X701089Y487184D01*
X701071Y487283D01*
X701058Y487381D01*
X701048Y487481D01*
X701042Y487580D01*
X701040Y487680D01*
X731520Y485140D02*
X731620Y485142D01*
X731719Y485148D01*
X731819Y485158D01*
X731917Y485171D01*
X732016Y485189D01*
X732113Y485210D01*
X732209Y485235D01*
X732305Y485264D01*
X732399Y485297D01*
X732492Y485333D01*
X732583Y485373D01*
X732673Y485417D01*
X732761Y485464D01*
X732847Y485514D01*
X732931Y485568D01*
X733013Y485625D01*
X733092Y485685D01*
X733170Y485749D01*
X733244Y485815D01*
X733316Y485884D01*
X733385Y485956D01*
X733451Y486030D01*
X733515Y486108D01*
X733575Y486187D01*
X733632Y486269D01*
X733686Y486353D01*
X733736Y486439D01*
X733783Y486527D01*
X733827Y486617D01*
X733867Y486708D01*
X733903Y486801D01*
X733936Y486895D01*
X733965Y486991D01*
X733990Y487087D01*
X734011Y487184D01*
X734029Y487283D01*
X734042Y487381D01*
X734052Y487481D01*
X734058Y487580D01*
X734060Y487680D01*
X734060Y502920D02*
X734058Y503020D01*
X734052Y503119D01*
X734042Y503219D01*
X734029Y503317D01*
X734011Y503416D01*
X733990Y503513D01*
X733965Y503609D01*
X733936Y503705D01*
X733903Y503799D01*
X733867Y503892D01*
X733827Y503983D01*
X733783Y504073D01*
X733736Y504161D01*
X733686Y504247D01*
X733632Y504331D01*
X733575Y504413D01*
X733515Y504492D01*
X733451Y504570D01*
X733385Y504644D01*
X733316Y504716D01*
X733244Y504785D01*
X733170Y504851D01*
X733092Y504915D01*
X733013Y504975D01*
X732931Y505032D01*
X732847Y505086D01*
X732761Y505136D01*
X732673Y505183D01*
X732583Y505227D01*
X732492Y505267D01*
X732399Y505303D01*
X732305Y505336D01*
X732209Y505365D01*
X732113Y505390D01*
X732016Y505411D01*
X731917Y505429D01*
X731819Y505442D01*
X731719Y505452D01*
X731620Y505458D01*
X731520Y505460D01*
X703580Y505460D02*
X703480Y505458D01*
X703381Y505452D01*
X703281Y505442D01*
X703183Y505429D01*
X703084Y505411D01*
X702987Y505390D01*
X702891Y505365D01*
X702795Y505336D01*
X702701Y505303D01*
X702608Y505267D01*
X702517Y505227D01*
X702427Y505183D01*
X702339Y505136D01*
X702253Y505086D01*
X702169Y505032D01*
X702087Y504975D01*
X702008Y504915D01*
X701930Y504851D01*
X701856Y504785D01*
X701784Y504716D01*
X701715Y504644D01*
X701649Y504570D01*
X701585Y504492D01*
X701525Y504413D01*
X701468Y504331D01*
X701414Y504247D01*
X701364Y504161D01*
X701317Y504073D01*
X701273Y503983D01*
X701233Y503892D01*
X701197Y503799D01*
X701164Y503705D01*
X701135Y503609D01*
X701110Y503513D01*
X701089Y503416D01*
X701071Y503317D01*
X701058Y503219D01*
X701048Y503119D01*
X701042Y503020D01*
X701040Y502920D01*
X701040Y487680D01*
X734060Y487680D02*
X734060Y502920D01*
X731520Y485140D02*
X703580Y485140D01*
X703580Y588010D02*
X731520Y588010D01*
X703580Y567690D02*
X703480Y567692D01*
X703381Y567698D01*
X703281Y567708D01*
X703183Y567721D01*
X703084Y567739D01*
X702987Y567760D01*
X702891Y567785D01*
X702795Y567814D01*
X702701Y567847D01*
X702608Y567883D01*
X702517Y567923D01*
X702427Y567967D01*
X702339Y568014D01*
X702253Y568064D01*
X702169Y568118D01*
X702087Y568175D01*
X702008Y568235D01*
X701930Y568299D01*
X701856Y568365D01*
X701784Y568434D01*
X701715Y568506D01*
X701649Y568580D01*
X701585Y568658D01*
X701525Y568737D01*
X701468Y568819D01*
X701414Y568903D01*
X701364Y568989D01*
X701317Y569077D01*
X701273Y569167D01*
X701233Y569258D01*
X701197Y569351D01*
X701164Y569445D01*
X701135Y569541D01*
X701110Y569637D01*
X701089Y569734D01*
X701071Y569833D01*
X701058Y569931D01*
X701048Y570031D01*
X701042Y570130D01*
X701040Y570230D01*
X731520Y567690D02*
X731620Y567692D01*
X731719Y567698D01*
X731819Y567708D01*
X731917Y567721D01*
X732016Y567739D01*
X732113Y567760D01*
X732209Y567785D01*
X732305Y567814D01*
X732399Y567847D01*
X732492Y567883D01*
X732583Y567923D01*
X732673Y567967D01*
X732761Y568014D01*
X732847Y568064D01*
X732931Y568118D01*
X733013Y568175D01*
X733092Y568235D01*
X733170Y568299D01*
X733244Y568365D01*
X733316Y568434D01*
X733385Y568506D01*
X733451Y568580D01*
X733515Y568658D01*
X733575Y568737D01*
X733632Y568819D01*
X733686Y568903D01*
X733736Y568989D01*
X733783Y569077D01*
X733827Y569167D01*
X733867Y569258D01*
X733903Y569351D01*
X733936Y569445D01*
X733965Y569541D01*
X733990Y569637D01*
X734011Y569734D01*
X734029Y569833D01*
X734042Y569931D01*
X734052Y570031D01*
X734058Y570130D01*
X734060Y570230D01*
X734060Y585470D02*
X734058Y585570D01*
X734052Y585669D01*
X734042Y585769D01*
X734029Y585867D01*
X734011Y585966D01*
X733990Y586063D01*
X733965Y586159D01*
X733936Y586255D01*
X733903Y586349D01*
X733867Y586442D01*
X733827Y586533D01*
X733783Y586623D01*
X733736Y586711D01*
X733686Y586797D01*
X733632Y586881D01*
X733575Y586963D01*
X733515Y587042D01*
X733451Y587120D01*
X733385Y587194D01*
X733316Y587266D01*
X733244Y587335D01*
X733170Y587401D01*
X733092Y587465D01*
X733013Y587525D01*
X732931Y587582D01*
X732847Y587636D01*
X732761Y587686D01*
X732673Y587733D01*
X732583Y587777D01*
X732492Y587817D01*
X732399Y587853D01*
X732305Y587886D01*
X732209Y587915D01*
X732113Y587940D01*
X732016Y587961D01*
X731917Y587979D01*
X731819Y587992D01*
X731719Y588002D01*
X731620Y588008D01*
X731520Y588010D01*
X703580Y588010D02*
X703480Y588008D01*
X703381Y588002D01*
X703281Y587992D01*
X703183Y587979D01*
X703084Y587961D01*
X702987Y587940D01*
X702891Y587915D01*
X702795Y587886D01*
X702701Y587853D01*
X702608Y587817D01*
X702517Y587777D01*
X702427Y587733D01*
X702339Y587686D01*
X702253Y587636D01*
X702169Y587582D01*
X702087Y587525D01*
X702008Y587465D01*
X701930Y587401D01*
X701856Y587335D01*
X701784Y587266D01*
X701715Y587194D01*
X701649Y587120D01*
X701585Y587042D01*
X701525Y586963D01*
X701468Y586881D01*
X701414Y586797D01*
X701364Y586711D01*
X701317Y586623D01*
X701273Y586533D01*
X701233Y586442D01*
X701197Y586349D01*
X701164Y586255D01*
X701135Y586159D01*
X701110Y586063D01*
X701089Y585966D01*
X701071Y585867D01*
X701058Y585769D01*
X701048Y585669D01*
X701042Y585570D01*
X701040Y585470D01*
X701040Y570230D01*
X734060Y570230D02*
X734060Y585470D01*
X731520Y567690D02*
X703580Y567690D01*
X703580Y480060D02*
X731520Y480060D01*
X703580Y459740D02*
X703480Y459742D01*
X703381Y459748D01*
X703281Y459758D01*
X703183Y459771D01*
X703084Y459789D01*
X702987Y459810D01*
X702891Y459835D01*
X702795Y459864D01*
X702701Y459897D01*
X702608Y459933D01*
X702517Y459973D01*
X702427Y460017D01*
X702339Y460064D01*
X702253Y460114D01*
X702169Y460168D01*
X702087Y460225D01*
X702008Y460285D01*
X701930Y460349D01*
X701856Y460415D01*
X701784Y460484D01*
X701715Y460556D01*
X701649Y460630D01*
X701585Y460708D01*
X701525Y460787D01*
X701468Y460869D01*
X701414Y460953D01*
X701364Y461039D01*
X701317Y461127D01*
X701273Y461217D01*
X701233Y461308D01*
X701197Y461401D01*
X701164Y461495D01*
X701135Y461591D01*
X701110Y461687D01*
X701089Y461784D01*
X701071Y461883D01*
X701058Y461981D01*
X701048Y462081D01*
X701042Y462180D01*
X701040Y462280D01*
X731520Y459740D02*
X731620Y459742D01*
X731719Y459748D01*
X731819Y459758D01*
X731917Y459771D01*
X732016Y459789D01*
X732113Y459810D01*
X732209Y459835D01*
X732305Y459864D01*
X732399Y459897D01*
X732492Y459933D01*
X732583Y459973D01*
X732673Y460017D01*
X732761Y460064D01*
X732847Y460114D01*
X732931Y460168D01*
X733013Y460225D01*
X733092Y460285D01*
X733170Y460349D01*
X733244Y460415D01*
X733316Y460484D01*
X733385Y460556D01*
X733451Y460630D01*
X733515Y460708D01*
X733575Y460787D01*
X733632Y460869D01*
X733686Y460953D01*
X733736Y461039D01*
X733783Y461127D01*
X733827Y461217D01*
X733867Y461308D01*
X733903Y461401D01*
X733936Y461495D01*
X733965Y461591D01*
X733990Y461687D01*
X734011Y461784D01*
X734029Y461883D01*
X734042Y461981D01*
X734052Y462081D01*
X734058Y462180D01*
X734060Y462280D01*
X734060Y477520D02*
X734058Y477620D01*
X734052Y477719D01*
X734042Y477819D01*
X734029Y477917D01*
X734011Y478016D01*
X733990Y478113D01*
X733965Y478209D01*
X733936Y478305D01*
X733903Y478399D01*
X733867Y478492D01*
X733827Y478583D01*
X733783Y478673D01*
X733736Y478761D01*
X733686Y478847D01*
X733632Y478931D01*
X733575Y479013D01*
X733515Y479092D01*
X733451Y479170D01*
X733385Y479244D01*
X733316Y479316D01*
X733244Y479385D01*
X733170Y479451D01*
X733092Y479515D01*
X733013Y479575D01*
X732931Y479632D01*
X732847Y479686D01*
X732761Y479736D01*
X732673Y479783D01*
X732583Y479827D01*
X732492Y479867D01*
X732399Y479903D01*
X732305Y479936D01*
X732209Y479965D01*
X732113Y479990D01*
X732016Y480011D01*
X731917Y480029D01*
X731819Y480042D01*
X731719Y480052D01*
X731620Y480058D01*
X731520Y480060D01*
X703580Y480060D02*
X703480Y480058D01*
X703381Y480052D01*
X703281Y480042D01*
X703183Y480029D01*
X703084Y480011D01*
X702987Y479990D01*
X702891Y479965D01*
X702795Y479936D01*
X702701Y479903D01*
X702608Y479867D01*
X702517Y479827D01*
X702427Y479783D01*
X702339Y479736D01*
X702253Y479686D01*
X702169Y479632D01*
X702087Y479575D01*
X702008Y479515D01*
X701930Y479451D01*
X701856Y479385D01*
X701784Y479316D01*
X701715Y479244D01*
X701649Y479170D01*
X701585Y479092D01*
X701525Y479013D01*
X701468Y478931D01*
X701414Y478847D01*
X701364Y478761D01*
X701317Y478673D01*
X701273Y478583D01*
X701233Y478492D01*
X701197Y478399D01*
X701164Y478305D01*
X701135Y478209D01*
X701110Y478113D01*
X701089Y478016D01*
X701071Y477917D01*
X701058Y477819D01*
X701048Y477719D01*
X701042Y477620D01*
X701040Y477520D01*
X701040Y462280D01*
X734060Y462280D02*
X734060Y477520D01*
X731520Y459740D02*
X703580Y459740D01*
X703580Y613410D02*
X731520Y613410D01*
X703580Y593090D02*
X703480Y593092D01*
X703381Y593098D01*
X703281Y593108D01*
X703183Y593121D01*
X703084Y593139D01*
X702987Y593160D01*
X702891Y593185D01*
X702795Y593214D01*
X702701Y593247D01*
X702608Y593283D01*
X702517Y593323D01*
X702427Y593367D01*
X702339Y593414D01*
X702253Y593464D01*
X702169Y593518D01*
X702087Y593575D01*
X702008Y593635D01*
X701930Y593699D01*
X701856Y593765D01*
X701784Y593834D01*
X701715Y593906D01*
X701649Y593980D01*
X701585Y594058D01*
X701525Y594137D01*
X701468Y594219D01*
X701414Y594303D01*
X701364Y594389D01*
X701317Y594477D01*
X701273Y594567D01*
X701233Y594658D01*
X701197Y594751D01*
X701164Y594845D01*
X701135Y594941D01*
X701110Y595037D01*
X701089Y595134D01*
X701071Y595233D01*
X701058Y595331D01*
X701048Y595431D01*
X701042Y595530D01*
X701040Y595630D01*
X731520Y593090D02*
X731620Y593092D01*
X731719Y593098D01*
X731819Y593108D01*
X731917Y593121D01*
X732016Y593139D01*
X732113Y593160D01*
X732209Y593185D01*
X732305Y593214D01*
X732399Y593247D01*
X732492Y593283D01*
X732583Y593323D01*
X732673Y593367D01*
X732761Y593414D01*
X732847Y593464D01*
X732931Y593518D01*
X733013Y593575D01*
X733092Y593635D01*
X733170Y593699D01*
X733244Y593765D01*
X733316Y593834D01*
X733385Y593906D01*
X733451Y593980D01*
X733515Y594058D01*
X733575Y594137D01*
X733632Y594219D01*
X733686Y594303D01*
X733736Y594389D01*
X733783Y594477D01*
X733827Y594567D01*
X733867Y594658D01*
X733903Y594751D01*
X733936Y594845D01*
X733965Y594941D01*
X733990Y595037D01*
X734011Y595134D01*
X734029Y595233D01*
X734042Y595331D01*
X734052Y595431D01*
X734058Y595530D01*
X734060Y595630D01*
X734060Y610870D02*
X734058Y610970D01*
X734052Y611069D01*
X734042Y611169D01*
X734029Y611267D01*
X734011Y611366D01*
X733990Y611463D01*
X733965Y611559D01*
X733936Y611655D01*
X733903Y611749D01*
X733867Y611842D01*
X733827Y611933D01*
X733783Y612023D01*
X733736Y612111D01*
X733686Y612197D01*
X733632Y612281D01*
X733575Y612363D01*
X733515Y612442D01*
X733451Y612520D01*
X733385Y612594D01*
X733316Y612666D01*
X733244Y612735D01*
X733170Y612801D01*
X733092Y612865D01*
X733013Y612925D01*
X732931Y612982D01*
X732847Y613036D01*
X732761Y613086D01*
X732673Y613133D01*
X732583Y613177D01*
X732492Y613217D01*
X732399Y613253D01*
X732305Y613286D01*
X732209Y613315D01*
X732113Y613340D01*
X732016Y613361D01*
X731917Y613379D01*
X731819Y613392D01*
X731719Y613402D01*
X731620Y613408D01*
X731520Y613410D01*
X703580Y613410D02*
X703480Y613408D01*
X703381Y613402D01*
X703281Y613392D01*
X703183Y613379D01*
X703084Y613361D01*
X702987Y613340D01*
X702891Y613315D01*
X702795Y613286D01*
X702701Y613253D01*
X702608Y613217D01*
X702517Y613177D01*
X702427Y613133D01*
X702339Y613086D01*
X702253Y613036D01*
X702169Y612982D01*
X702087Y612925D01*
X702008Y612865D01*
X701930Y612801D01*
X701856Y612735D01*
X701784Y612666D01*
X701715Y612594D01*
X701649Y612520D01*
X701585Y612442D01*
X701525Y612363D01*
X701468Y612281D01*
X701414Y612197D01*
X701364Y612111D01*
X701317Y612023D01*
X701273Y611933D01*
X701233Y611842D01*
X701197Y611749D01*
X701164Y611655D01*
X701135Y611559D01*
X701110Y611463D01*
X701089Y611366D01*
X701071Y611267D01*
X701058Y611169D01*
X701048Y611069D01*
X701042Y610970D01*
X701040Y610870D01*
X701040Y595630D01*
X734060Y595630D02*
X734060Y610870D01*
X731520Y593090D02*
X703580Y593090D01*
X549910Y580390D02*
X549910Y537210D01*
X529590Y580390D02*
X529592Y580490D01*
X529598Y580589D01*
X529608Y580689D01*
X529621Y580787D01*
X529639Y580886D01*
X529660Y580983D01*
X529685Y581079D01*
X529714Y581175D01*
X529747Y581269D01*
X529783Y581362D01*
X529823Y581453D01*
X529867Y581543D01*
X529914Y581631D01*
X529964Y581717D01*
X530018Y581801D01*
X530075Y581883D01*
X530135Y581962D01*
X530199Y582040D01*
X530265Y582114D01*
X530334Y582186D01*
X530406Y582255D01*
X530480Y582321D01*
X530558Y582385D01*
X530637Y582445D01*
X530719Y582502D01*
X530803Y582556D01*
X530889Y582606D01*
X530977Y582653D01*
X531067Y582697D01*
X531158Y582737D01*
X531251Y582773D01*
X531345Y582806D01*
X531441Y582835D01*
X531537Y582860D01*
X531634Y582881D01*
X531733Y582899D01*
X531831Y582912D01*
X531931Y582922D01*
X532030Y582928D01*
X532130Y582930D01*
X529590Y537210D02*
X529592Y537110D01*
X529598Y537011D01*
X529608Y536911D01*
X529621Y536813D01*
X529639Y536714D01*
X529660Y536617D01*
X529685Y536521D01*
X529714Y536425D01*
X529747Y536331D01*
X529783Y536238D01*
X529823Y536147D01*
X529867Y536057D01*
X529914Y535969D01*
X529964Y535883D01*
X530018Y535799D01*
X530075Y535717D01*
X530135Y535638D01*
X530199Y535560D01*
X530265Y535486D01*
X530334Y535414D01*
X530406Y535345D01*
X530480Y535279D01*
X530558Y535215D01*
X530637Y535155D01*
X530719Y535098D01*
X530803Y535044D01*
X530889Y534994D01*
X530977Y534947D01*
X531067Y534903D01*
X531158Y534863D01*
X531251Y534827D01*
X531345Y534794D01*
X531441Y534765D01*
X531537Y534740D01*
X531634Y534719D01*
X531733Y534701D01*
X531831Y534688D01*
X531931Y534678D01*
X532030Y534672D01*
X532130Y534670D01*
X547370Y534670D02*
X547470Y534672D01*
X547569Y534678D01*
X547669Y534688D01*
X547767Y534701D01*
X547866Y534719D01*
X547963Y534740D01*
X548059Y534765D01*
X548155Y534794D01*
X548249Y534827D01*
X548342Y534863D01*
X548433Y534903D01*
X548523Y534947D01*
X548611Y534994D01*
X548697Y535044D01*
X548781Y535098D01*
X548863Y535155D01*
X548942Y535215D01*
X549020Y535279D01*
X549094Y535345D01*
X549166Y535414D01*
X549235Y535486D01*
X549301Y535560D01*
X549365Y535638D01*
X549425Y535717D01*
X549482Y535799D01*
X549536Y535883D01*
X549586Y535969D01*
X549633Y536057D01*
X549677Y536147D01*
X549717Y536238D01*
X549753Y536331D01*
X549786Y536425D01*
X549815Y536521D01*
X549840Y536617D01*
X549861Y536714D01*
X549879Y536813D01*
X549892Y536911D01*
X549902Y537011D01*
X549908Y537110D01*
X549910Y537210D01*
X549910Y580390D02*
X549908Y580490D01*
X549902Y580589D01*
X549892Y580689D01*
X549879Y580787D01*
X549861Y580886D01*
X549840Y580983D01*
X549815Y581079D01*
X549786Y581175D01*
X549753Y581269D01*
X549717Y581362D01*
X549677Y581453D01*
X549633Y581543D01*
X549586Y581631D01*
X549536Y581717D01*
X549482Y581801D01*
X549425Y581883D01*
X549365Y581962D01*
X549301Y582040D01*
X549235Y582114D01*
X549166Y582186D01*
X549094Y582255D01*
X549020Y582321D01*
X548942Y582385D01*
X548863Y582445D01*
X548781Y582502D01*
X548697Y582556D01*
X548611Y582606D01*
X548523Y582653D01*
X548433Y582697D01*
X548342Y582737D01*
X548249Y582773D01*
X548155Y582806D01*
X548059Y582835D01*
X547963Y582860D01*
X547866Y582881D01*
X547767Y582899D01*
X547669Y582912D01*
X547569Y582922D01*
X547470Y582928D01*
X547370Y582930D01*
X532130Y582930D01*
X532130Y534670D02*
X547370Y534670D01*
X529590Y537210D02*
X529590Y580390D01*
X549910Y523240D02*
X549910Y480060D01*
X529590Y523240D02*
X529592Y523340D01*
X529598Y523439D01*
X529608Y523539D01*
X529621Y523637D01*
X529639Y523736D01*
X529660Y523833D01*
X529685Y523929D01*
X529714Y524025D01*
X529747Y524119D01*
X529783Y524212D01*
X529823Y524303D01*
X529867Y524393D01*
X529914Y524481D01*
X529964Y524567D01*
X530018Y524651D01*
X530075Y524733D01*
X530135Y524812D01*
X530199Y524890D01*
X530265Y524964D01*
X530334Y525036D01*
X530406Y525105D01*
X530480Y525171D01*
X530558Y525235D01*
X530637Y525295D01*
X530719Y525352D01*
X530803Y525406D01*
X530889Y525456D01*
X530977Y525503D01*
X531067Y525547D01*
X531158Y525587D01*
X531251Y525623D01*
X531345Y525656D01*
X531441Y525685D01*
X531537Y525710D01*
X531634Y525731D01*
X531733Y525749D01*
X531831Y525762D01*
X531931Y525772D01*
X532030Y525778D01*
X532130Y525780D01*
X529590Y480060D02*
X529592Y479960D01*
X529598Y479861D01*
X529608Y479761D01*
X529621Y479663D01*
X529639Y479564D01*
X529660Y479467D01*
X529685Y479371D01*
X529714Y479275D01*
X529747Y479181D01*
X529783Y479088D01*
X529823Y478997D01*
X529867Y478907D01*
X529914Y478819D01*
X529964Y478733D01*
X530018Y478649D01*
X530075Y478567D01*
X530135Y478488D01*
X530199Y478410D01*
X530265Y478336D01*
X530334Y478264D01*
X530406Y478195D01*
X530480Y478129D01*
X530558Y478065D01*
X530637Y478005D01*
X530719Y477948D01*
X530803Y477894D01*
X530889Y477844D01*
X530977Y477797D01*
X531067Y477753D01*
X531158Y477713D01*
X531251Y477677D01*
X531345Y477644D01*
X531441Y477615D01*
X531537Y477590D01*
X531634Y477569D01*
X531733Y477551D01*
X531831Y477538D01*
X531931Y477528D01*
X532030Y477522D01*
X532130Y477520D01*
X547370Y477520D02*
X547470Y477522D01*
X547569Y477528D01*
X547669Y477538D01*
X547767Y477551D01*
X547866Y477569D01*
X547963Y477590D01*
X548059Y477615D01*
X548155Y477644D01*
X548249Y477677D01*
X548342Y477713D01*
X548433Y477753D01*
X548523Y477797D01*
X548611Y477844D01*
X548697Y477894D01*
X548781Y477948D01*
X548863Y478005D01*
X548942Y478065D01*
X549020Y478129D01*
X549094Y478195D01*
X549166Y478264D01*
X549235Y478336D01*
X549301Y478410D01*
X549365Y478488D01*
X549425Y478567D01*
X549482Y478649D01*
X549536Y478733D01*
X549586Y478819D01*
X549633Y478907D01*
X549677Y478997D01*
X549717Y479088D01*
X549753Y479181D01*
X549786Y479275D01*
X549815Y479371D01*
X549840Y479467D01*
X549861Y479564D01*
X549879Y479663D01*
X549892Y479761D01*
X549902Y479861D01*
X549908Y479960D01*
X549910Y480060D01*
X549910Y523240D02*
X549908Y523340D01*
X549902Y523439D01*
X549892Y523539D01*
X549879Y523637D01*
X549861Y523736D01*
X549840Y523833D01*
X549815Y523929D01*
X549786Y524025D01*
X549753Y524119D01*
X549717Y524212D01*
X549677Y524303D01*
X549633Y524393D01*
X549586Y524481D01*
X549536Y524567D01*
X549482Y524651D01*
X549425Y524733D01*
X549365Y524812D01*
X549301Y524890D01*
X549235Y524964D01*
X549166Y525036D01*
X549094Y525105D01*
X549020Y525171D01*
X548942Y525235D01*
X548863Y525295D01*
X548781Y525352D01*
X548697Y525406D01*
X548611Y525456D01*
X548523Y525503D01*
X548433Y525547D01*
X548342Y525587D01*
X548249Y525623D01*
X548155Y525656D01*
X548059Y525685D01*
X547963Y525710D01*
X547866Y525731D01*
X547767Y525749D01*
X547669Y525762D01*
X547569Y525772D01*
X547470Y525778D01*
X547370Y525780D01*
X532130Y525780D01*
X532130Y477520D02*
X547370Y477520D01*
X529590Y480060D02*
X529590Y523240D01*
D21*
X433300Y628300D03*
X433300Y616300D03*
D22*
X433300Y622300D03*
D21*
X433300Y602900D03*
X433300Y590900D03*
D22*
X433300Y596900D03*
D12*
X639600Y401570D02*
X655800Y401570D01*
X655800Y373130D02*
X639600Y373130D01*
X655800Y382130D02*
X655800Y383070D01*
X655800Y391630D02*
X655800Y392570D01*
X655800Y374070D02*
X655800Y373130D01*
X655800Y400630D02*
X655800Y401570D01*
X639600Y401570D02*
X639600Y400630D01*
X639600Y374070D02*
X639600Y373130D01*
X639600Y391630D02*
X639600Y392570D01*
X639600Y383070D02*
X639600Y382130D01*
X651200Y377350D02*
X651202Y377413D01*
X651208Y377475D01*
X651218Y377537D01*
X651231Y377599D01*
X651249Y377659D01*
X651270Y377718D01*
X651295Y377776D01*
X651324Y377832D01*
X651356Y377886D01*
X651391Y377938D01*
X651429Y377987D01*
X651471Y378035D01*
X651515Y378079D01*
X651563Y378121D01*
X651612Y378159D01*
X651664Y378194D01*
X651718Y378226D01*
X651774Y378255D01*
X651832Y378280D01*
X651891Y378301D01*
X651951Y378319D01*
X652013Y378332D01*
X652075Y378342D01*
X652137Y378348D01*
X652200Y378350D01*
X652263Y378348D01*
X652325Y378342D01*
X652387Y378332D01*
X652449Y378319D01*
X652509Y378301D01*
X652568Y378280D01*
X652626Y378255D01*
X652682Y378226D01*
X652736Y378194D01*
X652788Y378159D01*
X652837Y378121D01*
X652885Y378079D01*
X652929Y378035D01*
X652971Y377987D01*
X653009Y377938D01*
X653044Y377886D01*
X653076Y377832D01*
X653105Y377776D01*
X653130Y377718D01*
X653151Y377659D01*
X653169Y377599D01*
X653182Y377537D01*
X653192Y377475D01*
X653198Y377413D01*
X653200Y377350D01*
X653198Y377287D01*
X653192Y377225D01*
X653182Y377163D01*
X653169Y377101D01*
X653151Y377041D01*
X653130Y376982D01*
X653105Y376924D01*
X653076Y376868D01*
X653044Y376814D01*
X653009Y376762D01*
X652971Y376713D01*
X652929Y376665D01*
X652885Y376621D01*
X652837Y376579D01*
X652788Y376541D01*
X652736Y376506D01*
X652682Y376474D01*
X652626Y376445D01*
X652568Y376420D01*
X652509Y376399D01*
X652449Y376381D01*
X652387Y376368D01*
X652325Y376358D01*
X652263Y376352D01*
X652200Y376350D01*
X652137Y376352D01*
X652075Y376358D01*
X652013Y376368D01*
X651951Y376381D01*
X651891Y376399D01*
X651832Y376420D01*
X651774Y376445D01*
X651718Y376474D01*
X651664Y376506D01*
X651612Y376541D01*
X651563Y376579D01*
X651515Y376621D01*
X651471Y376665D01*
X651429Y376713D01*
X651391Y376762D01*
X651356Y376814D01*
X651324Y376868D01*
X651295Y376924D01*
X651270Y376982D01*
X651249Y377041D01*
X651231Y377101D01*
X651218Y377163D01*
X651208Y377225D01*
X651202Y377287D01*
X651200Y377350D01*
D15*
X620700Y357200D02*
X620700Y430200D01*
X547700Y430200D02*
X547700Y357200D01*
D11*
X555450Y387450D02*
X611700Y404950D01*
X612950Y399950D02*
X556700Y382450D01*
X555450Y387450D02*
X555305Y388156D01*
X555179Y388865D01*
X555069Y389577D01*
X554977Y390292D01*
X554903Y391009D01*
X554846Y391727D01*
X554806Y392447D01*
X554785Y393167D01*
X554781Y393888D01*
X554794Y394608D01*
X554826Y395328D01*
X554874Y396047D01*
X554941Y396765D01*
X555025Y397480D01*
X555127Y398194D01*
X555246Y398905D01*
X555382Y399612D01*
X555536Y400316D01*
X555707Y401016D01*
X555895Y401712D01*
X556099Y402403D01*
X556321Y403089D01*
X556560Y403769D01*
X556815Y404443D01*
X557086Y405110D01*
X557374Y405771D01*
X557678Y406424D01*
X557998Y407070D01*
X558334Y407708D01*
X558685Y408337D01*
X559051Y408957D01*
X559432Y409569D01*
X559829Y410171D01*
X560240Y410763D01*
X560665Y411344D01*
X561105Y411916D01*
X561558Y412476D01*
X562025Y413025D01*
X562505Y413562D01*
X562998Y414087D01*
X563504Y414601D01*
X564022Y415101D01*
X564553Y415589D01*
X565095Y416064D01*
X565649Y416525D01*
X566214Y416972D01*
X566789Y417406D01*
X567375Y417825D01*
X567971Y418230D01*
X568577Y418620D01*
X569193Y418995D01*
X569817Y419355D01*
X570450Y419700D01*
X596950Y420450D02*
X597605Y420130D01*
X598253Y419793D01*
X598892Y419441D01*
X599522Y419073D01*
X600143Y418690D01*
X600754Y418292D01*
X601355Y417879D01*
X601946Y417451D01*
X602526Y417009D01*
X603096Y416553D01*
X603654Y416083D01*
X604200Y415600D01*
X604735Y415103D01*
X605257Y414594D01*
X605766Y414071D01*
X606262Y413537D01*
X606745Y412990D01*
X607215Y412432D01*
X607671Y411862D01*
X608112Y411282D01*
X608540Y410690D01*
X608953Y410089D01*
X609350Y409477D01*
X609733Y408856D01*
X610101Y408226D01*
X610452Y407587D01*
X610789Y406939D01*
X611109Y406284D01*
X611413Y405621D01*
X611700Y404950D01*
X612950Y399950D02*
X613095Y399244D01*
X613221Y398535D01*
X613331Y397823D01*
X613423Y397108D01*
X613497Y396391D01*
X613554Y395673D01*
X613594Y394953D01*
X613615Y394233D01*
X613619Y393512D01*
X613606Y392792D01*
X613574Y392072D01*
X613526Y391353D01*
X613459Y390635D01*
X613375Y389920D01*
X613273Y389206D01*
X613154Y388495D01*
X613018Y387788D01*
X612864Y387084D01*
X612693Y386384D01*
X612505Y385688D01*
X612301Y384997D01*
X612079Y384311D01*
X611840Y383631D01*
X611585Y382957D01*
X611314Y382290D01*
X611026Y381629D01*
X610722Y380976D01*
X610402Y380330D01*
X610066Y379692D01*
X609715Y379063D01*
X609349Y378443D01*
X608968Y377831D01*
X608571Y377229D01*
X608160Y376637D01*
X607735Y376056D01*
X607295Y375484D01*
X606842Y374924D01*
X606375Y374375D01*
X605895Y373838D01*
X605402Y373313D01*
X604896Y372799D01*
X604378Y372299D01*
X603847Y371811D01*
X603305Y371336D01*
X602751Y370875D01*
X602186Y370428D01*
X601611Y369994D01*
X601025Y369575D01*
X600429Y369170D01*
X599823Y368780D01*
X599207Y368405D01*
X598583Y368045D01*
X597950Y367700D01*
X571450Y366950D02*
X570795Y367270D01*
X570147Y367607D01*
X569508Y367959D01*
X568878Y368327D01*
X568257Y368710D01*
X567646Y369108D01*
X567045Y369521D01*
X566454Y369949D01*
X565874Y370391D01*
X565304Y370847D01*
X564746Y371317D01*
X564200Y371800D01*
X563665Y372297D01*
X563143Y372806D01*
X562634Y373329D01*
X562138Y373863D01*
X561655Y374410D01*
X561185Y374968D01*
X560729Y375538D01*
X560288Y376118D01*
X559860Y376710D01*
X559447Y377311D01*
X559050Y377923D01*
X558667Y378544D01*
X558299Y379174D01*
X557948Y379813D01*
X557611Y380461D01*
X557291Y381116D01*
X556987Y381779D01*
X556700Y382450D01*
D15*
X547700Y430200D02*
X570700Y430200D01*
X570700Y357200D02*
X547700Y357200D01*
X597700Y357200D02*
X620700Y357200D01*
X620700Y430200D02*
X597700Y430200D01*
D19*
X599200Y407450D03*
D11*
X694944Y450850D02*
X740156Y450850D01*
X740156Y412750D02*
X694944Y412750D01*
D15*
X709250Y431800D02*
X719480Y441800D01*
X709250Y431800D02*
X719480Y421800D01*
X719480Y441800D01*
D11*
X740156Y374650D02*
X694944Y374650D01*
X694944Y412750D02*
X740156Y412750D01*
D15*
X725850Y393700D02*
X715620Y383700D01*
X725850Y393700D02*
X715620Y403700D01*
X715620Y383700D01*
D12*
X455410Y395960D02*
X455410Y360960D01*
X452510Y360960D01*
X439310Y360960D02*
X429510Y360960D01*
X416310Y360960D02*
X406510Y360960D01*
X393310Y360960D02*
X390410Y360960D01*
X390410Y395960D01*
X404810Y395960D01*
X441010Y395960D02*
X455410Y395960D01*
D11*
X486664Y326390D02*
X531876Y326390D01*
X531876Y288290D02*
X486664Y288290D01*
D15*
X500970Y307340D02*
X511200Y317340D01*
X500970Y307340D02*
X511200Y297340D01*
X511200Y317340D01*
D11*
X529336Y398780D02*
X484124Y398780D01*
X484124Y360680D02*
X529336Y360680D01*
D15*
X508660Y389730D02*
X498430Y379730D01*
X508660Y369730D01*
X508660Y389730D01*
X443608Y262910D02*
X386608Y262910D01*
X386608Y284910D01*
X386608Y306910D02*
X386608Y328910D01*
X443608Y328910D01*
X452608Y319910D02*
X452608Y306910D01*
X452608Y284910D02*
X452608Y271910D01*
X443608Y262910D01*
X452608Y319910D02*
X443608Y328910D01*
X449107Y286410D02*
X448867Y285696D01*
X448610Y284988D01*
X448335Y284287D01*
X448043Y283592D01*
X447735Y282905D01*
X447410Y282226D01*
X447068Y281554D01*
X446710Y280892D01*
X446336Y280238D01*
X445947Y279593D01*
X445541Y278958D01*
X445121Y278333D01*
X444685Y277719D01*
X444234Y277115D01*
X443769Y276523D01*
X443290Y275942D01*
X442796Y275373D01*
X442289Y274816D01*
X441768Y274271D01*
X441235Y273740D01*
X440688Y273221D01*
X440129Y272717D01*
X439558Y272225D01*
X438975Y271748D01*
X438381Y271286D01*
X437775Y270837D01*
X437159Y270404D01*
X436533Y269986D01*
X435896Y269583D01*
X435250Y269196D01*
X434595Y268825D01*
X433930Y268470D01*
X433258Y268131D01*
X432577Y267809D01*
X431888Y267503D01*
X431193Y267214D01*
X430490Y266942D01*
X429781Y266688D01*
X429066Y266450D01*
X428346Y266231D01*
X427620Y266028D01*
X426890Y265844D01*
X426155Y265677D01*
X425417Y265529D01*
X424675Y265398D01*
X423930Y265286D01*
X423183Y265191D01*
X422433Y265115D01*
X421682Y265058D01*
X420930Y265018D01*
X420177Y264997D01*
X419424Y264994D01*
X418671Y265010D01*
X417918Y265044D01*
X417167Y265096D01*
X416417Y265166D01*
X415669Y265255D01*
X414923Y265362D01*
X414181Y265487D01*
X413441Y265630D01*
X412705Y265791D01*
X411974Y265970D01*
X411246Y266167D01*
X410524Y266382D01*
X409808Y266614D01*
X409097Y266863D01*
X408392Y267130D01*
X407695Y267413D01*
X407004Y267714D01*
X406321Y268031D01*
X405646Y268365D01*
X404979Y268715D01*
X404321Y269082D01*
X403672Y269464D01*
X403032Y269862D01*
X402402Y270275D01*
X401783Y270704D01*
X401174Y271148D01*
X400576Y271606D01*
X399990Y272079D01*
X399415Y272566D01*
X398853Y273066D01*
X398302Y273581D01*
X397765Y274108D01*
X397240Y274649D01*
X396729Y275202D01*
X396231Y275767D01*
X395747Y276345D01*
X395278Y276934D01*
X394823Y277534D01*
X394382Y278145D01*
X393957Y278767D01*
X393547Y279399D01*
X393153Y280040D01*
X392774Y280692D01*
X392411Y281352D01*
X392065Y282021D01*
X391734Y282698D01*
X391421Y283382D01*
X391124Y284075D01*
X390844Y284774D01*
X390581Y285480D01*
X390336Y286192D01*
X390108Y286910D01*
X390109Y305410D02*
X390349Y306124D01*
X390606Y306832D01*
X390881Y307533D01*
X391173Y308228D01*
X391481Y308915D01*
X391806Y309594D01*
X392148Y310266D01*
X392506Y310928D01*
X392880Y311582D01*
X393269Y312227D01*
X393675Y312862D01*
X394095Y313487D01*
X394531Y314101D01*
X394982Y314705D01*
X395447Y315297D01*
X395926Y315878D01*
X396420Y316447D01*
X396927Y317004D01*
X397448Y317549D01*
X397981Y318080D01*
X398528Y318599D01*
X399087Y319103D01*
X399658Y319595D01*
X400241Y320072D01*
X400835Y320534D01*
X401441Y320983D01*
X402057Y321416D01*
X402683Y321834D01*
X403320Y322237D01*
X403966Y322624D01*
X404621Y322995D01*
X405286Y323350D01*
X405958Y323689D01*
X406639Y324011D01*
X407328Y324317D01*
X408023Y324606D01*
X408726Y324878D01*
X409435Y325132D01*
X410150Y325370D01*
X410870Y325589D01*
X411596Y325792D01*
X412326Y325976D01*
X413061Y326143D01*
X413799Y326291D01*
X414541Y326422D01*
X415286Y326534D01*
X416033Y326629D01*
X416783Y326705D01*
X417534Y326762D01*
X418286Y326802D01*
X419039Y326823D01*
X419792Y326826D01*
X420545Y326810D01*
X421298Y326776D01*
X422049Y326724D01*
X422799Y326654D01*
X423547Y326565D01*
X424293Y326458D01*
X425035Y326333D01*
X425775Y326190D01*
X426511Y326029D01*
X427242Y325850D01*
X427970Y325653D01*
X428692Y325438D01*
X429408Y325206D01*
X430119Y324957D01*
X430824Y324690D01*
X431521Y324407D01*
X432212Y324106D01*
X432895Y323789D01*
X433570Y323455D01*
X434237Y323105D01*
X434895Y322738D01*
X435544Y322356D01*
X436184Y321958D01*
X436814Y321545D01*
X437433Y321116D01*
X438042Y320672D01*
X438640Y320214D01*
X439226Y319741D01*
X439801Y319254D01*
X440363Y318754D01*
X440914Y318239D01*
X441451Y317712D01*
X441976Y317171D01*
X442487Y316618D01*
X442985Y316053D01*
X443469Y315475D01*
X443938Y314886D01*
X444393Y314286D01*
X444834Y313675D01*
X445259Y313053D01*
X445669Y312421D01*
X446063Y311780D01*
X446442Y311128D01*
X446805Y310468D01*
X447151Y309799D01*
X447482Y309122D01*
X447795Y308438D01*
X448092Y307745D01*
X448372Y307046D01*
X448635Y306340D01*
X448880Y305628D01*
X449108Y304910D01*
D12*
X368300Y120650D02*
X368300Y107950D01*
X368300Y120650D02*
X374650Y127000D01*
X387350Y127000D01*
X393700Y120650D01*
X374650Y127000D02*
X368300Y133350D01*
X368300Y146050D01*
X374650Y152400D01*
X387350Y152400D01*
X393700Y146050D01*
X393700Y133350D01*
X387350Y127000D01*
X387350Y101600D02*
X374650Y101600D01*
X368300Y107950D01*
X387350Y101600D02*
X393700Y107950D01*
X393700Y120650D01*
X374650Y152400D02*
X368300Y158750D01*
X368300Y171450D01*
X374650Y177800D01*
X387350Y177800D01*
X393700Y171450D01*
X393700Y158750D01*
X387350Y152400D01*
D15*
X20450Y151925D02*
X20450Y165575D01*
M02*
