G04 EAGLE Gerber X2 export*
%TF.Part,Single*%
%TF.FileFunction,Paste,Top*%
%TF.FilePolarity,Positive*%
%TF.GenerationSoftware,Autodesk,EAGLE,8.7.1*%
%TF.CreationDate,2018-04-19T12:08:15Z*%
G75*
%MOMM*%
%FSLAX34Y34*%
%LPD*%
%AMOC8*
5,1,8,0,0,1.08239X$1,22.5*%
G01*
%ADD10R,1.600000X1.800000*%
%ADD11R,1.800000X1.600000*%
%ADD12R,1.200000X1.400000*%
%ADD13R,1.500000X0.350000*%
%ADD14R,0.350000X1.500000*%
%ADD15R,1.981200X0.558800*%
%ADD16R,1.600000X1.803000*%
%ADD17R,1.803000X1.600000*%
%ADD18R,0.635000X1.524000*%
%ADD19R,3.000000X1.600000*%
%ADD20R,6.700000X6.700000*%
%ADD21R,0.558800X1.320800*%
%ADD22C,0.650000*%
%ADD23R,1.500000X0.450000*%
%ADD24R,1.168400X1.600200*%
%ADD25R,1.600200X1.168400*%
%ADD26R,1.200000X1.200000*%
%ADD27R,1.200000X0.550000*%
%ADD28R,2.200000X1.600000*%
%ADD29R,2.400000X2.400000*%
%ADD30R,0.950000X2.150000*%
%ADD31R,3.250000X2.150000*%
%ADD32R,3.500000X1.600000*%


D10*
X367000Y609600D03*
X395000Y609600D03*
X240000Y571500D03*
X268000Y571500D03*
X303500Y609600D03*
X331500Y609600D03*
X303500Y571500D03*
X331500Y571500D03*
X121950Y31750D03*
X93950Y31750D03*
X325150Y152400D03*
X297150Y152400D03*
X233650Y152400D03*
X261650Y152400D03*
D11*
X177800Y179100D03*
X177800Y151100D03*
X88900Y151100D03*
X88900Y179100D03*
X114300Y151100D03*
X114300Y179100D03*
D10*
X367000Y571500D03*
X395000Y571500D03*
X185450Y31750D03*
X157450Y31750D03*
X176500Y609600D03*
X204500Y609600D03*
X176500Y571500D03*
X204500Y571500D03*
X49500Y609600D03*
X77500Y609600D03*
X49500Y571500D03*
X77500Y571500D03*
X113000Y609600D03*
X141000Y609600D03*
X113000Y571500D03*
X141000Y571500D03*
X240000Y609600D03*
X268000Y609600D03*
D12*
X326150Y101600D03*
X296150Y101600D03*
X326150Y63500D03*
X296150Y63500D03*
D13*
X174000Y390200D03*
X174000Y385200D03*
X174000Y380200D03*
X174000Y375200D03*
X174000Y370200D03*
X174000Y365200D03*
X174000Y360200D03*
X174000Y355200D03*
X174000Y350200D03*
X174000Y345200D03*
X174000Y340200D03*
X174000Y335200D03*
X174000Y330200D03*
X174000Y325200D03*
X174000Y320200D03*
X174000Y315200D03*
X174000Y310200D03*
X174000Y305200D03*
X174000Y300200D03*
X174000Y295200D03*
X174000Y290200D03*
X174000Y285200D03*
X174000Y280200D03*
X174000Y275200D03*
X174000Y270200D03*
D14*
X194000Y250200D03*
X199000Y250200D03*
X204000Y250200D03*
X209000Y250200D03*
X214000Y250200D03*
X219000Y250200D03*
X224000Y250200D03*
X229000Y250200D03*
X234000Y250200D03*
X239000Y250200D03*
X244000Y250200D03*
X249000Y250200D03*
X254000Y250200D03*
X259000Y250200D03*
X264000Y250200D03*
X269000Y250200D03*
X274000Y250200D03*
X279000Y250200D03*
X284000Y250200D03*
X289000Y250200D03*
X294000Y250200D03*
X299000Y250200D03*
X304000Y250200D03*
X309000Y250200D03*
X314000Y250200D03*
D13*
X334000Y270200D03*
X334000Y275200D03*
X334000Y280200D03*
X334000Y285200D03*
X334000Y290200D03*
X334000Y295200D03*
X334000Y300200D03*
X334000Y305200D03*
X334000Y310200D03*
X334000Y315200D03*
X334000Y320200D03*
X334000Y325200D03*
X334000Y330200D03*
X334000Y335200D03*
X334000Y340200D03*
X334000Y345200D03*
X334000Y350200D03*
X334000Y355200D03*
X334000Y360200D03*
X334000Y365200D03*
X334000Y370200D03*
X334000Y375200D03*
X334000Y380200D03*
X334000Y385200D03*
X334000Y390200D03*
D14*
X314000Y410200D03*
X309000Y410200D03*
X304000Y410200D03*
X299000Y410200D03*
X294000Y410200D03*
X289000Y410200D03*
X284000Y410200D03*
X279000Y410200D03*
X274000Y410200D03*
X269000Y410200D03*
X264000Y410200D03*
X259000Y410200D03*
X254000Y410200D03*
X249000Y410200D03*
X244000Y410200D03*
X239000Y410200D03*
X234000Y410200D03*
X229000Y410200D03*
X224000Y410200D03*
X219000Y410200D03*
X214000Y410200D03*
X209000Y410200D03*
X204000Y410200D03*
X199000Y410200D03*
X194000Y410200D03*
D15*
X490728Y234950D03*
X490728Y222250D03*
X490728Y209550D03*
X490728Y196850D03*
X537972Y196850D03*
X537972Y209550D03*
X537972Y222250D03*
X537972Y234950D03*
X490728Y101600D03*
X490728Y88900D03*
X490728Y76200D03*
X490728Y63500D03*
X537972Y63500D03*
X537972Y76200D03*
X537972Y88900D03*
X537972Y101600D03*
D16*
X233430Y63500D03*
X261870Y63500D03*
X449830Y187960D03*
X421390Y187960D03*
X528570Y260350D03*
X500130Y260350D03*
X500130Y171450D03*
X528570Y171450D03*
X449830Y152400D03*
X421390Y152400D03*
X452370Y73660D03*
X423930Y73660D03*
X528570Y127000D03*
X500130Y127000D03*
X500130Y38100D03*
X528570Y38100D03*
X452370Y38100D03*
X423930Y38100D03*
D17*
X203200Y179320D03*
X203200Y150880D03*
D16*
X395220Y533400D03*
X366780Y533400D03*
X204720Y533400D03*
X176280Y533400D03*
X77720Y533400D03*
X49280Y533400D03*
X141220Y533400D03*
X112780Y533400D03*
X268220Y533400D03*
X239780Y533400D03*
X331720Y533400D03*
X303280Y533400D03*
X112780Y495300D03*
X141220Y495300D03*
X77720Y495300D03*
X49280Y495300D03*
X395220Y495300D03*
X366780Y495300D03*
X366780Y457200D03*
X395220Y457200D03*
X233430Y101600D03*
X261870Y101600D03*
D18*
X171450Y115850D03*
X146050Y61950D03*
X184150Y115850D03*
X158750Y115850D03*
X146050Y115850D03*
X158750Y61950D03*
X133350Y61950D03*
X120650Y61950D03*
X120650Y115850D03*
X95250Y61950D03*
X133350Y115850D03*
X107950Y115850D03*
X107950Y61950D03*
X95250Y115850D03*
X171450Y61950D03*
X184150Y61950D03*
D19*
X643750Y73800D03*
X643750Y27800D03*
D20*
X710250Y50800D03*
D17*
X577850Y65020D03*
X577850Y36580D03*
D19*
X643750Y150000D03*
X643750Y104000D03*
D20*
X710250Y127000D03*
D17*
X577850Y141220D03*
X577850Y112780D03*
D19*
X643750Y226200D03*
X643750Y180200D03*
D20*
X710250Y203200D03*
D17*
X577850Y217420D03*
X577850Y188980D03*
D19*
X643750Y302400D03*
X643750Y256400D03*
D20*
X710250Y279400D03*
D17*
X577850Y293620D03*
X577850Y265180D03*
D21*
X270002Y476250D03*
X279400Y476250D03*
X288798Y476250D03*
X288798Y501650D03*
X279400Y501650D03*
X270002Y501650D03*
X219202Y476250D03*
X228600Y476250D03*
X237998Y476250D03*
X237998Y501650D03*
X228600Y501650D03*
X219202Y501650D03*
D22*
X429250Y568300D02*
X436750Y568300D01*
X436750Y549300D02*
X429250Y549300D01*
X452250Y558800D02*
X459750Y558800D01*
D16*
X431800Y495300D03*
X460240Y495300D03*
X431800Y457200D03*
X460240Y457200D03*
X431800Y527050D03*
X460240Y527050D03*
D23*
X576350Y561975D03*
X576350Y555625D03*
X576350Y549275D03*
X576350Y542925D03*
X576350Y536575D03*
X576350Y530225D03*
X576350Y523875D03*
X576350Y517525D03*
X630150Y517525D03*
X630150Y523875D03*
X630150Y530225D03*
X630150Y536575D03*
X630150Y542925D03*
X630150Y549275D03*
X630150Y555625D03*
X630150Y561975D03*
D10*
X623600Y590550D03*
X595600Y590550D03*
X560100Y622300D03*
X532100Y622300D03*
X623600Y615950D03*
X595600Y615950D03*
X595600Y495300D03*
X623600Y495300D03*
X659100Y596900D03*
X687100Y596900D03*
D24*
X725170Y495300D03*
X709930Y495300D03*
X725170Y577850D03*
X709930Y577850D03*
X725170Y469900D03*
X709930Y469900D03*
X725170Y603250D03*
X709930Y603250D03*
D25*
X539750Y543560D03*
X539750Y558800D03*
X539750Y574040D03*
X539750Y486410D03*
X539750Y501650D03*
X539750Y516890D03*
D26*
X442300Y622300D03*
X421300Y622300D03*
X442300Y596900D03*
X421300Y596900D03*
D16*
X687320Y520700D03*
X658880Y520700D03*
X687320Y495300D03*
X658880Y495300D03*
X687320Y571500D03*
X658880Y571500D03*
X687320Y546100D03*
X658880Y546100D03*
X496820Y622300D03*
X468380Y622300D03*
X496820Y596900D03*
X468380Y596900D03*
X687320Y469900D03*
X658880Y469900D03*
X687320Y622300D03*
X658880Y622300D03*
X560320Y596900D03*
X531880Y596900D03*
D17*
X508000Y462030D03*
X508000Y490470D03*
D27*
X660700Y377850D03*
X660700Y387350D03*
X660700Y396850D03*
X634700Y396850D03*
X634700Y387350D03*
X634700Y377850D03*
D28*
X584200Y425700D03*
X584200Y361700D03*
D29*
X695550Y431800D03*
X739550Y431800D03*
X739550Y393700D03*
X695550Y393700D03*
D10*
X731550Y361950D03*
X703550Y361950D03*
X731042Y336042D03*
X703042Y336042D03*
X530890Y427990D03*
X502890Y427990D03*
D16*
X661920Y420370D03*
X633480Y420370D03*
X595380Y448310D03*
X623820Y448310D03*
X668270Y330200D03*
X639830Y330200D03*
D10*
X576550Y330200D03*
X604550Y330200D03*
D30*
X399910Y349460D03*
X422910Y349460D03*
X445910Y349460D03*
D31*
X422910Y407460D03*
D10*
X505938Y342900D03*
X533938Y342900D03*
D29*
X487270Y307340D03*
X531270Y307340D03*
X484730Y379730D03*
X528730Y379730D03*
D32*
X446608Y295910D03*
X392608Y295910D03*
D12*
X59450Y158750D03*
X29450Y158750D03*
D16*
X58670Y184150D03*
X30230Y184150D03*
M02*
